Cent-mille-chemises-molles.ufo
<glyph name="a" format="1">
  <advance width="220"/>
  <unicode hex="0061"/>
  <outline>
    <contour>
      <point x="100.559" y="388.527" type="curve"/>
      <point x="100.56" y="388.527" type="line"/>
      <point x="113.58" y="389.186"/>
      <point x="126.76" y="386.43"/>
      <point x="138.426" y="380.609" type="curve" smooth="yes"/>
      <point x="157.679" y="371.005"/>
      <point x="172.276" y="353.27"/>
      <point x="180.079" y="333.219" type="curve" smooth="yes"/>
      <point x="190.566" y="306.268"/>
      <point x="189.27" y="276.305"/>
      <point x="186.464" y="247.521" type="curve" smooth="yes"/>
      <point x="183.659" y="218.738"/>
      <point x="179.516" y="189.532"/>
      <point x="184.784" y="161.098" type="curve" smooth="yes"/>
      <point x="190.211" y="131.804"/>
      <point x="205.356" y="105.016"/>
      <point x="210.961" y="75.7549" type="curve" smooth="yes"/>
      <point x="213.763" y="61.125"/>
      <point x="214.079" y="45.7441"/>
      <point x="209.55" y="31.5527" type="curve" smooth="yes"/>
      <point x="205.02" y="17.3623"/>
      <point x="195.229" y="4.47266"/>
      <point x="181.686" y="-1.72949" type="curve" smooth="yes"/>
      <point x="173.233" y="-5.59961"/>
      <point x="163.784" y="-6.74316"/>
      <point x="154.491" y="-6.98828" type="curve" smooth="yes"/>
      <point x="145.197" y="-7.23438"/>
      <point x="135.884" y="-6.63281"/>
      <point x="126.607" y="-7.2373" type="curve" smooth="yes"/>
      <point x="118.07" y="-7.79297"/>
      <point x="109.631" y="-9.36523"/>
      <point x="101.115" y="-10.1846" type="curve" smooth="yes"/>
      <point x="92.5996" y="-11.0049"/>
      <point x="83.8604" y="-11.0498"/>
      <point x="75.6592" y="-8.61426" type="curve" smooth="yes"/>
      <point x="69.6904" y="-6.8418"/>
      <point x="64.1836" y="-3.80957"/>
      <point x="58.791" y="-0.696289" type="curve" smooth="yes"/>
      <point x="49.2441" y="4.81543"/>
      <point x="39.6318" y="10.8877"/>
      <point x="33.2021" y="19.8438" type="curve" smooth="yes"/>
      <point x="28.165" y="26.8604"/>
      <point x="25.3789" y="35.2891"/>
      <point x="23.9609" y="43.8096" type="curve" smooth="yes"/>
      <point x="22.5439" y="52.3301"/>
      <point x="22.4287" y="61.0068"/>
      <point x="22.3018" y="69.6436" type="curve" smooth="yes"/>
      <point x="21.918" y="95.6553"/>
      <point x="21.3896" y="121.664"/>
      <point x="20.8096" y="147.672" type="curve" smooth="yes"/>
      <point x="20.6055" y="156.831"/>
      <point x="20.3965" y="166.023"/>
      <point x="21.4229" y="175.127" type="curve" smooth="yes"/>
      <point x="22.4492" y="184.23"/>
      <point x="24.7588" y="193.303"/>
      <point x="29.3008" y="201.259" type="curve" smooth="yes"/>
      <point x="34.8477" y="210.974"/>
      <point x="43.5459" y="218.654"/>
      <point x="53.3096" y="224.113" type="curve" smooth="yes"/>
      <point x="63.0732" y="229.572"/>
      <point x="73.8936" y="232.915"/>
      <point x="84.8389" y="235.225" type="curve" smooth="yes"/>
      <point x="94.1768" y="237.194"/>
      <point x="103.662" y="238.438"/>
      <point x="113.182" y="239.126" type="curve" smooth="yes"/>
      <point x="115.924" y="239.323"/>
      <point x="118.757" y="239.498"/>
      <point x="121.214" y="240.732" type="curve" smooth="yes"/>
      <point x="124.126" y="242.194"/>
      <point x="126.194" y="245.051"/>
      <point x="127.138" y="248.169" type="curve" smooth="yes"/>
      <point x="128.082" y="251.288"/>
      <point x="127.985" y="254.647"/>
      <point x="127.349" y="257.843" type="curve" smooth="yes"/>
      <point x="126.073" y="264.233"/>
      <point x="122.726" y="270.054"/>
      <point x="121.328" y="276.419" type="curve" smooth="yes"/>
      <point x="119.775" y="283.492"/>
      <point x="120.705" y="290.836"/>
      <point x="120.796" y="298.077" type="curve" smooth="yes"/>
      <point x="120.842" y="301.697"/>
      <point x="120.672" y="305.343"/>
      <point x="119.88" y="308.876" type="curve" smooth="yes"/>
      <point x="119.089" y="312.409"/>
      <point x="117.651" y="315.841"/>
      <point x="115.361" y="318.646" type="curve" smooth="yes"/>
      <point x="112.059" y="322.69"/>
      <point x="106.998" y="325.247"/>
      <point x="101.783" y="325.506" type="curve" smooth="yes"/>
      <point x="96.5674" y="325.764"/>
      <point x="91.2793" y="323.721"/>
      <point x="87.5928" y="320.022" type="curve" smooth="yes"/>
      <point x="84.042" y="316.462"/>
      <point x="82.0508" y="311.564"/>
      <point x="81.2949" y="306.593" type="curve" smooth="yes"/>
      <point x="80.5381" y="301.622"/>
      <point x="80.9365" y="296.546"/>
      <point x="81.625" y="291.565" type="curve" smooth="yes"/>
      <point x="82.2461" y="287.074"/>
      <point x="83.1055" y="282.577"/>
      <point x="82.9209" y="278.047" type="curve" smooth="yes"/>
      <point x="82.8291" y="275.781"/>
      <point x="82.4727" y="273.517"/>
      <point x="81.7129" y="271.38" type="curve" smooth="yes"/>
      <point x="80.9541" y="269.244"/>
      <point x="79.7832" y="267.238"/>
      <point x="78.1826" y="265.633" type="curve" smooth="yes"/>
      <point x="76.584" y="264.028"/>
      <point x="74.5859" y="262.853"/>
      <point x="72.4619" y="262.069" type="curve" smooth="yes"/>
      <point x="70.3369" y="261.286"/>
      <point x="68.085" y="260.885"/>
      <point x="65.8271" y="260.711" type="curve" smooth="yes"/>
      <point x="61.3115" y="260.363"/>
      <point x="56.7793" y="260.908"/>
      <point x="52.25" y="260.928" type="curve" smooth="yes"/>
      <point x="47.0635" y="260.948"/>
      <point x="41.8848" y="260.274"/>
      <point x="36.7012" y="260.454" type="curve" smooth="yes"/>
      <point x="31.5176" y="260.633"/>
      <point x="26.165" y="261.759"/>
      <point x="22.0713" y="264.944" type="curve" smooth="yes"/>
      <point x="19.7842" y="266.724"/>
      <point x="17.9805" y="269.086"/>
      <point x="16.7041" y="271.687" type="curve" smooth="yes"/>
      <point x="15.4287" y="274.288"/>
      <point x="14.6689" y="277.125"/>
      <point x="14.2979" y="279.999" type="curve" smooth="yes"/>
      <point x="13.5537" y="285.746"/>
      <point x="14.3369" y="291.57"/>
      <point x="15.1865" y="297.303" type="curve" smooth="yes"/>
      <point x="16.9336" y="309.086"/>
      <point x="18.9756" y="320.873"/>
      <point x="22.6025" y="332.22" type="curve" smooth="yes"/>
      <point x="26.2295" y="343.566"/>
      <point x="31.5" y="354.512"/>
      <point x="39.1689" y="363.627" type="curve" smooth="yes"/>
      <point x="53.9609" y="381.209"/>
      <point x="77.6982" y="390.837"/>
    </contour>
    <contour>
      <point x="120.196" y="177.452" type="curve" smooth="yes"/>
      <point x="117.561" y="179.358"/>
      <point x="114.368" y="180.532"/>
      <point x="109.997" y="180.48" type="curve" smooth="yes"/>
      <point x="104.47" y="180.453"/>
      <point x="102.523" y="178.837"/>
      <point x="98.4932" y="177.047" type="curve" smooth="yes"/>
      <point x="93.0381" y="174.625"/>
      <point x="87.3779" y="172.154"/>
      <point x="83.3467" y="167.753" type="curve" smooth="yes"/>
      <point x="80.1133" y="164.223"/>
      <point x="78.1592" y="159.648"/>
      <point x="77.2734" y="154.945" type="curve" smooth="yes"/>
      <point x="76.3877" y="150.241"/>
      <point x="76.5244" y="145.396"/>
      <point x="77.0908" y="140.644" type="curve" smooth="yes"/>
      <point x="78.2227" y="131.139"/>
      <point x="81.0596" y="121.784"/>
      <point x="80.8223" y="112.215" type="curve" smooth="yes"/>
      <point x="80.5703" y="102.075"/>
      <point x="76.8799" y="92.334"/>
      <point x="75.7217" y="82.2578" type="curve" smooth="yes"/>
      <point x="75.1426" y="77.2197"/>
      <point x="75.2119" y="72.0391"/>
      <point x="76.6436" y="67.1738" type="curve" smooth="yes"/>
      <point x="78.0742" y="62.3096"/>
      <point x="80.96" y="57.7656"/>
      <point x="85.1826" y="54.9561" type="curve" smooth="yes"/>
      <point x="88.0098" y="53.0742"/>
      <point x="91.3223" y="52.0283"/>
      <point x="94.667" y="51.4424" type="curve" smooth="yes"/>
      <point x="98.0127" y="50.8555"/>
      <point x="101.416" y="50.7061"/>
      <point x="104.805" y="50.4805" type="curve" smooth="yes"/>
      <point x="109.829" y="50.1455"/>
      <point x="115.079" y="49.6748"/>
      <point x="119.722" y="51.6279" type="curve" smooth="yes"/>
      <point x="122.298" y="52.7119"/>
      <point x="124.551" y="54.5127"/>
      <point x="126.284" y="56.7061" type="curve" smooth="yes"/>
      <point x="128.018" y="58.8994"/>
      <point x="129.239" y="61.4766"/>
      <point x="129.972" y="64.1748" type="curve" smooth="yes"/>
      <point x="131.438" y="69.5693"/>
      <point x="130.952" y="75.333"/>
      <point x="129.619" y="80.7627" type="curve" smooth="yes"/>
      <point x="126.954" y="91.6221"/>
      <point x="120.967" y="101.735"/>
      <point x="120.41" y="112.903" type="curve" smooth="yes"/>
      <point x="120.086" y="119.402"/>
      <point x="121.64" y="125.845"/>
      <point x="123.499" y="132.08" type="curve" smooth="yes"/>
      <point x="125.358" y="138.315"/>
      <point x="127.543" y="144.49"/>
      <point x="128.535" y="150.921" type="curve" smooth="yes"/>
      <point x="129.528" y="157.352"/>
      <point x="129.251" y="164.18"/>
      <point x="126.364" y="170.011" type="curve" smooth="yes"/>
      <point x="124.921" y="172.927"/>
      <point x="122.832" y="175.545"/>
    </contour>
  </outline>
</glyph>
<glyph name="b" format="1">
  <advance width="221"/>
  <unicode hex="0062"/>
  <outline>
    <contour>
      <point x="74.0918" y="509.979" type="curve" smooth="yes"/>
      <point x="78.7764" y="510.456"/>
      <point x="83.5" y="510.792"/>
      <point x="88.1924" y="510.385" type="curve" smooth="yes"/>
      <point x="92.8838" y="509.978"/>
      <point x="97.5674" y="508.801"/>
      <point x="101.631" y="506.422" type="curve" smooth="yes"/>
      <point x="106.772" y="503.412"/>
      <point x="110.721" y="498.555"/>
      <point x="113.058" y="493.074" type="curve" smooth="yes"/>
      <point x="115.395" y="487.595"/>
      <point x="116.173" y="481.521"/>
      <point x="115.774" y="475.576" type="curve" smooth="yes"/>
      <point x="114.979" y="463.688"/>
      <point x="109.662" y="452.606"/>
      <point x="103.926" y="442.163" type="curve" smooth="yes"/>
      <point x="98.4111" y="432.121"/>
      <point x="92.2969" y="422.006"/>
      <point x="90.7197" y="410.657" type="curve" smooth="yes"/>
      <point x="89.9316" y="404.983"/>
      <point x="90.3477" y="399.067"/>
      <point x="92.5186" y="393.766" type="curve" smooth="yes"/>
      <point x="94.6895" y="388.465"/>
      <point x="98.709" y="383.827"/>
      <point x="103.926" y="381.462" type="curve" smooth="yes"/>
      <point x="108.119" y="379.562"/>
      <point x="112.861" y="379.185"/>
      <point x="117.455" y="379.498" type="curve" smooth="yes"/>
      <point x="122.049" y="379.812"/>
      <point x="126.568" y="380.781"/>
      <point x="131.121" y="381.462" type="curve" smooth="yes"/>
      <point x="142.805" y="383.209"/>
      <point x="154.939" y="383.02"/>
      <point x="166.191" y="379.423" type="curve" smooth="yes"/>
      <point x="177.444" y="375.827"/>
      <point x="187.765" y="368.614"/>
      <point x="193.801" y="358.459" type="curve" smooth="yes"/>
      <point x="197.298" y="352.574"/>
      <point x="199.277" y="345.915"/>
      <point x="200.773" y="339.235" type="curve" smooth="yes"/>
      <point x="211.273" y="292.349"/>
      <point x="199.309" y="243.615"/>
      <point x="199.855" y="195.571" type="curve" smooth="yes"/>
      <point x="200.155" y="169.216"/>
      <point x="204.237" y="143.044"/>
      <point x="205.41" y="116.713" type="curve" smooth="yes"/>
      <point x="206.583" y="90.3818"/>
      <point x="204.666" y="63.2334"/>
      <point x="193.659" y="39.2852" type="curve" smooth="yes"/>
      <point x="185.605" y="21.7627"/>
      <point x="172.346" y="6.13672"/>
      <point x="154.874" y="-2.02441" type="curve" smooth="yes"/>
      <point x="146.26" y="-6.04785"/>
      <point x="136.823" y="-8.18359"/>
      <point x="127.335" y="-8.79492" type="curve" smooth="yes"/>
      <point x="103.947" y="-10.3008"/>
      <point x="80.4785" y="-2.50488"/>
      <point x="61.125" y="10.7119" type="curve" smooth="yes"/>
      <point x="53.7158" y="15.7725"/>
      <point x="46.667" y="21.8291"/>
      <point x="42.5391" y="29.7949" type="curve" smooth="yes"/>
      <point x="39.2871" y="36.0713"/>
      <point x="38.0322" y="43.1729"/>
      <point x="37.1436" y="50.1855" type="curve" smooth="yes"/>
      <point x="32.4473" y="87.2314"/>
      <point x="36.8203" y="124.744"/>
      <point x="40.4688" y="161.908" type="curve" smooth="yes"/>
      <point x="44.1182" y="199.072"/>
      <point x="47.0088" y="236.917"/>
      <point x="39.4385" y="273.484" type="curve" smooth="yes"/>
      <point x="30.8613" y="314.912"/>
      <point x="9.21289" y="352.852"/>
      <point x="1.60645" y="394.47" type="curve" smooth="yes"/>
      <point x="-2.19629" y="415.278"/>
      <point x="-2.32422" y="437.152"/>
      <point x="4.50293" y="457.174" type="curve" smooth="yes"/>
      <point x="7.91602" y="467.185"/>
      <point x="13.0576" y="476.645"/>
      <point x="19.9326" y="484.682" type="curve" smooth="yes"/>
      <point x="26.8086" y="492.719"/>
      <point x="35.4385" y="499.31"/>
      <point x="45.1758" y="503.438" type="curve" smooth="yes"/>
      <point x="54.3086" y="507.312"/>
      <point x="64.2227" y="508.975"/>
    </contour>
    <contour>
      <point x="123.943" y="313.95" type="curve" smooth="yes"/>
      <point x="121.532" y="314.925"/>
      <point x="118.457" y="315.52"/>
      <point x="115.704" y="315.164" type="curve" smooth="yes"/>
      <point x="112.007" y="314.688"/>
      <point x="108.629" y="313.132"/>
      <point x="105.418" y="310.777" type="curve" smooth="yes"/>
      <point x="96.4512" y="304.202"/>
      <point x="90.9355" y="293.646"/>
      <point x="88.8506" y="282.723" type="curve" smooth="yes"/>
      <point x="86.7656" y="271.8"/>
      <point x="87.8447" y="260.491"/>
      <point x="90.1133" y="249.605" type="curve" smooth="yes"/>
      <point x="94.6494" y="227.833"/>
      <point x="103.942" y="206.506"/>
      <point x="102.319" y="184.325" type="curve" smooth="yes"/>
      <point x="101.464" y="172.619"/>
      <point x="97.5762" y="161.357"/>
      <point x="93.2432" y="150.448" type="curve" smooth="yes"/>
      <point x="88.9111" y="139.54"/>
      <point x="84.0811" y="128.77"/>
      <point x="81.1904" y="117.395" type="curve" smooth="yes"/>
      <point x="78.2988" y="106.019"/>
      <point x="77.4355" y="93.8115"/>
      <point x="81.0664" y="82.6504" type="curve" smooth="yes"/>
      <point x="82.8818" y="77.0693"/>
      <point x="85.8203" y="71.8213"/>
      <point x="89.8584" y="67.5635" type="curve" smooth="yes"/>
      <point x="93.8975" y="63.3057"/>
      <point x="99.0557" y="60.0635"/>
      <point x="104.729" y="58.5625" type="curve" smooth="yes"/>
      <point x="110.729" y="56.9746"/>
      <point x="117.175" y="57.3662"/>
      <point x="123.089" y="59.251" type="curve" smooth="yes"/>
      <point x="130.064" y="61.4736"/>
      <point x="136.327" y="65.7344"/>
      <point x="141.241" y="71.1611" type="curve" smooth="yes"/>
      <point x="146.155" y="76.5889"/>
      <point x="149.744" y="83.1553"/>
      <point x="152.024" y="90.1123" type="curve" smooth="yes"/>
      <point x="156.585" y="104.026"/>
      <point x="155.913" y="119.185"/>
      <point x="153.016" y="133.538" type="curve" smooth="yes"/>
      <point x="150.119" y="147.892"/>
      <point x="145.084" y="161.71"/>
      <point x="140.962" y="175.76" type="curve" smooth="yes"/>
      <point x="136.839" y="189.811"/>
      <point x="133.6" y="204.361"/>
      <point x="134.449" y="218.979" type="curve" smooth="yes"/>
      <point x="135.372" y="234.866"/>
      <point x="141.073" y="250.096"/>
      <point x="143.132" y="265.876" type="curve" smooth="yes"/>
      <point x="144.162" y="273.766"/>
      <point x="144.264" y="281.865"/>
      <point x="142.406" y="289.602" type="curve" smooth="yes"/>
      <point x="140.549" y="297.339"/>
      <point x="136.622" y="304.72"/>
      <point x="130.548" y="309.859" type="curve" smooth="yes"/>
      <point x="128.562" y="311.539"/>
      <point x="126.354" y="312.975"/>
    </contour>
  </outline>
</glyph>
<glyph name="c" format="1">
  <advance width="190"/>
  <unicode hex="0063"/>
  <outline>
    <contour>
      <point x="153.804" y="10.0254" type="curve" smooth="yes"/>
      <point x="146.211" y="3.51758"/>
      <point x="136.543" y="-2.5332"/>
      <point x="126.426" y="-4.94629" type="curve" smooth="yes"/>
      <point x="107.337" y="-9.49902"/>
      <point x="86.3164" y="-11.3926"/>
      <point x="67.584" y="-3.05176" type="curve" smooth="yes"/>
      <point x="56.0742" y="2.07324"/>
      <point x="46.043" y="10.4092"/>
      <point x="38.7354" y="20.6729" type="curve" smooth="yes"/>
      <point x="31.084" y="31.4199"/>
      <point x="26.4668" y="44.0713"/>
      <point x="23.5186" y="56.9307" type="curve" smooth="yes"/>
      <point x="12.7461" y="103.917"/>
      <point x="23.4355" y="152.939"/>
      <point x="21.7764" y="201.116" type="curve" smooth="yes"/>
      <point x="20.9971" y="223.751"/>
      <point x="17.4814" y="246.212"/>
      <point x="16.3447" y="268.831" type="curve" smooth="yes"/>
      <point x="15.209" y="291.45"/>
      <point x="16.5684" y="314.678"/>
      <point x="25.1113" y="335.652" type="curve" smooth="yes"/>
      <point x="32.5264" y="353.855"/>
      <point x="45.8535" y="370.25"/>
      <point x="63.8369" y="378.186" type="curve" smooth="yes"/>
      <point x="74.4463" y="382.867"/>
      <point x="86.2471" y="384.455"/>
      <point x="97.834" y="383.969" type="curve" smooth="yes"/>
      <point x="110.541" y="383.436"/>
      <point x="123.229" y="380.414"/>
      <point x="134.438" y="374.403" type="curve" smooth="yes"/>
      <point x="145.646" y="368.393"/>
      <point x="155.321" y="359.316"/>
      <point x="161.317" y="348.101" type="curve" smooth="yes"/>
      <point x="169.054" y="333.632"/>
      <point x="170.318" y="316.71"/>
      <point x="171.754" y="300.365" type="curve" smooth="yes"/>
      <point x="172.766" y="288.85"/>
      <point x="173.87" y="276.827"/>
      <point x="169.578" y="266.094" type="curve" smooth="yes"/>
      <point x="167.369" y="260.57"/>
      <point x="163.753" y="255.599"/>
      <point x="159.094" y="251.901" type="curve" smooth="yes"/>
      <point x="154.435" y="248.204"/>
      <point x="148.734" y="245.804"/>
      <point x="142.818" y="245.186" type="curve" smooth="yes"/>
      <point x="136.902" y="244.567"/>
      <point x="130.791" y="245.753"/>
      <point x="125.599" y="248.655" type="curve" smooth="yes"/>
      <point x="120.406" y="251.558"/>
      <point x="116.172" y="256.18"/>
      <point x="113.854" y="261.658" type="curve" smooth="yes"/>
      <point x="110.852" y="268.756"/>
      <point x="111.132" y="276.741"/>
      <point x="111.154" y="284.448" type="curve" smooth="yes"/>
      <point x="111.165" y="288.302"/>
      <point x="111.096" y="292.172"/>
      <point x="110.486" y="295.977" type="curve" smooth="yes"/>
      <point x="109.877" y="299.781"/>
      <point x="108.708" y="303.539"/>
      <point x="106.653" y="306.8" type="curve" smooth="yes"/>
      <point x="104.673" y="309.943"/>
      <point x="101.892" y="312.566"/>
      <point x="98.6787" y="314.434" type="curve" smooth="yes"/>
      <point x="95.4668" y="316.302"/>
      <point x="91.8311" y="317.418"/>
      <point x="88.1318" y="317.762" type="curve" smooth="yes"/>
      <point x="81.6973" y="318.358"/>
      <point x="75.127" y="316.594"/>
      <point x="69.6562" y="313.154" type="curve" smooth="yes"/>
      <point x="64.1865" y="309.715"/>
      <point x="59.8057" y="304.656"/>
      <point x="56.8496" y="298.91" type="curve" smooth="yes"/>
      <point x="50.9385" y="287.419"/>
      <point x="50.8164" y="273.644"/>
      <point x="53.8379" y="261.078" type="curve" smooth="yes"/>
      <point x="59.8799" y="235.948"/>
      <point x="77.459" y="214.737"/>
      <point x="83.2559" y="189.55" type="curve" smooth="yes"/>
      <point x="88.1279" y="168.378"/>
      <point x="84.2705" y="146.322"/>
      <point x="81.5059" y="124.773" type="curve" smooth="yes"/>
      <point x="80.124" y="113.999"/>
      <point x="79.0176" y="103.145"/>
      <point x="79.4307" y="92.29" type="curve" smooth="yes"/>
      <point x="79.8447" y="81.4346"/>
      <point x="81.8213" y="70.5293"/>
      <point x="86.3711" y="60.666" type="curve" smooth="yes"/>
      <point x="87.1357" y="59.0088"/>
      <point x="87.9766" y="57.375"/>
      <point x="89.0781" y="55.9199" type="curve" smooth="yes"/>
      <point x="90.1797" y="54.4658"/>
      <point x="91.5586" y="53.1895"/>
      <point x="93.2051" y="52.4033" type="curve" smooth="yes"/>
      <point x="95.1328" y="51.4844"/>
      <point x="97.373" y="51.2803"/>
      <point x="99.4619" y="51.7227" type="curve" smooth="yes"/>
      <point x="101.552" y="52.165"/>
      <point x="103.488" y="53.2363"/>
      <point x="105.057" y="54.6855" type="curve" smooth="yes"/>
      <point x="108.194" y="57.583"/>
      <point x="109.78" y="61.8613"/>
      <point x="110.209" y="66.1113" type="curve" smooth="yes"/>
      <point x="111.067" y="74.6113"/>
      <point x="107.737" y="83.0625"/>
      <point x="108.169" y="91.5947" type="curve" smooth="yes"/>
      <point x="108.647" y="101.047"/>
      <point x="113.844" y="109.876"/>
      <point x="121.024" y="116.041" type="curve" smooth="yes"/>
      <point x="128.206" y="122.206"/>
      <point x="137.223" y="125.917"/>
      <point x="146.433" y="128.099" type="curve" smooth="yes"/>
      <point x="150.609" y="129.089"/>
      <point x="154.903" y="129.786"/>
      <point x="159.184" y="129.467" type="curve" smooth="yes"/>
      <point x="163.464" y="129.147"/>
      <point x="167.757" y="127.742"/>
      <point x="170.998" y="124.928" type="curve" smooth="yes"/>
      <point x="173.708" y="122.574"/>
      <point x="175.566" y="119.333"/>
      <point x="176.581" y="115.89" type="curve" smooth="yes"/>
      <point x="177.595" y="112.446"/>
      <point x="177.799" y="108.803"/>
      <point x="177.544" y="105.222" type="curve" smooth="yes"/>
      <point x="177.036" y="98.0605"/>
      <point x="174.741" y="91.1514"/>
      <point x="173.669" y="84.0527" type="curve" smooth="yes"/>
      <point x="172.429" y="75.8477"/>
      <point x="172.833" y="67.498"/>
      <point x="172.937" y="59.2002" type="curve" smooth="yes"/>
      <point x="173.04" y="50.9023"/>
      <point x="172.819" y="42.4746"/>
      <point x="170.393" y="34.5391" type="curve" smooth="yes"/>
      <point x="167.467" y="24.9775"/>
      <point x="161.396" y="16.5322"/>
    </contour>
  </outline>
</glyph>
<glyph name="d" format="1">
  <advance width="234"/>
  <unicode hex="0064"/>
  <outline>
    <contour>
      <point x="149.426" y="500.845" type="curve" smooth="yes"/>
      <point x="157.582" y="500.208"/>
      <point x="165.722" y="498.664"/>
      <point x="173.294" y="495.565" type="curve" smooth="yes"/>
      <point x="183.869" y="491.238"/>
      <point x="193.124" y="483.919"/>
      <point x="200.229" y="474.97" type="curve" smooth="yes"/>
      <point x="207.335" y="466.021"/>
      <point x="212.326" y="455.478"/>
      <point x="215.307" y="444.445" type="curve" smooth="yes"/>
      <point x="221.268" y="422.383"/>
      <point x="219.208" y="398.836"/>
      <point x="213.819" y="376.626" type="curve" smooth="yes"/>
      <point x="208.431" y="354.417"/>
      <point x="199.82" y="333.145"/>
      <point x="192.557" y="311.476" type="curve" smooth="yes"/>
      <point x="185.293" y="289.807"/>
      <point x="179.314" y="267.352"/>
      <point x="179.49" y="244.498" type="curve" smooth="yes"/>
      <point x="179.665" y="221.663"/>
      <point x="185.977" y="199.318"/>
      <point x="193.549" y="177.774" type="curve" smooth="yes"/>
      <point x="201.12" y="156.23"/>
      <point x="210.02" y="135.096"/>
      <point x="215.693" y="112.976" type="curve" smooth="yes"/>
      <point x="221.367" y="90.8555"/>
      <point x="223.71" y="67.3467"/>
      <point x="217.993" y="45.2373" type="curve" smooth="yes"/>
      <point x="215.135" y="34.1836"/>
      <point x="210.255" y="23.5967"/>
      <point x="203.24" y="14.5879" type="curve" smooth="yes"/>
      <point x="196.225" y="5.57812"/>
      <point x="187.039" y="-1.81738"/>
      <point x="176.507" y="-6.22559" type="curve" smooth="yes"/>
      <point x="161.392" y="-12.5508"/>
      <point x="144.45" y="-12.502"/>
      <point x="128.083" y="-11.7334" type="curve" smooth="yes"/>
      <point x="111.887" y="-10.9727"/>
      <point x="95.6035" y="-9.58301"/>
      <point x="79.9854" y="-5.22852" type="curve" smooth="yes"/>
      <point x="64.3672" y="-0.873047"/>
      <point x="49.3379" y="6.61914"/>
      <point x="38.0059" y="18.2158" type="curve" smooth="yes"/>
      <point x="26.4033" y="30.0898"/>
      <point x="19.1826" y="45.7842"/>
      <point x="15.7432" y="62.0254" type="curve" smooth="yes"/>
      <point x="12.3037" y="78.2666"/>
      <point x="12.4727" y="95.0898"/>
      <point x="14.207" y="111.601" type="curve" smooth="yes"/>
      <point x="17.6758" y="144.621"/>
      <point x="27.335" y="177.11"/>
      <point x="26.5312" y="210.304" type="curve" smooth="yes"/>
      <point x="26.0449" y="230.428"/>
      <point x="21.7119" y="250.244"/>
      <point x="19.5732" y="270.261" type="curve" smooth="yes"/>
      <point x="17.4346" y="290.277"/>
      <point x="17.6328" y="311.21"/>
      <point x="25.7285" y="329.641" type="curve" smooth="yes"/>
      <point x="27.542" y="333.77"/>
      <point x="29.7363" y="337.729"/>
      <point x="32.2695" y="341.46" type="curve" smooth="yes"/>
      <point x="46.0391" y="361.737"/>
      <point x="70.2959" y="374.419"/>
      <point x="94.8066" y="374.278" type="curve" smooth="yes"/>
      <point x="98.8652" y="374.255"/>
      <point x="102.921" y="373.903"/>
      <point x="106.979" y="374.026" type="curve" smooth="yes"/>
      <point x="111.035" y="374.148"/>
      <point x="115.152" y="374.769"/>
      <point x="118.788" y="376.573" type="curve" smooth="yes"/>
      <point x="123.633" y="378.977"/>
      <point x="127.327" y="383.397"/>
      <point x="129.362" y="388.407" type="curve" smooth="yes"/>
      <point x="131.398" y="393.418"/>
      <point x="131.854" y="398.979"/>
      <point x="131.235" y="404.352" type="curve" smooth="yes"/>
      <point x="130" y="415.097"/>
      <point x="124.692" y="424.866"/>
      <point x="120.051" y="434.635" type="curve" smooth="yes"/>
      <point x="115.087" y="445.084"/>
      <point x="110.718" y="456.18"/>
      <point x="110.67" y="467.747" type="curve" smooth="yes"/>
      <point x="110.646" y="473.531"/>
      <point x="111.736" y="479.364"/>
      <point x="114.25" y="484.573" type="curve" smooth="yes"/>
      <point x="116.765" y="489.782"/>
      <point x="120.744" y="494.343"/>
      <point x="125.788" y="497.172" type="curve" smooth="yes"/>
      <point x="132.847" y="501.133"/>
      <point x="141.357" y="501.474"/>
    </contour>
    <contour>
      <point x="127.196" y="307.081" type="curve" smooth="yes"/>
      <point x="122.044" y="310.386"/>
      <point x="117.505" y="311.097"/>
      <point x="112.36" y="311.511" type="curve" smooth="yes"/>
      <point x="109.708" y="311.724"/>
      <point x="106.963" y="311.34"/>
      <point x="104.445" y="310.479" type="curve" smooth="yes"/>
      <point x="98.8408" y="308.561"/>
      <point x="93.4326" y="305.634"/>
      <point x="89.1094" y="301.501" type="curve" smooth="yes"/>
      <point x="84.7852" y="297.368"/>
      <point x="81.3936" y="292.302"/>
      <point x="78.9795" y="286.83" type="curve" smooth="yes"/>
      <point x="74.1523" y="275.885"/>
      <point x="73.2754" y="263.528"/>
      <point x="74.5098" y="251.63" type="curve" smooth="yes"/>
      <point x="76.9785" y="227.833"/>
      <point x="87.4932" y="205.358"/>
      <point x="89.2988" y="181.502" type="curve" smooth="yes"/>
      <point x="90.917" y="160.117"/>
      <point x="85.459" y="138.922"/>
      <point x="82.7012" y="117.654" type="curve" smooth="yes"/>
      <point x="81.3223" y="107.021"/>
      <point x="80.6172" y="96.2334"/>
      <point x="81.8115" y="85.5771" type="curve" smooth="yes"/>
      <point x="83.0059" y="74.9209"/>
      <point x="86.1689" y="64.3584"/>
      <point x="92.0527" y="55.3945" type="curve" smooth="yes"/>
      <point x="95.1201" y="50.7197"/>
      <point x="99.041" y="46.4131"/>
      <point x="104.101" y="44.0342" type="curve" smooth="yes"/>
      <point x="107.969" y="42.2158"/>
      <point x="112.349" y="41.6143"/>
      <point x="116.608" y="41.9688" type="curve" smooth="yes"/>
      <point x="123.548" y="42.5479"/>
      <point x="130.184" y="45.6436"/>
      <point x="135.383" y="50.2744" type="curve" smooth="yes"/>
      <point x="140.583" y="54.9062"/>
      <point x="144.374" y="61.0176"/>
      <point x="146.637" y="67.6025" type="curve" smooth="yes"/>
      <point x="151.162" y="80.7734"/>
      <point x="149.589" y="95.3584"/>
      <point x="145.516" y="108.676" type="curve" smooth="yes"/>
      <point x="141.443" y="121.993"/>
      <point x="134.998" y="134.439"/>
      <point x="129.632" y="147.291" type="curve" smooth="yes"/>
      <point x="124.266" y="160.142"/>
      <point x="119.914" y="173.78"/>
      <point x="120.396" y="187.698" type="curve" smooth="yes"/>
      <point x="120.818" y="199.934"/>
      <point x="124.95" y="211.72"/>
      <point x="129.562" y="223.061" type="curve" smooth="yes"/>
      <point x="134.173" y="234.401"/>
      <point x="139.338" y="245.614"/>
      <point x="142.009" y="257.562" type="curve" smooth="yes"/>
      <point x="144.68" y="269.509"/>
      <point x="144.662" y="282.512"/>
      <point x="139.181" y="293.458" type="curve" smooth="yes"/>
      <point x="136.44" y="298.932"/>
      <point x="132.349" y="303.776"/>
    </contour>
  </outline>
</glyph>
<glyph name="e" format="1">
  <advance width="208"/>
  <unicode hex="0065"/>
  <outline>
    <contour>
      <point x="104.774" y="393.649" type="curve" smooth="yes"/>
      <point x="126.183" y="394.178"/>
      <point x="147.492" y="384.821"/>
      <point x="162.148" y="369.208" type="curve" smooth="yes"/>
      <point x="170.071" y="360.769"/>
      <point x="176.065" y="350.721"/>
      <point x="181.54" y="340.521" type="curve" smooth="yes"/>
      <point x="184.373" y="335.245"/>
      <point x="187.102" y="329.864"/>
      <point x="188.77" y="324.112" type="curve" smooth="yes"/>
      <point x="191.908" y="313.296"/>
      <point x="191.144" y="301.751"/>
      <point x="189.685" y="290.582" type="curve" smooth="yes"/>
      <point x="188.227" y="279.414"/>
      <point x="186.097" y="268.237"/>
      <point x="186.589" y="256.985" type="curve" smooth="yes"/>
      <point x="187.13" y="244.652"/>
      <point x="190.809" y="232.646"/>
      <point x="191.742" y="220.336" type="curve" smooth="yes"/>
      <point x="192.21" y="214.182"/>
      <point x="191.977" y="207.916"/>
      <point x="190.343" y="201.964" type="curve" smooth="yes"/>
      <point x="188.71" y="196.012"/>
      <point x="185.608" y="190.369"/>
      <point x="180.967" y="186.301" type="curve" smooth="yes"/>
      <point x="174.751" y="180.854"/>
      <point x="166.228" y="178.613"/>
      <point x="157.963" y="178.576" type="curve" smooth="yes"/>
      <point x="149.697" y="178.54"/>
      <point x="141.567" y="180.519"/>
      <point x="133.576" y="182.629" type="curve" smooth="yes"/>
      <point x="125.489" y="184.765"/>
      <point x="117.328" y="187.065"/>
      <point x="108.964" y="187.145" type="curve" smooth="yes"/>
      <point x="104.781" y="187.184"/>
      <point x="100.571" y="186.656"/>
      <point x="96.6133" y="185.305" type="curve" smooth="yes"/>
      <point x="92.6553" y="183.953"/>
      <point x="88.9531" y="181.758"/>
      <point x="86.0703" y="178.728" type="curve" smooth="yes"/>
      <point x="82.7285" y="175.214"/>
      <point x="80.5791" y="170.677"/>
      <point x="79.4648" y="165.957" type="curve" smooth="yes"/>
      <point x="78.3506" y="161.238"/>
      <point x="78.2314" y="156.33"/>
      <point x="78.584" y="151.494" type="curve" smooth="yes"/>
      <point x="79.2881" y="141.822"/>
      <point x="81.8496" y="132.313"/>
      <point x="81.9395" y="122.616" type="curve" smooth="yes"/>
      <point x="82.0381" y="111.95"/>
      <point x="79.1445" y="101.483"/>
      <point x="78.4014" y="90.8438" type="curve" smooth="yes"/>
      <point x="78.0293" y="85.5234"/>
      <point x="78.2051" y="80.1182"/>
      <point x="79.543" y="74.9561" type="curve" smooth="yes"/>
      <point x="80.8818" y="69.7939"/>
      <point x="83.4375" y="64.8682"/>
      <point x="87.333" y="61.2256" type="curve" smooth="yes"/>
      <point x="91.3076" y="57.5098"/>
      <point x="96.6221" y="55.2529"/>
      <point x="102.057" y="54.9961" type="curve" smooth="yes"/>
      <point x="107.492" y="54.7383"/>
      <point x="113.003" y="56.4873"/>
      <point x="117.282" y="59.8486" type="curve" smooth="yes"/>
      <point x="120.441" y="62.3311"/>
      <point x="122.909" y="65.6387"/>
      <point x="124.625" y="69.2725" type="curve" smooth="yes"/>
      <point x="126.34" y="72.9053"/>
      <point x="127.319" y="76.8604"/>
      <point x="127.758" y="80.8545" type="curve" smooth="yes"/>
      <point x="128.635" y="88.8428"/>
      <point x="127.381" y="96.8936"/>
      <point x="126.117" y="104.83" type="curve" smooth="yes"/>
      <point x="124.986" y="111.939"/>
      <point x="123.842" y="119.106"/>
      <point x="124.168" y="126.298" type="curve" smooth="yes"/>
      <point x="124.495" y="133.488"/>
      <point x="126.406" y="140.799"/>
      <point x="130.822" y="146.483" type="curve" smooth="yes"/>
      <point x="133.778" y="150.289"/>
      <point x="137.784" y="153.247"/>
      <point x="142.239" y="155.083" type="curve" smooth="yes"/>
      <point x="146.694" y="156.92"/>
      <point x="151.586" y="157.644"/>
      <point x="156.394" y="157.318" type="curve" smooth="yes"/>
      <point x="166.009" y="156.667"/>
      <point x="175.078" y="151.812"/>
      <point x="181.771" y="144.877" type="curve" smooth="yes"/>
      <point x="187.682" y="138.751"/>
      <point x="191.862" y="131.048"/>
      <point x="194.232" y="122.871" type="curve" smooth="yes"/>
      <point x="196.602" y="114.694"/>
      <point x="197.195" y="106.054"/>
      <point x="196.438" y="97.5742" type="curve" smooth="yes"/>
      <point x="194.927" y="80.6152"/>
      <point x="188.143" y="64.5625"/>
      <point x="180.163" y="49.5215" type="curve" smooth="yes"/>
      <point x="170.01" y="30.3789"/>
      <point x="157.078" y="11.6768"/>
      <point x="138.166" y="1.09863" type="curve" smooth="yes"/>
      <point x="118.87" y="-9.69531"/>
      <point x="94.5908" y="-10.623"/>
      <point x="74.1367" y="-2.22949" type="curve" smooth="yes"/>
      <point x="54.8486" y="5.68652"/>
      <point x="39.2861" y="21.2656"/>
      <point x="29.041" y="39.4238" type="curve" smooth="yes"/>
      <point x="26.542" y="43.8535"/>
      <point x="24.3311" y="48.4482"/>
      <point x="22.501" y="53.1934" type="curve" smooth="yes"/>
      <point x="14.2129" y="74.6807"/>
      <point x="14.0146" y="98.4336"/>
      <point x="16.1348" y="121.365" type="curve" smooth="yes"/>
      <point x="18.2559" y="144.298"/>
      <point x="22.583" y="167.061"/>
      <point x="22.96" y="190.088" type="curve" smooth="yes"/>
      <point x="23.3359" y="213.051"/>
      <point x="19.7783" y="235.873"/>
      <point x="17.9678" y="258.769" type="curve" smooth="yes"/>
      <point x="16.1572" y="281.664"/>
      <point x="16.168" y="305.189"/>
      <point x="23.4189" y="326.981" type="curve" smooth="yes"/>
      <point x="25.2715" y="332.549"/>
      <point x="27.585" y="337.961"/>
      <point x="30.3037" y="343.161" type="curve" smooth="yes"/>
      <point x="37.5928" y="357.1"/>
      <point x="47.9062" y="369.559"/>
      <point x="60.7617" y="378.622" type="curve" smooth="yes"/>
      <point x="73.6162" y="387.687"/>
      <point x="89.0498" y="393.262"/>
    </contour>
    <contour>
      <point x="120.15" y="322.851" type="curve" smooth="yes"/>
      <point x="116.285" y="326.145"/>
      <point x="110.385" y="327.417"/>
      <point x="105.176" y="327.326" type="curve" smooth="yes"/>
      <point x="100.394" y="327.242"/>
      <point x="95.4717" y="326.071"/>
      <point x="91.5781" y="322.736" type="curve" smooth="yes"/>
      <point x="89.3057" y="320.789"/>
      <point x="87.6221" y="318.211"/>
      <point x="86.498" y="315.438" type="curve" smooth="yes"/>
      <point x="85.374" y="312.664"/>
      <point x="84.792" y="309.694"/>
      <point x="84.5098" y="306.715" type="curve" smooth="yes"/>
      <point x="83.9463" y="300.756"/>
      <point x="84.5605" y="294.739"/>
      <point x="84.1201" y="288.771" type="curve" smooth="yes"/>
      <point x="83.6455" y="282.344"/>
      <point x="81.9541" y="276.052"/>
      <point x="81.5029" y="269.623" type="curve" smooth="yes"/>
      <point x="81.2773" y="266.408"/>
      <point x="81.3672" y="263.151"/>
      <point x="82.0693" y="260.006" type="curve" smooth="yes"/>
      <point x="82.7715" y="256.861"/>
      <point x="84.1064" y="253.824"/>
      <point x="86.1855" y="251.363" type="curve" smooth="yes"/>
      <point x="88.5205" y="248.598"/>
      <point x="91.7148" y="246.649"/>
      <point x="95.1064" y="245.388" type="curve" smooth="yes"/>
      <point x="98.498" y="244.125"/>
      <point x="102.097" y="243.514"/>
      <point x="105.692" y="243.102" type="curve" smooth="yes"/>
      <point x="108.919" y="242.73"/>
      <point x="112.191" y="242.515"/>
      <point x="115.408" y="242.962" type="curve" smooth="yes"/>
      <point x="118.625" y="243.408"/>
      <point x="121.806" y="244.556"/>
      <point x="124.281" y="246.658" type="curve" smooth="yes"/>
      <point x="126.788" y="248.785"/>
      <point x="128.45" y="251.798"/>
      <point x="129.293" y="254.976" type="curve" smooth="yes"/>
      <point x="130.135" y="258.152"/>
      <point x="130.196" y="261.496"/>
      <point x="129.863" y="264.767" type="curve" smooth="yes"/>
      <point x="129.197" y="271.308"/>
      <point x="126.99" y="277.627"/>
      <point x="126.462" y="284.181" type="curve" smooth="yes"/>
      <point x="125.917" y="290.922"/>
      <point x="127.165" y="297.683"/>
      <point x="127.087" y="304.445" type="curve" smooth="yes"/>
      <point x="127.049" y="307.827"/>
      <point x="126.671" y="311.231"/>
      <point x="125.598" y="314.438" type="curve" smooth="yes"/>
      <point x="124.524" y="317.646"/>
      <point x="122.725" y="320.657"/>
    </contour>
  </outline>
</glyph>
<glyph name="f" format="1">
  <advance width="159"/>
  <unicode hex="0066"/>
  <outline>
    <contour>
      <point x="100.388" y="3.71191" type="curve" smooth="yes"/>
      <point x="99.252" y="2.96289"/>
      <point x="97.9111" y="1.91504"/>
      <point x="97.0723" y="0.671875" type="curve" smooth="yes"/>
      <point x="96.1846" y="-0.642578"/>
      <point x="95.8115" y="-2.10156"/>
      <point x="95.4004" y="-3.78418" type="curve" smooth="yes"/>
      <point x="94.9893" y="-5.4668"/>
      <point x="94.6982" y="-7.18457"/>
      <point x="94.1172" y="-8.81641" type="curve" smooth="yes"/>
      <point x="92.4619" y="-13.4678"/>
      <point x="88.4521" y="-17.1074"/>
      <point x="83.7988" y="-18.7549" type="curve" smooth="yes"/>
      <point x="79.1465" y="-20.4033"/>
      <point x="73.9336" y="-20.1553"/>
      <point x="69.2734" y="-18.5303" type="curve" smooth="yes"/>
      <point x="64.6123" y="-16.9043"/>
      <point x="60.4805" y="-13.9629"/>
      <point x="57.0381" y="-10.4258" type="curve" smooth="yes"/>
      <point x="53.5947" y="-6.8877"/>
      <point x="50.8086" y="-2.76172"/>
      <point x="48.3506" y="1.51953" type="curve" smooth="yes"/>
      <point x="34.2305" y="26.1143"/>
      <point x="30.8975" y="55.541"/>
      <point x="32.127" y="83.874" type="curve" smooth="yes"/>
      <point x="33.3154" y="111.276"/>
      <point x="38.46" y="138.327"/>
      <point x="42.4648" y="165.461" type="curve" smooth="yes"/>
      <point x="48.0635" y="203.389"/>
      <point x="51.4502" y="241.614"/>
      <point x="53.9463" y="279.872" type="curve" smooth="yes"/>
      <point x="54.4854" y="288.143"/>
      <point x="54.9746" y="296.541"/>
      <point x="53.2109" y="304.64" type="curve" smooth="yes"/>
      <point x="52.3301" y="308.688"/>
      <point x="50.8789" y="312.637"/>
      <point x="48.6904" y="316.155" type="curve" smooth="yes"/>
      <point x="46.502" y="319.675"/>
      <point x="43.5586" y="322.758"/>
      <point x="40" y="324.881" type="curve" smooth="yes"/>
      <point x="36.3301" y="327.069"/>
      <point x="32.1357" y="328.182"/>
      <point x="27.9951" y="329.235" type="curve" smooth="yes"/>
      <point x="24.248" y="330.188"/>
      <point x="20.4639" y="331.125"/>
      <point x="16.9795" y="332.799" type="curve" smooth="yes"/>
      <point x="12.2246" y="335.081"/>
      <point x="8.13574" y="338.729"/>
      <point x="5.32715" y="343.192" type="curve" smooth="yes"/>
      <point x="2.51855" y="347.656"/>
      <point x="1" y="352.922"/>
      <point x="1" y="358.196" type="curve" smooth="yes"/>
      <point x="1" y="363.47"/>
      <point x="2.51855" y="368.735"/>
      <point x="5.32715" y="373.199" type="curve" smooth="yes"/>
      <point x="8.13574" y="377.663"/>
      <point x="12.2246" y="381.311"/>
      <point x="16.9795" y="383.593" type="curve" smooth="yes"/>
      <point x="42.6826" y="391.905" type="line"/>
      <point x="43.3496" y="406.56"/>
      <point x="43.4541" y="421.24"/>
      <point x="42.9951" y="435.902" type="curve" smooth="yes"/>
      <point x="42.6973" y="445.426"/>
      <point x="42.1621" y="454.979"/>
      <point x="43.0635" y="464.463" type="curve" smooth="yes"/>
      <point x="43.9658" y="473.948"/>
      <point x="46.3828" y="483.464"/>
      <point x="51.5469" y="491.471" type="curve" smooth="yes"/>
      <point x="56.6885" y="499.445"/>
      <point x="64.3926" y="505.605"/>
      <point x="72.9883" y="509.625" type="curve" smooth="yes"/>
      <point x="81.583" y="513.645"/>
      <point x="91.0488" y="515.597"/>
      <point x="100.521" y="516.148" type="curve" smooth="yes"/>
      <point x="112.732" y="516.859"/>
      <point x="125.103" y="515.266"/>
      <point x="136.639" y="511.199" type="curve" smooth="yes"/>
      <point x="143.896" y="508.642"/>
      <point x="150.85" y="505.089"/>
      <point x="156.834" y="500.253" type="curve" smooth="yes"/>
      <point x="162.818" y="495.417"/>
      <point x="167.814" y="489.261"/>
      <point x="170.81" y="482.174" type="curve" smooth="yes"/>
      <point x="174.655" y="473.07"/>
      <point x="175.065" y="462.8"/>
      <point x="173.559" y="453.032" type="curve" smooth="yes"/>
      <point x="172.385" y="445.422"/>
      <point x="169.987" y="437.805"/>
      <point x="165.184" y="431.786" type="curve" smooth="yes"/>
      <point x="162.782" y="428.776"/>
      <point x="159.794" y="426.21"/>
      <point x="156.356" y="424.475" type="curve" smooth="yes"/>
      <point x="152.92" y="422.74"/>
      <point x="149.026" y="421.857"/>
      <point x="145.188" y="422.148" type="curve" smooth="yes"/>
      <point x="139.898" y="422.549"/>
      <point x="134.871" y="425.205"/>
      <point x="131.33" y="429.154" type="curve" smooth="yes"/>
      <point x="127.79" y="433.104"/>
      <point x="125.717" y="438.279"/>
      <point x="125.245" y="443.562" type="curve" smooth="yes"/>
      <point x="125.006" y="446.241"/>
      <point x="125.161" y="448.947"/>
      <point x="124.834" y="451.617" type="curve" smooth="yes"/>
      <point x="124.67" y="452.952"/>
      <point x="124.384" y="454.278"/>
      <point x="123.881" y="455.524" type="curve" smooth="yes"/>
      <point x="123.377" y="456.771"/>
      <point x="122.65" y="457.939"/>
      <point x="121.678" y="458.867" type="curve" smooth="yes"/>
      <point x="120.38" y="460.105"/>
      <point x="118.664" y="460.881"/>
      <point x="116.885" y="461.108" type="curve" smooth="yes"/>
      <point x="115.105" y="461.336"/>
      <point x="113.271" y="461.023"/>
      <point x="111.636" y="460.286" type="curve" smooth="yes"/>
      <point x="108.621" y="458.925"/>
      <point x="106.376" y="456.173"/>
      <point x="105.15" y="453.101" type="curve" smooth="yes"/>
      <point x="103.924" y="450.028"/>
      <point x="103.64" y="446.652"/>
      <point x="103.785" y="443.349" type="curve" smooth="yes"/>
      <point x="104.075" y="436.74"/>
      <point x="106.026" y="430.152"/>
      <point x="105.105" y="423.603" type="curve" smooth="yes"/>
      <point x="104.282" y="417.742"/>
      <point x="101.222" y="412.426"/>
      <point x="99.9326" y="406.649" type="curve" smooth="yes"/>
      <point x="99.2881" y="403.762"/>
      <point x="99.0996" y="400.717"/>
      <point x="99.874" y="397.86" type="curve" smooth="yes"/>
      <point x="100.261" y="396.433"/>
      <point x="100.889" y="395.064"/>
      <point x="101.77" y="393.876" type="curve" smooth="yes"/>
      <point x="102.65" y="392.688"/>
      <point x="103.788" y="391.682"/>
      <point x="105.105" y="391.009" type="curve" smooth="yes"/>
      <point x="106.72" y="390.185"/>
      <point x="108.547" y="389.878"/>
      <point x="110.352" y="389.708" type="curve" smooth="yes"/>
      <point x="112.156" y="389.537"/>
      <point x="113.979" y="389.49"/>
      <point x="115.757" y="389.137" type="curve" smooth="yes"/>
      <point x="120.896" y="388.116"/>
      <point x="125.214" y="384.63"/>
      <point x="128.699" y="380.718" type="curve" smooth="yes"/>
      <point x="134.404" y="374.314"/>
      <point x="138.536" y="366.181"/>
      <point x="138.745" y="357.605" type="curve" smooth="yes"/>
      <point x="138.85" y="353.318"/>
      <point x="137.958" y="348.985"/>
      <point x="135.981" y="345.179" type="curve" smooth="yes"/>
      <point x="134.005" y="341.373"/>
      <point x="130.925" y="338.115"/>
      <point x="127.136" y="336.106" type="curve" smooth="yes"/>
      <point x="123.432" y="334.143"/>
      <point x="119.219" y="333.418"/>
      <point x="115.095" y="332.666" type="curve" smooth="yes"/>
      <point x="110.974" y="331.915"/>
      <point x="106.805" y="331.091"/>
      <point x="103.054" y="329.227" type="curve" smooth="yes"/>
      <point x="98.1943" y="326.811"/>
      <point x="94.2686" y="322.72"/>
      <point x="91.6172" y="317.985" type="curve" smooth="yes"/>
      <point x="88.9658" y="313.251"/>
      <point x="87.541" y="307.895"/>
      <point x="86.9883" y="302.497" type="curve" smooth="yes"/>
      <point x="85.8828" y="291.701"/>
      <point x="88.168" y="280.891"/>
      <point x="89.7178" y="270.149" type="curve" smooth="yes"/>
      <point x="93.5967" y="243.264"/>
      <point x="92.918" y="215.714"/>
      <point x="99.1299" y="189.271" type="curve" smooth="yes"/>
      <point x="106.763" y="156.777"/>
      <point x="124.487" y="127.321"/>
      <point x="131.951" y="94.7891" type="curve" smooth="yes"/>
      <point x="135.683" y="78.5234"/>
      <point x="136.751" y="61.3594"/>
      <point x="132.542" y="45.21" type="curve" smooth="yes"/>
      <point x="128.332" y="29.0615"/>
      <point x="118.427" y="14.0049"/>
      <point x="103.916" y="5.76074" type="curve" smooth="yes"/>
      <point x="102.733" y="5.08887"/>
      <point x="101.522" y="4.46191"/>
    </contour>
  </outline>
</glyph>
<glyph name="g" format="1">
  <advance width="220"/>
  <unicode hex="0067"/>
  <outline>
    <contour>
      <point x="133.306" y="363.354" type="curve" smooth="yes"/>
      <point x="139.296" y="363.509"/>
      <point x="145.276" y="364.056"/>
      <point x="151.269" y="363.985" type="curve" smooth="yes"/>
      <point x="157.26" y="363.915"/>
      <point x="163.327" y="363.203"/>
      <point x="168.877" y="360.943" type="curve" smooth="yes"/>
      <point x="171.496" y="359.877"/>
      <point x="173.971" y="358.478"/>
      <point x="176.336" y="356.928" type="curve" smooth="yes"/>
      <point x="192.897" y="346.07"/>
      <point x="203.799" y="327.854"/>
      <point x="208.389" y="308.589" type="curve" smooth="yes"/>
      <point x="212.978" y="289.324"/>
      <point x="211.701" y="269.05"/>
      <point x="207.658" y="249.664" type="curve" smooth="yes"/>
      <point x="199.57" y="210.891"/>
      <point x="180.678" y="174.721"/>
      <point x="175.418" y="135.465" type="curve" smooth="yes"/>
      <point x="170.464" y="98.4971"/>
      <point x="177.885" y="61.167"/>
      <point x="182.718" y="24.1846" type="curve" smooth="yes"/>
      <point x="187.552" y="-12.7988"/>
      <point x="189.535" y="-51.8154"/>
      <point x="174.614" y="-85.998" type="curve" smooth="yes"/>
      <point x="172.375" y="-91.1279"/>
      <point x="169.774" y="-96.0967"/>
      <point x="166.927" y="-100.916" type="curve" smooth="yes"/>
      <point x="161.451" y="-110.181"/>
      <point x="155.016" y="-118.952"/>
      <point x="147.136" y="-126.281" type="curve" smooth="yes"/>
      <point x="139.256" y="-133.611"/>
      <point x="129.877" y="-139.474"/>
      <point x="119.536" y="-142.454" type="curve" smooth="yes"/>
      <point x="104.632" y="-146.749"/>
      <point x="88.6416" y="-144.882"/>
      <point x="73.5215" y="-141.421" type="curve" smooth="yes"/>
      <point x="56.4648" y="-137.518"/>
      <point x="39.1777" y="-131.195"/>
      <point x="27.1924" y="-118.447" type="curve" smooth="yes"/>
      <point x="21.1992" y="-112.072"/>
      <point x="16.7188" y="-104.152"/>
      <point x="15.0723" y="-95.5596" type="curve" smooth="yes"/>
      <point x="13.4258" y="-86.9678"/>
      <point x="14.7461" y="-77.7109"/>
      <point x="19.3613" y="-70.2773" type="curve" smooth="yes"/>
      <point x="22.5254" y="-65.1816"/>
      <point x="27.1162" y="-61.0674"/>
      <point x="32.2344" y="-57.9385" type="curve" smooth="yes"/>
      <point x="37.3516" y="-54.8096"/>
      <point x="42.9961" y="-52.626"/>
      <point x="48.7363" y="-50.8857" type="curve" smooth="yes"/>
      <point x="52.7158" y="-49.6797"/>
      <point x="56.8174" y="-48.6699"/>
      <point x="60.9736" y="-48.7666" type="curve" smooth="yes"/>
      <point x="65.1309" y="-48.8633"/>
      <point x="69.3896" y="-50.1709"/>
      <point x="72.374" y="-53.0654" type="curve" smooth="yes"/>
      <point x="74.1504" y="-54.7881"/>
      <point x="75.4023" y="-56.9941"/>
      <point x="76.2754" y="-59.3096" type="curve" smooth="yes"/>
      <point x="77.1475" y="-61.625"/>
      <point x="77.6582" y="-64.0586"/>
      <point x="78.1113" y="-66.4912" type="curve" smooth="yes"/>
      <point x="78.6475" y="-69.3633"/>
      <point x="79.1113" y="-72.2627"/>
      <point x="80.0332" y="-75.0352" type="curve" smooth="yes"/>
      <point x="80.9551" y="-77.8076"/>
      <point x="82.3721" y="-80.4805"/>
      <point x="84.5371" y="-82.4414" type="curve" smooth="yes"/>
      <point x="86.2422" y="-83.9844"/>
      <point x="88.3701" y="-85.0391"/>
      <point x="90.6143" y="-85.5371" type="curve" smooth="yes"/>
      <point x="92.8584" y="-86.0361"/>
      <point x="95.2139" y="-85.9844"/>
      <point x="97.4541" y="-85.4668" type="curve" smooth="yes"/>
      <point x="101.934" y="-84.4297"/>
      <point x="105.855" y="-81.5508"/>
      <point x="108.693" y="-77.9336" type="curve" smooth="yes"/>
      <point x="111.53" y="-74.3154"/>
      <point x="113.353" y="-69.9902"/>
      <point x="114.587" y="-65.5615" type="curve" smooth="yes"/>
      <point x="115.821" y="-61.1318"/>
      <point x="116.493" y="-56.5703"/>
      <point x="117.241" y="-52.0332" type="curve" smooth="yes"/>
      <point x="117.967" y="-47.6279"/>
      <point x="118.768" y="-43.1943"/>
      <point x="118.593" y="-38.7334" type="curve" smooth="yes"/>
      <point x="118.418" y="-34.2725"/>
      <point x="117.176" y="-29.708"/>
      <point x="114.257" y="-26.3301" type="curve" smooth="yes"/>
      <point x="112.372" y="-24.1475"/>
      <point x="109.863" y="-22.5518"/>
      <point x="107.168" y="-21.5273" type="curve" smooth="yes"/>
      <point x="104.473" y="-20.5039"/>
      <point x="101.591" y="-20.0322"/>
      <point x="98.7109" y="-19.8857" type="curve" smooth="yes"/>
      <point x="92.9512" y="-19.5918"/>
      <point x="87.2051" y="-20.5693"/>
      <point x="81.4395" y="-20.707" type="curve" smooth="yes"/>
      <point x="70.8955" y="-20.958"/>
      <point x="60.3145" y="-18.3398"/>
      <point x="51.0352" y="-13.3271" type="curve" smooth="yes"/>
      <point x="41.7549" y="-8.31445"/>
      <point x="33.7891" y="-0.929688"/>
      <point x="27.9668" y="7.86523" type="curve" smooth="yes"/>
      <point x="25.29" y="11.9092"/>
      <point x="23.0615" y="16.2402"/>
      <point x="21.1973" y="20.7168" type="curve" smooth="yes"/>
      <point x="12.9834" y="40.4385"/>
      <point x="12.0166" y="62.459"/>
      <point x="13.6875" y="83.7578" type="curve" smooth="yes"/>
      <point x="15.3584" y="105.057"/>
      <point x="19.5381" y="126.099"/>
      <point x="21.1973" y="147.398" type="curve" smooth="yes"/>
      <point x="25.0645" y="197.058"/>
      <point x="15.1953" y="247.516"/>
      <point x="23.8359" y="296.57" type="curve" smooth="yes"/>
      <point x="26.2266" y="310.14"/>
      <point x="30.1055" y="323.651"/>
      <point x="37.377" y="335.354" type="curve" smooth="yes"/>
      <point x="42.6562" y="343.853"/>
      <point x="49.7686" y="351.338"/>
      <point x="58.4902" y="356.239" type="curve" smooth="yes"/>
      <point x="69.5508" y="362.454"/>
      <point x="82.5762" y="364.229"/>
      <point x="95.2637" y="364.341" type="curve" smooth="yes"/>
      <point x="107.95" y="364.453"/>
      <point x="120.622" y="363.024"/>
    </contour>
    <contour>
      <point x="104.963" y="302.651" type="curve" smooth="yes"/>
      <point x="102.378" y="303.116"/>
      <point x="99.2393" y="303.439"/>
      <point x="96.4082" y="303.072" type="curve" smooth="yes"/>
      <point x="94.2637" y="302.794"/>
      <point x="92.3955" y="302.462"/>
      <point x="90.2246" y="301.111" type="curve" smooth="yes"/>
      <point x="88.0547" y="299.76"/>
      <point x="85.9131" y="298.003"/>
      <point x="84.1934" y="296.111" type="curve" smooth="yes"/>
      <point x="76.8311" y="288.01"/>
      <point x="72.6035" y="277.393"/>
      <point x="70.9541" y="266.57" type="curve" smooth="yes"/>
      <point x="69.3047" y="255.748"/>
      <point x="70.1035" y="244.683"/>
      <point x="71.8428" y="233.875" type="curve" smooth="yes"/>
      <point x="75.3203" y="212.258"/>
      <point x="82.5586" y="190.957"/>
      <point x="81.5537" y="169.086" type="curve" smooth="yes"/>
      <point x="80.5762" y="147.776"/>
      <point x="71.8408" y="127.657"/>
      <point x="67.6914" y="106.733" type="curve" smooth="yes"/>
      <point x="65.6172" y="96.2705"/>
      <point x="64.6963" y="85.4502"/>
      <point x="66.5" y="74.9375" type="curve" smooth="yes"/>
      <point x="68.3027" y="64.4248"/>
      <point x="73.001" y="54.1982"/>
      <point x="80.8652" y="46.9941" type="curve" smooth="yes"/>
      <point x="82.8906" y="45.1396"/>
      <point x="85.1123" y="43.4932"/>
      <point x="87.5215" y="42.1748" type="curve" smooth="yes"/>
      <point x="94.6943" y="38.248"/>
      <point x="103.508" y="37.4307"/>
      <point x="111.274" y="39.9941" type="curve" smooth="yes"/>
      <point x="117.027" y="41.8936"/>
      <point x="122.138" y="45.5605"/>
      <point x="126.038" y="50.1973" type="curve" smooth="yes"/>
      <point x="129.938" y="54.834"/>
      <point x="132.651" y="60.4141"/>
      <point x="134.215" y="66.2676" type="curve" smooth="yes"/>
      <point x="137.343" y="77.9746"/>
      <point x="135.896" y="90.4814"/>
      <point x="132.631" y="102.151" type="curve" smooth="yes"/>
      <point x="129.367" y="113.821"/>
      <point x="124.348" y="124.912"/>
      <point x="120.198" y="136.297" type="curve" smooth="yes"/>
      <point x="116.049" y="147.683"/>
      <point x="112.735" y="159.612"/>
      <point x="113.11" y="171.725" type="curve" smooth="yes"/>
      <point x="113.481" y="183.748"/>
      <point x="117.468" y="195.366"/>
      <point x="122.167" y="206.439" type="curve" smooth="yes"/>
      <point x="126.865" y="217.514"/>
      <point x="132.333" y="228.3"/>
      <point x="135.931" y="239.779" type="curve" smooth="yes"/>
      <point x="139.527" y="251.258"/>
      <point x="141.184" y="263.699"/>
      <point x="138.068" y="275.318" type="curve" smooth="yes"/>
      <point x="136.511" y="281.128"/>
      <point x="133.756" y="286.652"/>
      <point x="129.788" y="291.173" type="curve" smooth="yes"/>
      <point x="125.82" y="295.693"/>
      <point x="120.619" y="299.182"/>
      <point x="114.831" y="300.815" type="curve" smooth="yes"/>
      <point x="111.609" y="301.726"/>
      <point x="108.258" y="302.06"/>
    </contour>
  </outline>
</glyph>
<glyph name="h" format="1">
  <advance width="272"/>
  <unicode hex="0068"/>
  <outline>
    <contour>
      <point x="133.117" y="-2.7832" type="curve" smooth="yes"/>
      <point x="131.222" y="-4.20703"/>
      <point x="128.283" y="-4.71387"/>
      <point x="125.805" y="-5.49805" type="curve" smooth="yes"/>
      <point x="118.342" y="-7.86133"/>
      <point x="111.326" y="-12.0928"/>
      <point x="103.098" y="-11.4844" type="curve" smooth="yes"/>
      <point x="95.5156" y="-10.9238"/>
      <point x="88.291" y="-7.99023"/>
      <point x="81.6172" y="-4.34766" type="curve" smooth="yes"/>
      <point x="60.2129" y="7.33203"/>
      <point x="43.4277" y="26.5273"/>
      <point x="32.4219" y="48.2861" type="curve" smooth="yes"/>
      <point x="21.417" y="70.0449"/>
      <point x="15.9424" y="94.292"/>
      <point x="13.9541" y="118.594" type="curve" smooth="yes"/>
      <point x="9.97949" y="167.199"/>
      <point x="19.5713" y="215.799"/>
      <point x="21.6602" y="264.521" type="curve" smooth="yes"/>
      <point x="23.498" y="307.381"/>
      <point x="19.5527" y="350.739"/>
      <point x="27.3154" y="392.93" type="curve" smooth="yes"/>
      <point x="31.1963" y="414.025"/>
      <point x="38.0742" y="434.76"/>
      <point x="49.4521" y="452.943" type="curve" smooth="yes"/>
      <point x="60.8291" y="471.127"/>
      <point x="76.8945" y="486.686"/>
      <point x="96.3965" y="495.616" type="curve" smooth="yes"/>
      <point x="104.965" y="499.541"/>
      <point x="114.2" y="502.177"/>
      <point x="123.616" y="502.584" type="curve" smooth="yes"/>
      <point x="128.198" y="502.782"/>
      <point x="132.824" y="502.448"/>
      <point x="137.261" y="501.286" type="curve" smooth="yes"/>
      <point x="141.696" y="500.123"/>
      <point x="145.942" y="498.112"/>
      <point x="149.46" y="495.171" type="curve" smooth="yes"/>
      <point x="153.64" y="491.676"/>
      <point x="156.7" y="486.933"/>
      <point x="158.502" y="481.791" type="curve" smooth="yes"/>
      <point x="160.304" y="476.649"/>
      <point x="160.878" y="471.121"/>
      <point x="160.533" y="465.684" type="curve" smooth="yes"/>
      <point x="159.845" y="454.81"/>
      <point x="155.586" y="444.493"/>
      <point x="150.821" y="434.693" type="curve" smooth="yes"/>
      <point x="146.297" y="425.388"/>
      <point x="141.177" y="416.052"/>
      <point x="140.015" y="405.77" type="curve" smooth="yes"/>
      <point x="139.434" y="400.628"/>
      <point x="139.896" y="395.305"/>
      <point x="141.884" y="390.527" type="curve" smooth="yes"/>
      <point x="143.871" y="385.751"/>
      <point x="147.46" y="381.559"/>
      <point x="152.13" y="379.331" type="curve" smooth="yes"/>
      <point x="155.463" y="377.741"/>
      <point x="159.202" y="377.189"/>
      <point x="162.892" y="377.062" type="curve" smooth="yes"/>
      <point x="166.582" y="376.936"/>
      <point x="170.274" y="377.214"/>
      <point x="173.967" y="377.188" type="curve" smooth="yes"/>
      <point x="185.234" y="377.111"/>
      <point x="196.472" y="374.16"/>
      <point x="206.324" y="368.692" type="curve" smooth="yes"/>
      <point x="216.178" y="363.225"/>
      <point x="224.628" y="355.252"/>
      <point x="230.661" y="345.735" type="curve" smooth="yes"/>
      <point x="233.435" y="341.359"/>
      <point x="235.7" y="336.673"/>
      <point x="237.564" y="331.84" type="curve" smooth="yes"/>
      <point x="247.634" y="305.729"/>
      <point x="245.654" y="276.648"/>
      <point x="241.945" y="248.91" type="curve" smooth="yes"/>
      <point x="238.237" y="221.172"/>
      <point x="232.942" y="193.114"/>
      <point x="236.863" y="165.405" type="curve" smooth="yes"/>
      <point x="241.256" y="134.36"/>
      <point x="256.94" y="105.929"/>
      <point x="262.78" y="75.123" type="curve" smooth="yes"/>
      <point x="265.7" y="59.7207"/>
      <point x="266.064" y="43.5352"/>
      <point x="261.292" y="28.6016" type="curve" smooth="yes"/>
      <point x="258.906" y="21.1357"/>
      <point x="255.24" y="14.0479"/>
      <point x="250.265" y="7.99121" type="curve" smooth="yes"/>
      <point x="245.289" y="1.93457"/>
      <point x="238.987" y="-3.07422"/>
      <point x="231.823" y="-6.25684" type="curve" smooth="yes"/>
      <point x="222.672" y="-10.3223"/>
      <point x="212.461" y="-11.3115"/>
      <point x="202.448" y="-11.4844" type="curve" smooth="yes"/>
      <point x="193.082" y="-11.6475"/>
      <point x="183.466" y="-11.0898"/>
      <point x="174.868" y="-7.37109" type="curve" smooth="yes"/>
      <point x="163.939" y="-2.64355"/>
      <point x="155.537" y="6.98438"/>
      <point x="150.929" y="17.9639" type="curve" smooth="yes"/>
      <point x="146.319" y="28.9443"/>
      <point x="145.275" y="41.1826"/>
      <point x="146.415" y="53.0352" type="curve" smooth="yes"/>
      <point x="148.694" y="76.7412"/>
      <point x="159.291" y="98.7432"/>
      <point x="165.563" y="121.718" type="curve" smooth="yes"/>
      <point x="179.723" y="173.579"/>
      <point x="171.53" y="228.603"/>
      <point x="174.699" y="282.269" type="curve" smooth="yes"/>
      <point x="174.89" y="285.519"/>
      <point x="175.125" y="288.778"/>
      <point x="174.905" y="292.026" type="curve" smooth="yes"/>
      <point x="174.686" y="295.274"/>
      <point x="173.992" y="298.538"/>
      <point x="172.434" y="301.396" type="curve" smooth="yes"/>
      <point x="170.385" y="305.152"/>
      <point x="166.916" y="308.023"/>
      <point x="163.02" y="309.79" type="curve" smooth="yes"/>
      <point x="159.123" y="311.557"/>
      <point x="154.813" y="312.275"/>
      <point x="150.536" y="312.375" type="curve" smooth="yes"/>
      <point x="142.666" y="312.559"/>
      <point x="134.775" y="310.675"/>
      <point x="127.763" y="307.098" type="curve" smooth="yes"/>
      <point x="120.75" y="303.521"/>
      <point x="114.619" y="298.268"/>
      <point x="109.877" y="291.984" type="curve" smooth="yes"/>
      <point x="100.394" y="279.416"/>
      <point x="96.7246" y="262.896"/>
      <point x="98.793" y="247.287" type="curve" smooth="yes"/>
      <point x="101.582" y="226.232"/>
      <point x="113.881" y="207.874"/>
      <point x="124.802" y="189.658" type="curve" smooth="yes"/>
      <point x="130.263" y="180.55"/>
      <point x="135.477" y="171.229"/>
      <point x="139.109" y="161.249" type="curve" smooth="yes"/>
      <point x="142.741" y="151.271"/>
      <point x="144.755" y="140.553"/>
      <point x="143.639" y="129.992" type="curve" smooth="yes"/>
      <point x="142.008" y="114.568"/>
      <point x="133.952" y="100.709"/>
      <point x="127.812" y="86.4678" type="curve" smooth="yes"/>
      <point x="124.741" y="79.3467"/>
      <point x="122.105" y="71.9697"/>
      <point x="121.007" y="64.293" type="curve" smooth="yes"/>
      <point x="119.907" y="56.6162"/>
      <point x="120.41" y="48.585"/>
      <point x="123.43" y="41.4414" type="curve" smooth="yes"/>
      <point x="127.121" y="32.707"/>
      <point x="134.347" y="25.7109"/>
      <point x="137.36" y="16.7197" type="curve" smooth="yes"/>
      <point x="138.866" y="12.2246"/>
      <point x="139.214" y="7.17676"/>
      <point x="137.383" y="2.80273" type="curve" smooth="yes"/>
      <point x="136.468" y="0.616211"/>
      <point x="135.013" y="-1.36035"/>
    </contour>
  </outline>
</glyph>
<glyph name="i" format="1">
  <advance width="162"/>
  <unicode hex="0069"/>
  <outline>
    <contour>
      <point x="107.592" y="228.786" type="curve" smooth="yes"/>
      <point x="80.9893" y="168.712"/>
      <point x="71.5449" y="91.3584"/>
      <point x="104.824" y="36.6182" type="curve" smooth="yes"/>
      <point x="107.915" y="31.5342"/>
      <point x="114.453" y="35.4014"/>
      <point x="120.788" y="28.6309" type="curve" smooth="yes"/>
      <point x="125.004" y="24.124"/>
      <point x="126.132" y="16.8809"/>
      <point x="125.089" y="10.6201" type="curve" smooth="yes"/>
      <point x="124.045" y="4.35938"/>
      <point x="120.543" y="-1.40625"/>
      <point x="115.655" y="-5.45605" type="curve" smooth="yes"/>
      <point x="110.769" y="-9.50586"/>
      <point x="104.559" y="-11.8604"/>
      <point x="98.2324" y="-12.376" type="curve" smooth="yes"/>
      <point x="91.9062" y="-12.8916"/>
      <point x="85.4814" y="-11.6074"/>
      <point x="79.7031" y="-8.98242" type="curve" smooth="yes"/>
      <point x="73.9248" y="-6.35742"/>
      <point x="68.7832" y="-2.41699"/>
      <point x="64.5049" y="2.27246" type="curve" smooth="yes"/>
      <point x="55.9502" y="11.6504"/>
      <point x="50.959" y="23.792"/>
      <point x="47.958" y="36.126" type="curve" smooth="yes"/>
      <point x="41.457" y="62.8506"/>
      <point x="43.6455" y="90.8428"/>
      <point x="46.4209" y="118.205" type="curve" smooth="yes"/>
      <point x="49.1963" y="145.568"/>
      <point x="52.5137" y="173.286"/>
      <point x="48.1709" y="200.445" type="curve" smooth="yes"/>
      <point x="41.8467" y="240.005"/>
      <point x="19.7402" y="275.51"/>
      <point x="11.7852" y="314.775" type="curve" smooth="yes"/>
      <point x="7.80762" y="334.407"/>
      <point x="7.54883" y="355.265"/>
      <point x="14.5947" y="374.017" type="curve" smooth="yes"/>
      <point x="18.1182" y="383.392"/>
      <point x="23.4561" y="392.133"/>
      <point x="30.5293" y="399.224" type="curve" smooth="yes"/>
      <point x="37.6025" y="406.315"/>
      <point x="46.4346" y="411.721"/>
      <point x="56.0996" y="414.348" type="curve" smooth="yes"/>
      <point x="64.9375" y="416.749"/>
      <point x="74.2158" y="416.81"/>
      <point x="83.373" y="417.019" type="curve" smooth="yes"/>
      <point x="91.2285" y="417.198"/>
      <point x="99.1689" y="417.491"/>
      <point x="106.867" y="415.911" type="curve" smooth="yes"/>
      <point x="115.781" y="414.082"/>
      <point x="124.117" y="409.74"/>
      <point x="130.972" y="403.755" type="curve" smooth="yes"/>
      <point x="137.825" y="397.771"/>
      <point x="143.211" y="390.174"/>
      <point x="146.93" y="381.87" type="curve" smooth="yes"/>
      <point x="154.368" y="365.262"/>
      <point x="155.045" y="346.194"/>
      <point x="151.568" y="328.331" type="curve" smooth="yes"/>
      <point x="144.614" y="292.605"/>
      <point x="122.329" y="262.066"/>
    </contour>
    <contour>
      <point x="102.642" y="499.129" type="curve" smooth="yes"/>
      <point x="98.2715" y="493.851"/>
      <point x="92.5713" y="489.581"/>
      <point x="86.0674" y="487.417" type="curve" smooth="yes"/>
      <point x="79.5635" y="485.253"/>
      <point x="72.249" y="485.294"/>
      <point x="65.9766" y="488.058" type="curve" smooth="yes"/>
      <point x="60.2959" y="490.561"/>
      <point x="55.6523" y="495.219"/>
      <point x="52.8838" y="500.776" type="curve" smooth="yes"/>
      <point x="50.1143" y="506.333"/>
      <point x="49.1885" y="512.739"/>
      <point x="49.9521" y="518.9" type="curve" smooth="yes"/>
      <point x="51.1211" y="528.324"/>
      <point x="56.3604" y="537.232"/>
      <point x="64.2051" y="542.585" type="curve" smooth="yes"/>
      <point x="72.0488" y="547.938"/>
      <point x="82.4004" y="549.553"/>
      <point x="91.4121" y="546.558" type="curve" smooth="yes"/>
      <point x="96.7324" y="544.79"/>
      <point x="101.543" y="541.477"/>
      <point x="105.017" y="537.076" type="curve" smooth="yes"/>
      <point x="108.489" y="532.675"/>
      <point x="110.6" y="527.197"/>
      <point x="110.883" y="521.598" type="curve" smooth="yes"/>
      <point x="111.294" y="513.444"/>
      <point x="107.849" y="505.416"/>
    </contour>
  </outline>
</glyph>
<glyph name="j" format="1">
  <advance width="162"/>
  <unicode hex="006A"/>
  <outline>
    <contour>
      <point x="63.2412" y="-140.016" type="curve" smooth="yes"/>
      <point x="30.7861" y="-144.368"/>
      <point x="-10.0049" y="-134.609"/>
      <point x="-29.8164" y="-108.536" type="curve" smooth="yes"/>
      <point x="-45.6621" y="-87.6826"/>
      <point x="-52.1777" y="-49.0625"/>
      <point x="-34.1309" y="-30.0811" type="curve" smooth="yes"/>
      <point x="-24.2314" y="-19.668"/>
      <point x="-2.13672" y="-21.1602"/>
      <point x="8.9707" y="-30.2725" type="curve" smooth="yes"/>
      <point x="15.2979" y="-35.4639"/>
      <point x="12.4873" y="-46.2637"/>
      <point x="13.874" y="-54.3291" type="curve" smooth="yes"/>
      <point x="15.418" y="-63.3154"/>
      <point x="12.5596" y="-73.8701"/>
      <point x="17.6748" y="-81.4189" type="curve" smooth="yes"/>
      <point x="20.3516" y="-85.3691"/>
      <point x="25.8818" y="-90.7441"/>
      <point x="30.1045" y="-88.5215" type="curve" smooth="yes"/>
      <point x="101.752" y="-50.7979"/>
      <point x="45.9707" y="72.7041"/>
      <point x="50.0938" y="153.571" type="curve" smooth="yes"/>
      <point x="54.0361" y="230.902"/>
      <point x="0.336914" y="330.604"/>
      <point x="54.6201" y="385.82" type="curve" smooth="yes"/>
      <point x="67.9912" y="399.422"/>
      <point x="98.085" y="401.164"/>
      <point x="111.801" y="387.91" type="curve" smooth="yes"/>
      <point x="196.957" y="305.621"/>
      <point x="119.401" y="150.772"/>
      <point x="110.99" y="32.6523" type="curve" smooth="yes"/>
      <point x="107.279" y="-19.4688"/>
      <point x="116.84" y="-78.2725"/>
      <point x="89.1318" y="-122.573" type="curve" smooth="yes"/>
      <point x="83.6133" y="-131.396"/>
      <point x="73.5547" y="-138.632"/>
    </contour>
    <contour>
      <point x="127.703" y="507.688" type="curve" smooth="yes"/>
      <point x="127.739" y="499.521"/>
      <point x="124.345" y="490.643"/>
      <point x="118.819" y="484.465" type="curve" smooth="yes"/>
      <point x="114.399" y="479.521"/>
      <point x="108.11" y="476.5"/>
      <point x="101.145" y="475.333" type="curve" smooth="yes"/>
      <point x="94.1797" y="474.166"/>
      <point x="86.8867" y="475.271"/>
      <point x="80.4756" y="478.232" type="curve" smooth="yes"/>
      <point x="74.6104" y="480.941"/>
      <point x="69.4551" y="485.202"/>
      <point x="65.7793" y="490.516" type="curve" smooth="yes"/>
      <point x="62.1035" y="495.828"/>
      <point x="59.9268" y="502.186"/>
      <point x="59.6875" y="508.642" type="curve" smooth="yes"/>
      <point x="59.3398" y="517.984"/>
      <point x="63.1699" y="527.4"/>
      <point x="69.9238" y="533.866" type="curve" smooth="yes"/>
      <point x="76.6777" y="540.332"/>
      <point x="86.2402" y="543.747"/>
      <point x="95.5635" y="543.049" type="curve" smooth="yes"/>
      <point x="104.293" y="542.396"/>
      <point x="112.679" y="538.188"/>
      <point x="118.529" y="531.679" type="curve" smooth="yes"/>
      <point x="124.381" y="525.168"/>
      <point x="127.667" y="516.44"/>
    </contour>
  </outline>
</glyph>
<glyph name="k" format="1">
  <advance width="263"/>
  <unicode hex="006B"/>
  <outline>
    <contour>
      <point x="84.2646" y="515.05" type="curve" smooth="yes"/>
      <point x="84.2646" y="515.05"/>
      <point x="84.2646" y="515.051"/>
      <point x="84.2637" y="515.051" type="curve"/>
      <point x="88.9404" y="517.93"/>
      <point x="94.7051" y="518.987"/>
      <point x="100.099" y="517.959" type="curve" smooth="yes"/>
      <point x="105.493" y="516.931"/>
      <point x="110.464" y="513.825"/>
      <point x="113.753" y="509.429" type="curve" smooth="yes"/>
      <point x="117.63" y="504.247"/>
      <point x="119.089" y="497.574"/>
      <point x="119.052" y="491.104" type="curve" smooth="yes"/>
      <point x="119.029" y="484.632"/>
      <point x="117.655" y="478.253"/>
      <point x="116.393" y="471.905" type="curve" smooth="yes"/>
      <point x="107.998" y="429.694"/>
      <point x="104.225" y="386.241"/>
      <point x="89.4717" y="345.81" type="curve" smooth="yes"/>
      <point x="86.7422" y="338.33"/>
      <point x="83.6416" y="330.971"/>
      <point x="81.4766" y="323.309" type="curve" smooth="yes"/>
      <point x="79.3115" y="315.646"/>
      <point x="78.0967" y="307.584"/>
      <point x="79.2422" y="299.704" type="curve" smooth="yes"/>
      <point x="80.3867" y="291.824"/>
      <point x="84.0859" y="284.116"/>
      <point x="90.3672" y="279.224" type="curve" smooth="yes"/>
      <point x="93.5078" y="276.777"/>
      <point x="97.251" y="275.076"/>
      <point x="101.188" y="274.482" type="curve" smooth="yes"/>
      <point x="105.124" y="273.888"/>
      <point x="109.248" y="274.421"/>
      <point x="112.835" y="276.146" type="curve" smooth="yes"/>
      <point x="117.513" y="278.395"/>
      <point x="121.077" y="282.538"/>
      <point x="123.483" y="287.136" type="curve" smooth="yes"/>
      <point x="125.891" y="291.733"/>
      <point x="127.243" y="296.801"/>
      <point x="128.441" y="301.85" type="curve" smooth="yes"/>
      <point x="132.711" y="319.845"/>
      <point x="135.369" y="338.571"/>
      <point x="144.036" y="354.91" type="curve" smooth="yes"/>
      <point x="148.37" y="363.079"/>
      <point x="154.231" y="370.558"/>
      <point x="161.754" y="375.937" type="curve" smooth="yes"/>
      <point x="169.275" y="381.316"/>
      <point x="178.537" y="384.491"/>
      <point x="187.766" y="383.895" type="curve" smooth="yes"/>
      <point x="197.438" y="383.269"/>
      <point x="206.398" y="378.653"/>
      <point x="214.502" y="373.337" type="curve" smooth="yes"/>
      <point x="218.22" y="370.898"/>
      <point x="221.848" y="368.274"/>
      <point x="224.963" y="365.102" type="curve" smooth="yes"/>
      <point x="228.078" y="361.929"/>
      <point x="230.679" y="358.173"/>
      <point x="232.059" y="353.945" type="curve" smooth="yes"/>
      <point x="233.58" y="349.281"/>
      <point x="233.554" y="344.181"/>
      <point x="232.349" y="339.425" type="curve" smooth="yes"/>
      <point x="231.143" y="334.67"/>
      <point x="228.793" y="330.249"/>
      <point x="225.827" y="326.342" type="curve" smooth="yes"/>
      <point x="219.895" y="318.527"/>
      <point x="211.661" y="312.838"/>
      <point x="203.602" y="307.242" type="curve" smooth="yes"/>
      <point x="195.24" y="301.438"/>
      <point x="186.777" y="295.463"/>
      <point x="180.528" y="287.428" type="curve" smooth="yes"/>
      <point x="177.403" y="283.41"/>
      <point x="174.868" y="278.895"/>
      <point x="173.409" y="274.019" type="curve" smooth="yes"/>
      <point x="171.951" y="269.143"/>
      <point x="171.596" y="263.895"/>
      <point x="172.734" y="258.934" type="curve" smooth="yes"/>
      <point x="173.266" y="256.622"/>
      <point x="174.111" y="254.396"/>
      <point x="174.915" y="252.164" type="curve" smooth="yes"/>
      <point x="181.985" y="232.53"/>
      <point x="186.005" y="211.96"/>
      <point x="191.035" y="191.708" type="curve" smooth="yes"/>
      <point x="196.064" y="171.456"/>
      <point x="202.237" y="151.202"/>
      <point x="213.126" y="133.4" type="curve" smooth="yes"/>
      <point x="225.047" y="113.91"/>
      <point x="242.293" y="97.9043"/>
      <point x="252.781" y="77.6074" type="curve" smooth="yes"/>
      <point x="258.024" y="67.459"/>
      <point x="261.499" y="56.1719"/>
      <point x="261.139" y="44.7539" type="curve" smooth="yes"/>
      <point x="260.78" y="33.3359"/>
      <point x="256.281" y="21.792"/>
      <point x="247.665" y="14.292" type="curve" smooth="yes"/>
      <point x="241.805" y="9.19141"/>
      <point x="234.46" y="6.20605"/>
      <point x="227.469" y="2.81738" type="curve" smooth="yes"/>
      <point x="223.641" y="0.961914"/>
      <point x="219.862" y="-1.0459"/>
      <point x="215.822" y="-2.37988" type="curve" smooth="yes"/>
      <point x="211.781" y="-3.71289"/>
      <point x="207.4" y="-4.34766"/>
      <point x="203.257" y="-3.37891" type="curve" smooth="yes"/>
      <point x="199.917" y="-2.59863"/>
      <point x="196.858" y="-0.794922"/>
      <point x="194.371" y="1.56738" type="curve" smooth="yes"/>
      <point x="191.884" y="3.92871"/>
      <point x="189.95" y="6.83496"/>
      <point x="188.487" y="9.93652" type="curve" smooth="yes"/>
      <point x="185.56" y="16.1416"/>
      <point x="184.504" y="23.0312"/>
      <point x="183.292" y="29.7832" type="curve" smooth="yes"/>
      <point x="177.001" y="64.8252"/>
      <point x="165.61" y="99.915"/>
      <point x="169.976" y="135.248" type="curve" smooth="yes"/>
      <point x="171.019" y="143.688"/>
      <point x="172.955" y="152.002"/>
      <point x="173.868" y="160.456" type="curve" smooth="yes"/>
      <point x="174.78" y="168.91"/>
      <point x="174.623" y="177.678"/>
      <point x="171.6" y="185.626" type="curve" smooth="yes"/>
      <point x="170.088" y="189.6"/>
      <point x="167.861" y="193.325"/>
      <point x="164.902" y="196.378" type="curve" smooth="yes"/>
      <point x="161.943" y="199.432"/>
      <point x="158.238" y="201.797"/>
      <point x="154.153" y="202.975" type="curve" smooth="yes"/>
      <point x="150.068" y="204.153"/>
      <point x="145.604" y="204.111"/>
      <point x="141.615" y="202.641" type="curve" smooth="yes"/>
      <point x="137.648" y="201.153"/>
      <point x="134.777" y="197.286"/>
      <point x="132.001" y="193.986" type="curve" smooth="yes"/>
      <point x="123.393" y="183.755"/>
      <point x="115.424" y="172.553"/>
      <point x="110.658" y="160.021" type="curve" smooth="yes"/>
      <point x="106.352" y="148.698"/>
      <point x="107.345" y="136.021"/>
      <point x="110.084" y="124.221" type="curve" smooth="yes"/>
      <point x="115.254" y="101.951"/>
      <point x="126.346" y="81.1992"/>
      <point x="129.614" y="58.5732" type="curve" smooth="yes"/>
      <point x="131.249" y="47.2598"/>
      <point x="130.828" y="35.4521"/>
      <point x="126.76" y="24.7695" type="curve" smooth="yes"/>
      <point x="122.69" y="14.0879"/>
      <point x="114.691" y="4.63281"/>
      <point x="104.117" y="0.292969" type="curve" smooth="yes"/>
      <point x="96.9238" y="-2.66016"/>
      <point x="89.0049" y="-3.15137"/>
      <point x="81.2822" y="-4.06738" type="curve" smooth="yes"/>
      <point x="77.0615" y="-4.56836"/>
      <point x="72.8359" y="-5.20703"/>
      <point x="68.5859" y="-5.13477" type="curve" smooth="yes"/>
      <point x="64.3359" y="-5.0625"/>
      <point x="60" y="-4.23242"/>
      <point x="56.3818" y="-2.00195" type="curve" smooth="yes"/>
      <point x="53.4482" y="-0.193359"/>
      <point x="51.0938" y="2.4834"/>
      <point x="49.4551" y="5.51562" type="curve" smooth="yes"/>
      <point x="47.8174" y="8.54785"/>
      <point x="46.877" y="11.9277"/>
      <point x="46.4668" y="15.3496" type="curve" smooth="yes"/>
      <point x="45.6475" y="22.1943"/>
      <point x="46.9121" y="29.0996"/>
      <point x="48.2354" y="35.8643" type="curve" smooth="yes"/>
      <point x="56.6123" y="78.7002"/>
      <point x="67.5527" y="121.163"/>
      <point x="71.751" y="164.608" type="curve" smooth="yes"/>
      <point x="75.9492" y="208.053"/>
      <point x="73.0361" y="253.256"/>
      <point x="54.7764" y="292.899" type="curve" smooth="yes"/>
      <point x="43.5674" y="317.232"/>
      <point x="27.0088" y="338.623"/>
      <point x="11.835" y="360.702" type="curve" smooth="yes"/>
      <point x="-3.33887" y="382.781"/>
      <point x="-17.4834" y="406.348"/>
      <point x="-22.8232" y="432.601" type="curve" smooth="yes"/>
      <point x="-25.4932" y="445.728"/>
      <point x="-25.875" y="459.409"/>
      <point x="-23.0234" y="472.498" type="curve" smooth="yes"/>
      <point x="-20.1719" y="485.586"/>
      <point x="-14" y="498.06"/>
      <point x="-4.64844" y="507.651" type="curve" smooth="yes"/>
      <point x="4.70215" y="517.243"/>
      <point x="17.3027" y="523.815"/>
      <point x="30.6348" y="525.112" type="curve" smooth="yes"/>
      <point x="43.9678" y="526.408"/>
      <point x="57.916" y="522.203"/>
      <point x="67.7422" y="513.1" type="curve" smooth="yes"/>
      <point x="69.834" y="511.162"/>
      <point x="71.7432" y="509.016"/>
      <point x="74.0117" y="507.29" type="curve" smooth="yes"/>
      <point x="76.2812" y="505.563"/>
      <point x="79.0146" y="504.256"/>
      <point x="81.8652" y="504.342" type="curve" smooth="yes"/>
      <point x="83.29" y="504.385"/>
      <point x="84.7158" y="504.786"/>
      <point x="85.9004" y="505.578" type="curve" smooth="yes"/>
      <point x="87.0869" y="506.37"/>
      <point x="88.0186" y="507.562"/>
      <point x="88.4072" y="508.935" type="curve" smooth="yes"/>
      <point x="88.7969" y="510.306"/>
      <point x="88.6182" y="511.848"/>
      <point x="87.8447" y="513.045" type="curve" smooth="yes"/>
      <point x="87.457" y="513.644"/>
      <point x="86.9287" y="514.151"/>
      <point x="86.3086" y="514.504" type="curve" smooth="yes"/>
      <point x="85.6895" y="514.856"/>
      <point x="84.9775" y="515.05"/>
    </contour>
  </outline>
</glyph>
<glyph name="l" format="1">
  <advance width="114"/>
  <unicode hex="006C"/>
  <outline>
    <contour>
      <point x="88.9766" y="121.713" type="curve" smooth="yes"/>
      <point x="91.4951" y="102.813"/>
      <point x="96.542" y="84.251"/>
      <point x="97.8467" y="65.2256" type="curve" smooth="yes"/>
      <point x="98.5" y="55.7129"/>
      <point x="98.2021" y="46.084"/>
      <point x="96.1943" y="36.7627" type="curve" smooth="yes"/>
      <point x="94.1855" y="27.4414"/>
      <point x="90.4219" y="18.4189"/>
      <point x="84.585" y="10.8789" type="curve" smooth="yes"/>
      <point x="78.3857" y="2.87109"/>
      <point x="69.8525" y="-3.35352"/>
      <point x="60.248" y="-6.56543" type="curve" smooth="yes"/>
      <point x="56.1426" y="-7.93848"/>
      <point x="51.8154" y="-8.77148"/>
      <point x="47.4912" y="-8.56641" type="curve" smooth="yes"/>
      <point x="43.167" y="-8.3623"/>
      <point x="38.8389" y="-7.0791"/>
      <point x="35.3418" y="-4.52734" type="curve" smooth="yes"/>
      <point x="32.5879" y="-2.51855"/>
      <point x="30.4111" y="0.229492"/>
      <point x="28.8818" y="3.27637" type="curve" smooth="yes"/>
      <point x="27.3535" y="6.32324"/>
      <point x="26.458" y="9.66406"/>
      <point x="26.0322" y="13.0469" type="curve" smooth="yes"/>
      <point x="25.1816" y="19.8105"/>
      <point x="26.1816" y="26.6562"/>
      <point x="27.1885" y="33.3994" type="curve" smooth="yes"/>
      <point x="39.9307" y="118.731"/>
      <point x="53.9297" y="206.56"/>
      <point x="33.707" y="290.434" type="curve" smooth="yes"/>
      <point x="24.3662" y="329.176"/>
      <point x="7.83203" y="366.366"/>
      <point x="3.85254" y="406.02" type="curve" smooth="yes"/>
      <point x="1.86328" y="425.846"/>
      <point x="3.14258" y="446.252"/>
      <point x="9.94141" y="464.982" type="curve" smooth="yes"/>
      <point x="16.7402" y="483.713"/>
      <point x="29.373" y="500.682"/>
      <point x="46.6543" y="510.603" type="curve" smooth="yes"/>
      <point x="53.9766" y="514.807"/>
      <point x="62.2432" y="517.744"/>
      <point x="70.6836" y="517.562" type="curve" smooth="yes"/>
      <point x="74.9053" y="517.471"/>
      <point x="79.127" y="516.589"/>
      <point x="82.9512" y="514.803" type="curve" smooth="yes"/>
      <point x="86.7764" y="513.016"/>
      <point x="90.1943" y="510.311"/>
      <point x="92.6562" y="506.881" type="curve" smooth="yes"/>
      <point x="96.4189" y="501.64"/>
      <point x="97.7881" y="494.989"/>
      <point x="97.751" y="488.537" type="curve" smooth="yes"/>
      <point x="97.7227" y="482.085"/>
      <point x="96.4111" y="475.718"/>
      <point x="95.2832" y="469.365" type="curve" smooth="yes"/>
      <point x="83.1221" y="400.869"/>
      <point x="92.0186" y="330.625"/>
      <point x="91.6279" y="261.059" type="curve" smooth="yes"/>
      <point x="91.6016" y="256.162"/>
      <point x="91.5244" y="251.262"/>
      <point x="91.3779" y="246.367" type="curve" smooth="yes"/>
      <point x="90.1162" y="204.761"/>
      <point x="83.4805" y="162.975"/>
    </contour>
  </outline>
</glyph>
<glyph name="m" format="1">
  <advance width="320"/>
  <unicode hex="006D"/>
  <outline>
    <contour>
      <point x="85.1426" y="88.2637" type="curve" smooth="yes"/>
      <point x="86.1777" y="58.7051"/>
      <point x="90.9346" y="21.2715"/>
      <point x="78.3994" y="3.25488" type="curve" smooth="yes"/>
      <point x="73.1377" y="-4.30762"/>
      <point x="65.3506" y="-5.76465"/>
      <point x="57.8096" y="-7.56641" type="curve" smooth="yes"/>
      <point x="50.9834" y="-9.19824"/>
      <point x="43.6318" y="-8.87988"/>
      <point x="36.7559" y="-7.25684" type="curve" smooth="yes"/>
      <point x="29.8809" y="-5.63281"/>
      <point x="23.3389" y="-2.11914"/>
      <point x="18.7783" y="3.27637" type="curve" smooth="yes"/>
      <point x="15.6494" y="6.97754"/>
      <point x="13.5215" y="11.4688"/>
      <point x="12.3174" y="16.1631" type="curve" smooth="yes"/>
      <point x="11.1035" y="20.8574"/>
      <point x="10.8145" y="25.7549"/>
      <point x="11.1035" y="30.5918" type="curve" smooth="yes"/>
      <point x="11.6826" y="40.2676"/>
      <point x="14.5723" y="49.6299"/>
      <point x="17.0791" y="58.9922" type="curve" smooth="yes"/>
      <point x="40.6963" y="147.184"/>
      <point x="31.2549" y="240.354"/>
      <point x="23.7139" y="331.342" type="curve" smooth="yes"/>
      <point x="23.1826" y="337.761"/>
      <point x="22.6602" y="344.207"/>
      <point x="23.0693" y="350.635" type="curve" smooth="yes"/>
      <point x="23.4775" y="357.062"/>
      <point x="24.8535" y="363.517"/>
      <point x="27.917" y="369.183" type="curve" smooth="yes"/>
      <point x="32.834" y="378.277"/>
      <point x="41.8652" y="384.726"/>
      <point x="51.707" y="387.893" type="curve" smooth="yes"/>
      <point x="61.5488" y="391.06"/>
      <point x="72.1602" y="391.181"/>
      <point x="82.4062" y="389.799" type="curve" smooth="yes"/>
      <point x="102.899" y="387.035"/>
      <point x="122.398" y="378.447"/>
      <point x="143.026" y="377.018" type="curve" smooth="yes"/>
      <point x="161.69" y="375.725"/>
      <point x="180.178" y="380.357"/>
      <point x="198.667" y="383.213" type="curve" smooth="yes"/>
      <point x="207.911" y="384.641"/>
      <point x="217.267" y="385.63"/>
      <point x="226.611" y="385.209" type="curve" smooth="yes"/>
      <point x="235.956" y="384.787"/>
      <point x="245.323" y="382.917"/>
      <point x="253.747" y="378.851" type="curve" smooth="yes"/>
      <point x="258.422" y="376.595"/>
      <point x="262.766" y="373.684"/>
      <point x="266.775" y="370.389" type="curve" smooth="yes"/>
      <point x="273.447" y="364.905"/>
      <point x="279.229" y="358.323"/>
      <point x="283.679" y="350.922" type="curve" smooth="yes"/>
      <point x="290.264" y="339.968"/>
      <point x="293.839" y="327.38"/>
      <point x="295.238" y="314.676" type="curve" smooth="yes"/>
      <point x="296.639" y="301.973"/>
      <point x="295.926" y="289.117"/>
      <point x="294.382" y="276.43" type="curve" smooth="yes"/>
      <point x="291.296" y="251.056"/>
      <point x="284.89" y="225.929"/>
      <point x="285.389" y="200.373" type="curve" smooth="yes"/>
      <point x="286.089" y="164.528"/>
      <point x="300.274" y="130.417"/>
      <point x="306.103" y="95.0439" type="curve" smooth="yes"/>
      <point x="309.015" y="77.3564"/>
      <point x="309.808" y="59.0781"/>
      <point x="305.771" y="41.6133" type="curve" smooth="yes"/>
      <point x="301.736" y="24.1475"/>
      <point x="292.534" y="7.48926"/>
      <point x="278.211" y="-3.28906" type="curve" smooth="yes"/>
      <point x="269.683" y="-9.70703"/>
      <point x="259.345" y="-13.9395"/>
      <point x="248.679" y="-14.3232" type="curve" smooth="yes"/>
      <point x="238.013" y="-14.707"/>
      <point x="227.069" y="-11.0332"/>
      <point x="219.452" y="-3.55762" type="curve" smooth="yes"/>
      <point x="214.625" y="1.17969"/>
      <point x="211.242" y="7.27148"/>
      <point x="209.224" y="13.7266" type="curve" smooth="yes"/>
      <point x="207.205" y="20.1807"/>
      <point x="206.509" y="26.9971"/>
      <point x="206.609" y="33.7588" type="curve" smooth="yes"/>
      <point x="206.806" y="47.2822"/>
      <point x="210.107" y="60.5459"/>
      <point x="211.827" y="73.9619" type="curve" smooth="yes"/>
      <point x="216.474" y="110.185"/>
      <point x="209.635" y="147.761"/>
      <point x="219.213" y="183.002" type="curve" smooth="yes"/>
      <point x="225.062" y="204.52"/>
      <point x="236.822" y="224.193"/>
      <point x="241.487" y="245.998" type="curve" smooth="yes"/>
      <point x="243.822" y="256.901"/>
      <point x="244.304" y="268.385"/>
      <point x="241.282" y="279.117" type="curve" smooth="yes"/>
      <point x="238.261" y="289.849"/>
      <point x="231.475" y="299.771"/>
      <point x="221.722" y="305.174" type="curve" smooth="yes"/>
      <point x="217.44" y="307.545"/>
      <point x="212.727" y="309.002"/>
      <point x="208.187" y="310.829" type="curve" smooth="yes"/>
      <point x="205.297" y="311.992"/>
      <point x="202.461" y="313.312"/>
      <point x="199.472" y="314.188" type="curve" smooth="yes"/>
      <point x="196.482" y="315.062"/>
      <point x="193.287" y="315.479"/>
      <point x="190.248" y="314.795" type="curve" smooth="yes"/>
      <point x="186.016" y="313.841"/>
      <point x="182.432" y="310.76"/>
      <point x="180.35" y="306.954" type="curve" smooth="yes"/>
      <point x="178.268" y="303.147"/>
      <point x="177.592" y="298.683"/>
      <point x="177.871" y="294.354" type="curve" smooth="yes"/>
      <point x="178.432" y="285.695"/>
      <point x="182.583" y="277.75"/>
      <point x="185.518" y="269.585" type="curve" smooth="yes"/>
      <point x="194.361" y="244.985"/>
      <point x="192.224" y="217.9"/>
      <point x="188.511" y="192.025" type="curve" smooth="yes"/>
      <point x="184.798" y="166.149"/>
      <point x="179.61" y="140.026"/>
      <point x="182.722" y="114.072" type="curve" smooth="yes"/>
      <point x="185.168" y="93.6689"/>
      <point x="192.683" y="74.1123"/>
      <point x="194.857" y="53.6787" type="curve" smooth="yes"/>
      <point x="195.944" y="43.4619"/>
      <point x="195.66" y="32.9834"/>
      <point x="192.763" y="23.126" type="curve" smooth="yes"/>
      <point x="189.865" y="13.2686"/>
      <point x="184.211" y="4.04395"/>
      <point x="175.947" y="-2.06055" type="curve" smooth="yes"/>
      <point x="168.784" y="-7.35059"/>
      <point x="159.541" y="-10.1338"/>
      <point x="150.791" y="-8.4873" type="curve" smooth="yes"/>
      <point x="144.57" y="-7.31641"/>
      <point x="138.855" y="-3.97559"/>
      <point x="134.405" y="0.527344" type="curve" smooth="yes"/>
      <point x="129.956" y="5.03027"/>
      <point x="126.732" y="10.6543"/>
      <point x="124.599" y="16.6143" type="curve" smooth="yes"/>
      <point x="120.329" y="28.5332"/>
      <point x="120.365" y="41.5049"/>
      <point x="120.59" y="54.1631" type="curve" smooth="yes"/>
      <point x="121.42" y="101.12"/>
      <point x="124.215" y="148.408"/>
      <point x="135.98" y="193.874" type="curve" smooth="yes"/>
      <point x="141.357" y="214.651"/>
      <point x="148.64" y="235.312"/>
      <point x="148.793" y="256.773" type="curve" smooth="yes"/>
      <point x="148.869" y="267.504"/>
      <point x="147.096" y="278.358"/>
      <point x="142.582" y="288.094" type="curve" smooth="yes"/>
      <point x="138.068" y="297.83"/>
      <point x="130.691" y="306.396"/>
      <point x="121.19" y="311.382" type="curve" smooth="yes"/>
      <point x="112.578" y="315.902"/>
      <point x="102.213" y="317.312"/>
      <point x="92.915" y="314.457" type="curve" smooth="yes"/>
      <point x="85.2803" y="312.111"/>
      <point x="78.6309" y="307.009"/>
      <point x="73.835" y="300.621" type="curve" smooth="yes"/>
      <point x="69.0391" y="294.234"/>
      <point x="66.0332" y="286.613"/>
      <point x="64.4922" y="278.775" type="curve" smooth="yes"/>
      <point x="61.4111" y="263.102"/>
      <point x="64.0576" y="246.932"/>
      <point x="66.7549" y="231.187" type="curve" smooth="yes"/>
      <point x="74.8721" y="183.804"/>
      <point x="83.459" y="136.308"/>
    </contour>
  </outline>
</glyph>
<glyph name="n" format="1">
  <advance width="223"/>
  <unicode hex="006E"/>
  <outline>
    <contour>
      <point x="84.8662" y="148.862" type="curve" smooth="yes"/>
      <point x="89.0693" y="128.26"/>
      <point x="95.9463" y="108.279"/>
      <point x="100.231" y="87.6934" type="curve" smooth="yes"/>
      <point x="104.517" y="67.1074"/>
      <point x="106.117" y="45.3633"/>
      <point x="99.7979" y="25.3076" type="curve" smooth="yes"/>
      <point x="97.3477" y="17.5332"/>
      <point x="93.7002" y="10.0752"/>
      <point x="88.5439" y="3.76074" type="curve" smooth="yes"/>
      <point x="83.3877" y="-2.55273"/>
      <point x="76.6758" y="-8.04492"/>
      <point x="68.998" y="-10.7832" type="curve" smooth="yes"/>
      <point x="57.3789" y="-14.9277"/>
      <point x="43.8047" y="-12.792"/>
      <point x="33.6748" y="-5.75195" type="curve" smooth="yes"/>
      <point x="28.0098" y="-1.81445"/>
      <point x="23.4551" y="3.62012"/>
      <point x="20.1895" y="9.69727" type="curve" smooth="yes"/>
      <point x="16.9238" y="15.7744"/>
      <point x="14.9219" y="22.4854"/>
      <point x="13.8965" y="29.3076" type="curve" smooth="yes"/>
      <point x="11.8467" y="42.9531"/>
      <point x="13.6582" y="56.8613"/>
      <point x="15.8516" y="70.4844" type="curve" smooth="yes"/>
      <point x="21.6729" y="106.653"/>
      <point x="30.1982" y="142.565"/>
      <point x="31.4619" y="179.178" type="curve" smooth="yes"/>
      <point x="32.5586" y="210.962"/>
      <point x="28.1553" y="242.646"/>
      <point x="26.2324" y="274.392" type="curve" smooth="yes"/>
      <point x="24.3096" y="306.137"/>
      <point x="24.9922" y="338.733"/>
      <point x="35.8018" y="368.643" type="curve" smooth="yes"/>
      <point x="36.8623" y="371.577"/>
      <point x="38.043" y="374.521"/>
      <point x="39.959" y="376.982" type="curve" smooth="yes"/>
      <point x="42.6016" y="380.377"/>
      <point x="46.5293" y="382.644"/>
      <point x="50.6914" y="383.728" type="curve" smooth="yes"/>
      <point x="54.8545" y="384.812"/>
      <point x="59.249" y="384.773"/>
      <point x="63.5029" y="384.128" type="curve" smooth="yes"/>
      <point x="72.0088" y="382.837"/>
      <point x="79.9824" y="379.191"/>
      <point x="88.3896" y="377.363" type="curve" smooth="yes"/>
      <point x="98.7021" y="375.122"/>
      <point x="109.382" y="375.665"/>
      <point x="119.935" y="375.751" type="curve" smooth="yes"/>
      <point x="130.487" y="375.837"/>
      <point x="141.315" y="375.397"/>
      <point x="151.068" y="371.365" type="curve" smooth="yes"/>
      <point x="159.429" y="367.909"/>
      <point x="166.614" y="361.917"/>
      <point x="172.144" y="354.757" type="curve" smooth="yes"/>
      <point x="177.672" y="347.596"/>
      <point x="181.601" y="339.293"/>
      <point x="184.388" y="330.687" type="curve" smooth="yes"/>
      <point x="194.638" y="299.034"/>
      <point x="189.522" y="264.805"/>
      <point x="188.688" y="231.545" type="curve" smooth="yes"/>
      <point x="187.581" y="187.501"/>
      <point x="194.231" y="143.441"/>
      <point x="206.18" y="101.035" type="curve" smooth="yes"/>
      <point x="211.698" y="81.4492"/>
      <point x="218.417" y="61.5762"/>
      <point x="216.857" y="41.2881" type="curve" smooth="yes"/>
      <point x="216.077" y="31.1436"/>
      <point x="213.131" y="21.0322"/>
      <point x="207.368" y="12.6475" type="curve" smooth="yes"/>
      <point x="201.605" y="4.26367"/>
      <point x="192.879" y="-2.27246"/>
      <point x="182.929" y="-4.39355" type="curve" smooth="yes"/>
      <point x="175.508" y="-5.97461"/>
      <point x="167.281" y="-5.06445"/>
      <point x="160.268" y="-2.16992" type="curve" smooth="yes"/>
      <point x="153.254" y="0.723633"/>
      <point x="147.452" y="5.55371"/>
      <point x="142.677" y="11.4492" type="curve" smooth="yes"/>
      <point x="135.325" y="20.5234"/>
      <point x="131.296" y="31.9072"/>
      <point x="129.265" y="43.4072" type="curve" smooth="yes"/>
      <point x="127.233" y="54.9082"/>
      <point x="127.076" y="66.6426"/>
      <point x="126.687" y="78.3145" type="curve" smooth="yes"/>
      <point x="125.367" y="117.795"/>
      <point x="121.36" y="157.815"/>
      <point x="129.629" y="196.443" type="curve" smooth="yes"/>
      <point x="134.497" y="219.189"/>
      <point x="143.614" y="241.508"/>
      <point x="142.578" y="264.746" type="curve" smooth="yes"/>
      <point x="142.061" y="276.365"/>
      <point x="138.833" y="288.091"/>
      <point x="131.881" y="297.415" type="curve" smooth="yes"/>
      <point x="128.404" y="302.077"/>
      <point x="124.024" y="306.09"/>
      <point x="118.963" y="308.954" type="curve" smooth="yes"/>
      <point x="113.901" y="311.818"/>
      <point x="108.155" y="313.516"/>
      <point x="102.341" y="313.642" type="curve" smooth="yes"/>
      <point x="98.3174" y="313.729"/>
      <point x="94.2598" y="313.062"/>
      <point x="90.5469" y="311.508" type="curve" smooth="yes"/>
      <point x="84.875" y="309.135"/>
      <point x="80.1641" y="304.737"/>
      <point x="76.9199" y="299.515" type="curve" smooth="yes"/>
      <point x="73.6738" y="294.291"/>
      <point x="71.8379" y="288.273"/>
      <point x="71.041" y="282.176" type="curve" smooth="yes"/>
      <point x="69.4482" y="269.981"/>
      <point x="71.9004" y="257.677"/>
      <point x="73.6758" y="245.508" type="curve" smooth="yes"/>
      <point x="78.3613" y="213.402"/>
      <point x="78.3809" y="180.653"/>
    </contour>
  </outline>
</glyph>
<glyph name="o" format="1">
  <advance width="207"/>
  <unicode hex="006F"/>
  <outline>
    <contour>
      <point x="104.899" y="385.386" type="curve" smooth="yes"/>
      <point x="104.903" y="385.386" type="line"/>
      <point x="125.361" y="384.55"/>
      <point x="145.451" y="376.465"/>
      <point x="160.785" y="362.896" type="curve" smooth="yes"/>
      <point x="169.102" y="355.536"/>
      <point x="176.037" y="346.618"/>
      <point x="181.096" y="336.732" type="curve" smooth="yes"/>
      <point x="192.36" y="314.721"/>
      <point x="193.926" y="288.985"/>
      <point x="192.142" y="264.323" type="curve" smooth="yes"/>
      <point x="190.357" y="239.661"/>
      <point x="185.46" y="215.258"/>
      <point x="184.652" y="190.544" type="curve" smooth="yes"/>
      <point x="183.869" y="166.551"/>
      <point x="186.953" y="142.62"/>
      <point x="188.354" y="118.654" type="curve" smooth="yes"/>
      <point x="189.756" y="94.6885"/>
      <point x="189.407" y="70.1797"/>
      <point x="182.014" y="47.3398" type="curve" smooth="yes"/>
      <point x="176.003" y="28.7734"/>
      <point x="165.104" y="11.4521"/>
      <point x="149.425" y="-0.166016" type="curve" smooth="yes"/>
      <point x="135.924" y="-10.1699"/>
      <point x="119.125" y="-15.6396"/>
      <point x="102.323" y="-15.5137" type="curve" smooth="yes"/>
      <point x="85.5205" y="-15.3867"/>
      <point x="68.8086" y="-9.66699"/>
      <point x="55.4463" y="0.522461" type="curve" smooth="yes"/>
      <point x="46.5156" y="7.33301"/>
      <point x="39.1348" y="16.0049"/>
      <point x="32.8418" y="25.3076" type="curve" smooth="yes"/>
      <point x="29.6699" y="29.9971"/>
      <point x="26.752" y="34.8691"/>
      <point x="24.3506" y="39.9951" type="curve" smooth="yes"/>
      <point x="14.2197" y="61.6143"/>
      <point x="13.7764" y="86.5186"/>
      <point x="16.2734" y="110.262" type="curve" smooth="yes"/>
      <point x="18.7715" y="134.006"/>
      <point x="24.0127" y="157.496"/>
      <point x="24.5781" y="181.364" type="curve" smooth="yes"/>
      <point x="25.1406" y="205.104"/>
      <point x="21.0684" y="228.677"/>
      <point x="18.9258" y="252.326" type="curve" smooth="yes"/>
      <point x="16.7842" y="275.977"/>
      <point x="16.6719" y="300.423"/>
      <point x="24.8057" y="322.733" type="curve" smooth="yes"/>
      <point x="26.9473" y="328.608"/>
      <point x="29.6426" y="334.275"/>
      <point x="32.7236" y="339.717" type="curve" smooth="yes"/>
      <point x="38.5449" y="349.997"/>
      <point x="45.7383" y="359.466"/>
      <point x="53.7217" y="368.174" type="curve" smooth="yes"/>
      <point x="57.8906" y="372.721"/>
      <point x="62.4189" y="377.165"/>
      <point x="68.0654" y="379.648" type="curve" smooth="yes"/>
      <point x="74.6035" y="382.523"/>
      <point x="81.9824" y="382.5"/>
      <point x="89.0645" y="383.435" type="curve" smooth="yes"/>
      <point x="94.3418" y="384.132"/>
      <point x="99.5752" y="385.386"/>
    </contour>
    <contour>
      <point x="112.298" y="322.42" type="curve" smooth="yes"/>
      <point x="109.971" y="323.426"/>
      <point x="107.049" y="324.139"/>
      <point x="104.376" y="323.881" type="curve" smooth="yes"/>
      <point x="101.619" y="323.614"/>
      <point x="99.0811" y="322.536"/>
      <point x="96.6426" y="320.838" type="curve" smooth="yes"/>
      <point x="94.2031" y="319.14"/>
      <point x="92.1514" y="316.936"/>
      <point x="90.3311" y="314.586" type="curve" smooth="yes"/>
      <point x="83.2549" y="305.456"/>
      <point x="79.5303" y="294.045"/>
      <point x="78.291" y="282.561" type="curve" smooth="yes"/>
      <point x="77.0508" y="271.076"/>
      <point x="78.1729" y="259.459"/>
      <point x="80.0098" y="248.055" type="curve" smooth="yes"/>
      <point x="83.6807" y="225.246"/>
      <point x="90.2207" y="202.222"/>
      <point x="86.5439" y="179.414" type="curve" smooth="yes"/>
      <point x="82.54" y="154.571"/>
      <point x="66.8428" y="133.032"/>
      <point x="61.1318" y="108.525" type="curve" smooth="yes"/>
      <point x="58.2754" y="96.2725"/>
      <point x="58.0781" y="83.0137"/>
      <point x="63.0996" y="71.4775" type="curve" smooth="yes"/>
      <point x="65.6104" y="65.71"/>
      <point x="69.4141" y="60.4658"/>
      <point x="74.3369" y="56.5488" type="curve" smooth="yes"/>
      <point x="79.2607" y="52.6328"/>
      <point x="85.3184" y="50.083"/>
      <point x="91.5928" y="49.6348" type="curve" smooth="yes"/>
      <point x="101.097" y="48.9551"/>
      <point x="110.535" y="53.1445"/>
      <point x="117.526" y="59.6172" type="curve" smooth="yes"/>
      <point x="125.867" y="67.3398"/>
      <point x="131.002" y="78.1074"/>
      <point x="133.267" y="89.2471" type="curve" smooth="yes"/>
      <point x="135.53" y="100.388"/>
      <point x="135.085" y="111.925"/>
      <point x="133.526" y="123.186" type="curve" smooth="yes"/>
      <point x="130.41" y="145.706"/>
      <point x="122.881" y="167.829"/>
      <point x="123.836" y="190.544" type="curve" smooth="yes"/>
      <point x="124.718" y="211.499"/>
      <point x="132.767" y="231.417"/>
      <point x="136.838" y="251.991" type="curve" smooth="yes"/>
      <point x="138.872" y="262.279"/>
      <point x="139.914" y="272.868"/>
      <point x="138.534" y="283.264" type="curve" smooth="yes"/>
      <point x="137.154" y="293.659"/>
      <point x="133.228" y="303.894"/>
      <point x="126.246" y="311.718" type="curve" smooth="yes"/>
      <point x="124.007" y="314.228"/>
      <point x="121.477" y="316.469"/>
      <point x="118.787" y="318.487" type="curve" smooth="yes"/>
      <point x="116.76" y="320.01"/>
      <point x="114.625" y="321.415"/>
    </contour>
  </outline>
</glyph>
<glyph name="p" format="1">
  <advance width="209"/>
  <unicode hex="0070"/>
  <outline>
    <contour>
      <point x="64.0186" y="389.776" type="curve"/>
      <point x="64.0186" y="389.775" type="line"/>
      <point x="79.7695" y="389.757"/>
      <point x="95.3916" y="392.66"/>
      <point x="111.136" y="393.147" type="curve" smooth="yes"/>
      <point x="126.88" y="393.634"/>
      <point x="143.417" y="391.415"/>
      <point x="156.275" y="382.317" type="curve" smooth="yes"/>
      <point x="164.772" y="376.305"/>
      <point x="171.08" y="367.698"/>
      <point x="176.471" y="358.794" type="curve" smooth="yes"/>
      <point x="180.01" y="352.948"/>
      <point x="183.229" y="346.894"/>
      <point x="185.766" y="340.549" type="curve" smooth="yes"/>
      <point x="194.947" y="317.593"/>
      <point x="194.804" y="291.99"/>
      <point x="192.186" y="267.404" type="curve" smooth="yes"/>
      <point x="189.566" y="242.819"/>
      <point x="184.618" y="218.396"/>
      <point x="184.618" y="193.672" type="curve" smooth="yes"/>
      <point x="184.631" y="166.72"/>
      <point x="190.551" y="140.138"/>
      <point x="192.71" y="113.272" type="curve" smooth="yes"/>
      <point x="194.869" y="86.4072"/>
      <point x="192.845" y="57.9316"/>
      <point x="178.537" y="35.0908" type="curve" smooth="yes"/>
      <point x="171.411" y="23.7148"/>
      <point x="161.343" y="14.1201"/>
      <point x="149.391" y="8.01074" type="curve" smooth="yes"/>
      <point x="147.117" y="6.84863"/>
      <point x="144.78" y="5.8125"/>
      <point x="142.391" y="4.91211" type="curve" smooth="yes"/>
      <point x="132.597" y="1.2207"/>
      <point x="121.901" y="-0.126953"/>
      <point x="111.524" y="1.24023" type="curve" smooth="yes"/>
      <point x="107.361" y="1.78906"/>
      <point x="103.262" y="2.76465"/>
      <point x="99.0947" y="3.27539" type="curve" smooth="yes"/>
      <point x="94.9268" y="3.78613"/>
      <point x="90.6123" y="3.81445"/>
      <point x="86.624" y="2.50293" type="curve" smooth="yes"/>
      <point x="80.7441" y="0.569336"/>
      <point x="76.0352" y="-4.21973"/>
      <point x="73.4893" y="-9.86035" type="curve" smooth="yes"/>
      <point x="70.9443" y="-15.502"/>
      <point x="70.4277" y="-21.916"/>
      <point x="71.2539" y="-28.0488" type="curve" smooth="yes"/>
      <point x="72.9053" y="-40.3164"/>
      <point x="79.5752" y="-51.2178"/>
      <point x="84.7881" y="-62.4443" type="curve" smooth="yes"/>
      <point x="90.0029" y="-73.6777"/>
      <point x="93.8945" y="-85.8047"/>
      <point x="93.7051" y="-98.1885" type="curve" smooth="yes"/>
      <point x="93.6123" y="-104.38"/>
      <point x="92.4844" y="-110.584"/>
      <point x="90.0996" y="-116.299" type="curve" smooth="yes"/>
      <point x="87.7139" y="-122.014"/>
      <point x="84.0508" y="-127.229"/>
      <point x="79.2803" y="-131.179" type="curve" smooth="yes"/>
      <point x="72.8525" y="-136.498"/>
      <point x="64.5566" y="-139.364"/>
      <point x="56.2227" y="-139.747" type="curve" smooth="yes"/>
      <point x="47.8867" y="-140.13"/>
      <point x="39.5293" y="-138.109"/>
      <point x="32.0039" y="-134.506" type="curve" smooth="yes"/>
      <point x="29.6709" y="-133.389"/>
      <point x="27.4092" y="-132.12"/>
      <point x="25.2344" y="-130.72" type="curve" smooth="yes"/>
      <point x="10.7168" y="-121.368"/>
      <point x="0.459961" y="-106.188"/>
      <point x="-4.65527" y="-89.6943" type="curve" smooth="yes"/>
      <point x="-9.76855" y="-73.2002"/>
      <point x="-10.001" y="-55.4629"/>
      <point x="-7.25977" y="-38.4131" type="curve" smooth="yes"/>
      <point x="-1.77734" y="-4.31445"/>
      <point x="15.0488" y="26.7109"/>
      <point x="27.4141" y="58.959" type="curve" smooth="yes"/>
      <point x="58.6934" y="140.536"/>
      <point x="60.957" y="233.584"/>
      <point x="30.0527" y="315.305" type="curve" smooth="yes"/>
      <point x="25.4102" y="327.582"/>
      <point x="19.9814" y="339.892"/>
      <point x="19.2803" y="353" type="curve" smooth="yes"/>
      <point x="18.9307" y="359.554"/>
      <point x="19.8164" y="366.246"/>
      <point x="22.4883" y="372.241" type="curve" smooth="yes"/>
      <point x="25.1602" y="378.236"/>
      <point x="29.6992" y="383.495"/>
      <point x="35.5605" y="386.448" type="curve" smooth="yes"/>
      <point x="39.8701" y="388.619"/>
      <point x="44.7285" y="389.493"/>
      <point x="49.5449" y="389.777" type="curve" smooth="yes"/>
      <point x="54.3623" y="390.062"/>
      <point x="59.1924" y="389.783"/>
    </contour>
    <contour>
      <point x="109.573" y="322.189" type="curve" smooth="yes"/>
      <point x="105.345" y="324.838"/>
      <point x="97.8857" y="326.29"/>
      <point x="92.2227" y="324.823" type="curve" smooth="yes"/>
      <point x="85.0547" y="322.968"/>
      <point x="78.4482" y="319.348"/>
      <point x="74.6377" y="311.252" type="curve" smooth="yes"/>
      <point x="70.8232" y="303.156"/>
      <point x="69.9453" y="293.898"/>
      <point x="70.9541" y="285.007" type="curve" smooth="yes"/>
      <point x="72.9707" y="267.226"/>
      <point x="82.0811" y="251.171"/>
      <point x="88.3447" y="234.407" type="curve" smooth="yes"/>
      <point x="103.854" y="192.898"/>
      <point x="101.66" y="145.841"/>
      <point x="86.2803" y="104.283" type="curve" smooth="yes"/>
      <point x="83.5566" y="96.9268"/>
      <point x="80.4014" y="89.5605"/>
      <point x="79.875" y="81.7334" type="curve" smooth="yes"/>
      <point x="79.6123" y="77.8203"/>
      <point x="80.0332" y="73.8232"/>
      <point x="81.4609" y="70.1699" type="curve" smooth="yes"/>
      <point x="82.8896" y="66.5176"/>
      <point x="85.3672" y="63.2236"/>
      <point x="88.6895" y="61.1387" type="curve" smooth="yes"/>
      <point x="92.1582" y="58.9609"/>
      <point x="96.4072" y="58.1895"/>
      <point x="100.483" y="58.5938" type="curve" smooth="yes"/>
      <point x="104.56" y="58.998"/>
      <point x="108.47" y="60.5254"/>
      <point x="111.983" y="62.6309" type="curve" smooth="yes"/>
      <point x="121.831" y="68.5293"/>
      <point x="128.513" y="78.8779"/>
      <point x="131.564" y="89.9443" type="curve" smooth="yes"/>
      <point x="134.615" y="101.01"/>
      <point x="134.307" y="112.77"/>
      <point x="132.487" y="124.104" type="curve" smooth="yes"/>
      <point x="128.85" y="146.771"/>
      <point x="119.298" y="168.536"/>
      <point x="118.982" y="191.492" type="curve" smooth="yes"/>
      <point x="118.694" y="212.49"/>
      <point x="126.158" y="232.719"/>
      <point x="130.004" y="253.363" type="curve" smooth="yes"/>
      <point x="131.929" y="263.686"/>
      <point x="132.949" y="274.277"/>
      <point x="131.626" y="284.693" type="curve" smooth="yes"/>
      <point x="130.303" y="295.109"/>
      <point x="126.514" y="305.39"/>
      <point x="119.671" y="313.354" type="curve" smooth="yes"/>
      <point x="116.747" y="316.757"/>
      <point x="113.306" y="319.699"/>
    </contour>
  </outline>
</glyph>
<glyph name="q" format="1">
  <advance width="244"/>
  <unicode hex="0071"/>
  <outline>
    <contour>
      <point x="129.821" y="392.155" type="curve" smooth="yes"/>
      <point x="146.975" y="397.491"/>
      <point x="166.099" y="396.196"/>
      <point x="182.376" y="388.599" type="curve" smooth="yes"/>
      <point x="195.116" y="382.651"/>
      <point x="206.002" y="373.016"/>
      <point x="214.083" y="361.51" type="curve" smooth="yes"/>
      <point x="222.162" y="350.003"/>
      <point x="227.487" y="336.67"/>
      <point x="230.313" y="322.896" type="curve" smooth="yes"/>
      <point x="235.964" y="295.351"/>
      <point x="231.696" y="266.63"/>
      <point x="223.887" y="239.615" type="curve" smooth="yes"/>
      <point x="216.078" y="212.602"/>
      <point x="204.799" y="186.723"/>
      <point x="196.029" y="160.005" type="curve" smooth="yes"/>
      <point x="187.259" y="133.287"/>
      <point x="180.969" y="105.167"/>
      <point x="183.638" y="77.1738" type="curve" smooth="yes"/>
      <point x="187.296" y="38.8115"/>
      <point x="207.347" y="3.9502"/>
      <point x="215.322" y="-33.752" type="curve" smooth="yes"/>
      <point x="219.311" y="-52.6025"/>
      <point x="220.179" y="-72.5273"/>
      <point x="214.418" y="-90.9141" type="curve" smooth="yes"/>
      <point x="211.538" y="-100.107"/>
      <point x="207.004" y="-108.824"/>
      <point x="200.784" y="-116.181" type="curve" smooth="yes"/>
      <point x="194.563" y="-123.538"/>
      <point x="186.633" y="-129.508"/>
      <point x="177.671" y="-133.044" type="curve" smooth="yes"/>
      <point x="169.107" y="-136.424"/>
      <point x="159.798" y="-137.538"/>
      <point x="150.591" y="-137.634" type="curve" smooth="yes"/>
      <point x="145.965" y="-137.682"/>
      <point x="141.312" y="-137.478"/>
      <point x="136.782" y="-136.545" type="curve" smooth="yes"/>
      <point x="132.251" y="-135.612"/>
      <point x="127.827" y="-133.927"/>
      <point x="124.084" y="-131.208" type="curve" smooth="yes"/>
      <point x="119.381" y="-127.792"/>
      <point x="115.902" y="-122.827"/>
      <point x="113.875" y="-117.379" type="curve" smooth="yes"/>
      <point x="111.849" y="-111.932"/>
      <point x="111.23" y="-106.018"/>
      <point x="111.635" y="-100.219" type="curve" smooth="yes"/>
      <point x="112.442" y="-88.6221"/>
      <point x="117.199" y="-77.7051"/>
      <point x="122.134" y="-67.1787" type="curve" smooth="yes"/>
      <point x="126.87" y="-57.0742"/>
      <point x="131.92" y="-46.7734"/>
      <point x="132.789" y="-35.6475" type="curve" smooth="yes"/>
      <point x="133.224" y="-30.084"/>
      <point x="132.563" y="-24.376"/>
      <point x="130.357" y="-19.25" type="curve" smooth="yes"/>
      <point x="128.153" y="-14.125"/>
      <point x="124.335" y="-9.61523"/>
      <point x="119.38" y="-7.05078" type="curve" smooth="yes"/>
      <point x="114.91" y="-4.73828"/>
      <point x="109.754" y="-4.08496"/>
      <point x="104.722" y="-4.12891" type="curve" smooth="yes"/>
      <point x="99.6904" y="-4.17285"/>
      <point x="94.6865" y="-4.87305"/>
      <point x="89.6602" y="-5.10059" type="curve" smooth="yes"/>
      <point x="68.3818" y="-6.06348"/>
      <point x="46.5166" y="2.11523"/>
      <point x="32.2861" y="17.9639" type="curve" smooth="yes"/>
      <point x="23.3477" y="27.9189"/>
      <point x="17.6074" y="40.4893"/>
      <point x="14.666" y="53.541" type="curve" smooth="yes"/>
      <point x="11.7246" y="66.5918"/>
      <point x="11.4854" y="80.1377"/>
      <point x="12.6543" y="93.4648" type="curve" smooth="yes"/>
      <point x="14.9932" y="120.12"/>
      <point x="22.8652" y="146.03"/>
      <point x="25.6309" y="172.644" type="curve" smooth="yes"/>
      <point x="29.417" y="209.078"/>
      <point x="23.5508" y="245.836"/>
      <point x="24.7744" y="282.447" type="curve" smooth="yes"/>
      <point x="25.3867" y="300.752"/>
      <point x="27.8115" y="319.143"/>
      <point x="33.9453" y="336.4" type="curve" smooth="yes"/>
      <point x="40.0801" y="353.658"/>
      <point x="50.0879" y="369.793"/>
      <point x="64.1865" y="381.484" type="curve" smooth="yes"/>
      <point x="69.3086" y="385.732"/>
      <point x="74.9541" y="389.381"/>
      <point x="81.0537" y="392.041" type="curve" smooth="yes"/>
      <point x="96.3779" y="398.725"/>
      <point x="114.467" y="398.767"/>
    </contour>
    <contour>
      <point x="131.169" y="316.519" type="curve" smooth="yes"/>
      <point x="127.942" y="321.164"/>
      <point x="120.93" y="325.709"/>
      <point x="114.492" y="326.979" type="curve" smooth="yes"/>
      <point x="110.584" y="327.748"/>
      <point x="106.566" y="326.642"/>
      <point x="102.716" y="324.945" type="curve" smooth="yes"/>
      <point x="98.8652" y="323.248"/>
      <point x="95.417" y="320.738"/>
      <point x="92.2988" y="317.913" type="curve" smooth="yes"/>
      <point x="82.2822" y="308.837"/>
      <point x="75.625" y="296.558"/>
      <point x="71.1924" y="283.787" type="curve" smooth="yes"/>
      <point x="66.7607" y="271.018"/>
      <point x="64.3945" y="257.644"/>
      <point x="61.7461" y="244.389" type="curve" smooth="yes"/>
      <point x="55.5566" y="213.41"/>
      <point x="47.6953" y="182.286"/>
      <point x="49.1143" y="150.729" type="curve" smooth="yes"/>
      <point x="49.8242" y="134.949"/>
      <point x="52.9141" y="119.158"/>
      <point x="59.4473" y="104.777" type="curve" smooth="yes"/>
      <point x="65.9795" y="90.3965"/>
      <point x="76.0703" y="77.4609"/>
      <point x="89.2012" y="68.6816" type="curve" smooth="yes"/>
      <point x="94.3965" y="65.208"/>
      <point x="100.134" y="62.3652"/>
      <point x="106.298" y="61.3379" type="curve" smooth="yes"/>
      <point x="111.341" y="60.4971"/>
      <point x="116.583" y="60.9062"/>
      <point x="121.445" y="62.4854" type="curve" smooth="yes"/>
      <point x="127.244" y="64.3682"/>
      <point x="132.462" y="67.8965"/>
      <point x="136.582" y="72.3916" type="curve" smooth="yes"/>
      <point x="140.701" y="76.8867"/>
      <point x="143.737" y="82.3281"/>
      <point x="145.67" y="88.1113" type="curve" smooth="yes"/>
      <point x="149.537" y="99.6758"/>
      <point x="148.977" y="112.347"/>
      <point x="146.222" y="124.226" type="curve" smooth="yes"/>
      <point x="140.711" y="147.983"/>
      <point x="126.809" y="169.297"/>
      <point x="122.478" y="193.298" type="curve" smooth="yes"/>
      <point x="118.013" y="218.04"/>
      <point x="124.093" y="243.384"/>
      <point x="131.106" y="267.528" type="curve" smooth="yes"/>
      <point x="134.25" y="278.352"/>
      <point x="137.627" y="289.459"/>
      <point x="136.555" y="300.679" type="curve" smooth="yes"/>
      <point x="136.019" y="306.289"/>
      <point x="134.327" y="311.852"/>
    </contour>
  </outline>
</glyph>
<glyph name="r" format="1">
  <advance width="200"/>
  <unicode hex="0072"/>
  <outline>
    <contour>
      <point x="97.3945" y="14.7578" type="curve" smooth="yes"/>
      <point x="93.5693" y="7.15332"/>
      <point x="86.5176" y="0.166992"/>
      <point x="78.8145" y="-4.17188" type="curve" smooth="yes"/>
      <point x="72.0391" y="-7.98926"/>
      <point x="64.415" y="-8.65234"/>
      <point x="56.1055" y="-9.52148" type="curve" smooth="yes"/>
      <point x="51.6299" y="-9.98926"/>
      <point x="47.1055" y="-10.4277"/>
      <point x="42.6396" y="-9.86523" type="curve" smooth="yes"/>
      <point x="38.1738" y="-9.30273"/>
      <point x="33.7129" y="-7.64746"/>
      <point x="30.5391" y="-4.45703" type="curve" smooth="yes"/>
      <point x="28.5801" y="-2.4873"/>
      <point x="27.1855" y="-0.0126953"/>
      <point x="26.1924" y="2.58203" type="curve" smooth="yes"/>
      <point x="25.1982" y="5.17578"/>
      <point x="24.5869" y="7.89844"/>
      <point x="24.0332" y="10.6201" type="curve" smooth="yes"/>
      <point x="12.6729" y="66.4229"/>
      <point x="24.0225" y="124.036"/>
      <point x="24.5332" y="180.98" type="curve" smooth="yes"/>
      <point x="25.0898" y="243.204"/>
      <point x="12.7539" y="306.66"/>
      <point x="28.1719" y="366.946" type="curve" smooth="yes"/>
      <point x="28.9053" y="369.813"/>
      <point x="29.7217" y="372.714"/>
      <point x="31.3125" y="375.208" type="curve" smooth="yes"/>
      <point x="33.6738" y="378.911"/>
      <point x="37.624" y="381.439"/>
      <point x="41.8584" y="382.601" type="curve" smooth="yes"/>
      <point x="46.0938" y="383.763"/>
      <point x="50.6006" y="383.644"/>
      <point x="54.9199" y="382.85" type="curve" smooth="yes"/>
      <point x="63.5586" y="381.261"/>
      <point x="71.5186" y="377.068"/>
      <point x="80.083" y="375.12" type="curve" smooth="yes"/>
      <point x="90.3926" y="372.776"/>
      <point x="101.122" y="373.769"/>
      <point x="111.672" y="374.437" type="curve" smooth="yes"/>
      <point x="122.223" y="375.104"/>
      <point x="133.11" y="375.387"/>
      <point x="143.034" y="371.743" type="curve" smooth="yes"/>
      <point x="152.17" y="368.389"/>
      <point x="159.885" y="361.879"/>
      <point x="166.047" y="354.346" type="curve" smooth="yes"/>
      <point x="172.209" y="346.812"/>
      <point x="176.952" y="338.24"/>
      <point x="181.582" y="329.681" type="curve" smooth="yes"/>
      <point x="188.191" y="317.463"/>
      <point x="194.759" y="304.799"/>
      <point x="196.364" y="291.002" type="curve" smooth="yes"/>
      <point x="197.167" y="284.103"/>
      <point x="196.674" y="276.991"/>
      <point x="194.358" y="270.443" type="curve" smooth="yes"/>
      <point x="192.042" y="263.896"/>
      <point x="187.836" y="257.938"/>
      <point x="182.095" y="254.029" type="curve" smooth="yes"/>
      <point x="175.314" y="249.413"/>
      <point x="166.947" y="247.901"/>
      <point x="158.835" y="246.69" type="curve" smooth="yes"/>
      <point x="154.683" y="246.07"/>
      <point x="150.471" y="245.5"/>
      <point x="146.296" y="245.954" type="curve" smooth="yes"/>
      <point x="142.122" y="246.409"/>
      <point x="137.929" y="247.997"/>
      <point x="135.097" y="251.097" type="curve" smooth="yes"/>
      <point x="132.565" y="253.868"/>
      <point x="131.324" y="257.612"/>
      <point x="130.858" y="261.337" type="curve" smooth="yes"/>
      <point x="130.393" y="265.062"/>
      <point x="130.63" y="268.832"/>
      <point x="130.688" y="272.585" type="curve" smooth="yes"/>
      <point x="130.83" y="281.731"/>
      <point x="129.809" y="291.133"/>
      <point x="125.651" y="299.281" type="curve" smooth="yes"/>
      <point x="123.573" y="303.354"/>
      <point x="120.716" y="307.062"/>
      <point x="117.128" y="309.897" type="curve" smooth="yes"/>
      <point x="113.539" y="312.733"/>
      <point x="109.205" y="314.675"/>
      <point x="104.661" y="315.195" type="curve" smooth="yes"/>
      <point x="100.039" y="315.725"/>
      <point x="95.3467" y="314.788"/>
      <point x="90.9717" y="313.202" type="curve" smooth="yes"/>
      <point x="76.9717" y="308.126"/>
      <point x="65.9268" y="296.392"/>
      <point x="59.9854" y="282.736" type="curve" smooth="yes"/>
      <point x="54.0439" y="269.081"/>
      <point x="52.8906" y="253.672"/>
      <point x="54.8438" y="238.908" type="curve" smooth="yes"/>
      <point x="58.75" y="209.382"/>
      <point x="74.3232" y="182.935"/>
      <point x="86.0176" y="155.542" type="curve" smooth="yes"/>
      <point x="101.643" y="118.939"/>
      <point x="110.646" y="78.4912"/>
      <point x="104.543" y="39.1631" type="curve" smooth="yes"/>
      <point x="103.237" y="30.752"/>
      <point x="101.221" y="22.3613"/>
    </contour>
  </outline>
</glyph>
<glyph name="s" format="1">
  <advance width="207"/>
  <unicode hex="0073"/>
  <outline>
    <contour>
      <point x="175.73" y="26.9648" type="curve" smooth="yes"/>
      <point x="167.503" y="9.9209"/>
      <point x="155.18" y="-7.63184"/>
      <point x="138.049" y="-15.918" type="curve" smooth="yes"/>
      <point x="120.464" y="-24.4238"/>
      <point x="98.8672" y="-25.6797"/>
      <point x="79.5225" y="-18.9141" type="curve" smooth="yes"/>
      <point x="60.1777" y="-12.1494"/>
      <point x="43.6855" y="1.50977"/>
      <point x="31.4688" y="17.9639" type="curve" smooth="yes"/>
      <point x="20.2373" y="33.0918"/>
      <point x="12.2793" y="51.0547"/>
      <point x="11.1406" y="69.8613" type="curve" smooth="yes"/>
      <point x="10.5703" y="79.2646"/>
      <point x="11.7188" y="88.8008"/>
      <point x="14.8145" y="97.6982" type="curve" smooth="yes"/>
      <point x="17.9111" y="106.596"/>
      <point x="22.9746" y="114.841"/>
      <point x="29.7402" y="121.396" type="curve" smooth="yes"/>
      <point x="36.3555" y="127.808"/>
      <point x="44.7588" y="132.621"/>
      <point x="53.8887" y="133.853" type="curve" smooth="yes"/>
      <point x="58.4531" y="134.469"/>
      <point x="63.1553" y="134.179"/>
      <point x="67.5654" y="132.851" type="curve" smooth="yes"/>
      <point x="71.9756" y="131.521"/>
      <point x="76.0859" y="129.144"/>
      <point x="79.3223" y="125.865" type="curve" smooth="yes"/>
      <point x="84.3428" y="120.781"/>
      <point x="87.0625" y="113.752"/>
      <point x="87.9629" y="106.663" type="curve" smooth="yes"/>
      <point x="88.8633" y="99.5742"/>
      <point x="88.0703" y="92.377"/>
      <point x="86.8574" y="85.335" type="curve" smooth="yes"/>
      <point x="85.6084" y="78.083"/>
      <point x="83.9072" y="70.7988"/>
      <point x="84.4023" y="63.457" type="curve" smooth="yes"/>
      <point x="84.6494" y="59.7861"/>
      <point x="85.4609" y="56.124"/>
      <point x="87.083" y="52.8213" type="curve" smooth="yes"/>
      <point x="88.7051" y="49.5195"/>
      <point x="91.168" y="46.5869"/>
      <point x="94.3145" y="44.6807" type="curve" smooth="yes"/>
      <point x="97.7734" y="42.5859"/>
      <point x="101.944" y="41.8066"/>
      <point x="105.974" y="42.1406" type="curve" smooth="yes"/>
      <point x="110.004" y="42.4756"/>
      <point x="113.897" y="43.8809"/>
      <point x="117.417" y="45.873" type="curve" smooth="yes"/>
      <point x="124.326" y="49.7832"/>
      <point x="129.848" y="55.9678"/>
      <point x="133.371" y="63.082" type="curve" smooth="yes"/>
      <point x="136.896" y="70.1963"/>
      <point x="138.465" y="78.207"/>
      <point x="138.354" y="86.1455" type="curve" smooth="yes"/>
      <point x="138.134" y="102.023"/>
      <point x="131.355" y="117.184"/>
      <point x="122.456" y="130.334" type="curve" smooth="yes"/>
      <point x="119.459" y="134.764"/>
      <point x="116.211" y="139.022"/>
      <point x="112.731" y="143.084" type="curve" smooth="yes"/>
      <point x="103.479" y="153.887"/>
      <point x="92.6562" y="163.234"/>
      <point x="81.5205" y="172.083" type="curve" smooth="yes"/>
      <point x="70.6162" y="180.749"/>
      <point x="59.3027" y="189.04"/>
      <point x="49.8545" y="199.274" type="curve" smooth="yes"/>
      <point x="33.623" y="216.854"/>
      <point x="23.5078" y="239.901"/>
      <point x="21.1797" y="263.716" type="curve" smooth="yes"/>
      <point x="18.8525" y="287.53"/>
      <point x="24.2646" y="311.984"/>
      <point x="36.0947" y="332.782" type="curve" smooth="yes"/>
      <point x="43.4609" y="345.732"/>
      <point x="53.3154" y="357.34"/>
      <point x="65.3154" y="366.169" type="curve" smooth="yes"/>
      <point x="77.3145" y="374.999"/>
      <point x="91.4844" y="380.995"/>
      <point x="106.274" y="382.795" type="curve" smooth="yes"/>
      <point x="115.939" y="383.972"/>
      <point x="125.919" y="383.338"/>
      <point x="135.1" y="380.094" type="curve" smooth="yes"/>
      <point x="151.424" y="374.325"/>
      <point x="163.822" y="360.971"/>
      <point x="174.378" y="347.248" type="curve" smooth="yes"/>
      <point x="184.35" y="334.284"/>
      <point x="193.527" y="320.041"/>
      <point x="196.393" y="303.938" type="curve" smooth="yes"/>
      <point x="197.824" y="295.888"/>
      <point x="197.602" y="287.472"/>
      <point x="195.125" y="279.678" type="curve" smooth="yes"/>
      <point x="192.649" y="271.884"/>
      <point x="187.845" y="264.747"/>
      <point x="181.175" y="260.016" type="curve" smooth="yes"/>
      <point x="174.179" y="255.054"/>
      <point x="165.398" y="252.917"/>
      <point x="156.827" y="253.244" type="curve" smooth="yes"/>
      <point x="148.271" y="253.571"/>
      <point x="139.725" y="256.345"/>
      <point x="133.004" y="261.649" type="curve" smooth="yes"/>
      <point x="126.283" y="266.954"/>
      <point x="121.52" y="274.864"/>
      <point x="120.62" y="283.379" type="curve" smooth="yes"/>
      <point x="120.121" y="288.099"/>
      <point x="120.779" y="292.861"/>
      <point x="120.659" y="297.606" type="curve" smooth="yes"/>
      <point x="120.599" y="299.979"/>
      <point x="120.341" y="302.36"/>
      <point x="119.658" y="304.633" type="curve" smooth="yes"/>
      <point x="118.975" y="306.906"/>
      <point x="117.853" y="309.072"/>
      <point x="116.214" y="310.788" type="curve" smooth="yes"/>
      <point x="114.65" y="312.425"/>
      <point x="112.642" y="313.617"/>
      <point x="110.48" y="314.287" type="curve" smooth="yes"/>
      <point x="108.318" y="314.957"/>
      <point x="106.008" y="315.111"/>
      <point x="103.764" y="314.818" type="curve" smooth="yes"/>
      <point x="99.2754" y="314.232"/>
      <point x="95.1426" y="311.882"/>
      <point x="91.8564" y="308.769" type="curve" smooth="yes"/>
      <point x="85.4287" y="302.678"/>
      <point x="82.1201" y="293.746"/>
      <point x="81.8037" y="284.896" type="curve" smooth="yes"/>
      <point x="81.4883" y="276.045"/>
      <point x="83.9619" y="267.269"/>
      <point x="87.7275" y="259.253" type="curve" smooth="yes"/>
      <point x="94.8174" y="244.161"/>
      <point x="106.297" y="231.623"/>
      <point x="117.979" y="219.726" type="curve" smooth="yes"/>
      <point x="140.721" y="196.56"/>
      <point x="165.465" y="174.057"/>
      <point x="179.128" y="144.608" type="curve" smooth="yes"/>
      <point x="187.659" y="126.222"/>
      <point x="191.44" y="105.731"/>
      <point x="190.648" y="85.4766" type="curve" smooth="yes"/>
      <point x="189.857" y="65.2227"/>
      <point x="184.542" y="45.2197"/>
    </contour>
  </outline>
</glyph>
<glyph name="t" format="1">
  <advance width="129"/>
  <unicode hex="0074"/>
  <outline>
    <contour>
      <point x="118.569" y="23.9033" type="curve" smooth="yes"/>
      <point x="120.947" y="13.2148"/>
      <point x="121.946" y="-3.82129"/>
      <point x="112.831" y="-11.6152" type="curve" smooth="yes"/>
      <point x="99.5049" y="-23.0117"/>
      <point x="76.6484" y="-19.4922"/>
      <point x="60.2285" y="-11.8438" type="curve" smooth="yes"/>
      <point x="54.21" y="-9.04004"/>
      <point x="48.5518" y="-5.16309"/>
      <point x="44.6084" y="0.178711" type="curve" smooth="yes"/>
      <point x="40.7666" y="5.38184"/>
      <point x="38.7441" y="11.6895"/>
      <point x="37.1729" y="17.9629" type="curve" smooth="yes"/>
      <point x="29.4453" y="48.833"/>
      <point x="31.2559" y="81.2236"/>
      <point x="34.166" y="112.913" type="curve" smooth="yes"/>
      <point x="37.0771" y="144.603"/>
      <point x="41.0381" y="176.519"/>
      <point x="37.4561" y="208.139" type="curve" smooth="yes"/>
      <point x="33.4424" y="243.572"/>
      <point x="20.0869" y="277.357"/>
      <point x="14.9814" y="312.65" type="curve" smooth="yes"/>
      <point x="12.4287" y="330.296"/>
      <point x="11.9785" y="348.43"/>
      <point x="15.8174" y="365.842" type="curve" smooth="yes"/>
      <point x="19.6562" y="383.253"/>
      <point x="28.002" y="399.957"/>
      <point x="41.1396" y="412.012" type="curve" smooth="yes"/>
      <point x="44.7568" y="415.331"/>
      <point x="48.7051" y="418.277"/>
      <point x="52.8057" y="420.978" type="curve" smooth="yes"/>
      <point x="59.3076" y="425.261"/>
      <point x="66.1914" y="428.93"/>
      <point x="73.0137" y="432.685" type="curve" smooth="yes"/>
      <point x="75.7578" y="434.195"/>
      <point x="78.5176" y="435.73"/>
      <point x="81.5059" y="436.672" type="curve" smooth="yes"/>
      <point x="84.4941" y="437.612"/>
      <point x="87.7676" y="437.928"/>
      <point x="90.75" y="436.97" type="curve" smooth="yes"/>
      <point x="93.7041" y="436.021"/>
      <point x="96.1963" y="433.855"/>
      <point x="97.7979" y="431.198" type="curve" smooth="yes"/>
      <point x="99.3994" y="428.541"/>
      <point x="100.145" y="425.421"/>
      <point x="100.22" y="422.318" type="curve" smooth="yes"/>
      <point x="100.364" y="416.115"/>
      <point x="97.9209" y="410.172"/>
      <point x="95.3906" y="404.506" type="curve" smooth="yes"/>
      <point x="93.3848" y="400.017"/>
      <point x="91.2734" y="395.484"/>
      <point x="90.5791" y="390.616" type="curve" smooth="yes"/>
      <point x="90.2334" y="388.183"/>
      <point x="90.252" y="385.681"/>
      <point x="90.8232" y="383.289" type="curve" smooth="yes"/>
      <point x="91.3936" y="380.897"/>
      <point x="92.5303" y="378.619"/>
      <point x="94.2373" y="376.851" type="curve" smooth="yes"/>
      <point x="96.9297" y="374.061"/>
      <point x="100.76" y="372.746"/>
      <point x="104.411" y="371.444" type="curve" smooth="yes"/>
      <point x="106.237" y="370.794"/>
      <point x="108.063" y="370.119"/>
      <point x="109.773" y="369.206" type="curve" smooth="yes"/>
      <point x="111.483" y="368.293"/>
      <point x="113.084" y="367.127"/>
      <point x="114.302" y="365.619" type="curve" smooth="yes"/>
      <point x="115.495" y="364.142"/>
      <point x="116.292" y="362.369"/>
      <point x="116.76" y="360.528" type="curve" smooth="yes"/>
      <point x="117.226" y="358.688"/>
      <point x="117.382" y="356.776"/>
      <point x="117.347" y="354.878" type="curve" smooth="yes"/>
      <point x="117.297" y="351.08"/>
      <point x="116.58" y="347.317"/>
      <point x="116.479" y="343.521" type="curve" smooth="yes"/>
      <point x="116.381" y="339.76"/>
      <point x="116.892" y="336.008"/>
      <point x="116.891" y="332.246" type="curve" smooth="yes"/>
      <point x="116.891" y="328.484"/>
      <point x="116.328" y="324.59"/>
      <point x="114.302" y="321.421" type="curve" smooth="yes"/>
      <point x="112.151" y="318.059"/>
      <point x="108.585" y="315.867"/>
      <point x="104.958" y="314.202" type="curve" smooth="yes"/>
      <point x="101.33" y="312.536"/>
      <point x="97.5" y="311.269"/>
      <point x="94.1064" y="309.167" type="curve" smooth="yes"/>
      <point x="89.1094" y="306.072"/>
      <point x="85.2881" y="301.264"/>
      <point x="82.9102" y="295.889" type="curve" smooth="yes"/>
      <point x="80.5312" y="290.514"/>
      <point x="79.5449" y="284.593"/>
      <point x="79.499" y="278.715" type="curve" smooth="yes"/>
      <point x="79.4141" y="266.961"/>
      <point x="83" y="255.541"/>
      <point x="85.8037" y="244.125" type="curve" smooth="yes"/>
      <point x="91.2051" y="222.13"/>
      <point x="93.7832" y="199.44"/>
      <point x="93.4043" y="176.796" type="curve" smooth="yes"/>
      <point x="92.958" y="150.146"/>
      <point x="88.4326" y="123.677"/>
      <point x="81.666" y="97.8965" type="curve" smooth="yes"/>
      <point x="79.1143" y="88.1748"/>
      <point x="76.2158" y="78.2793"/>
      <point x="77.0186" y="68.2598" type="curve" smooth="yes"/>
      <point x="77.4189" y="63.25"/>
      <point x="78.7793" y="58.2646"/>
      <point x="81.4053" y="53.9805" type="curve" smooth="yes"/>
      <point x="84.0322" y="49.6953"/>
      <point x="87.9795" y="46.1465"/>
      <point x="92.7012" y="44.4238" type="curve" smooth="yes"/>
      <point x="96.4883" y="43.043"/>
      <point x="100.637" y="42.8545"/>
      <point x="104.394" y="41.3945" type="curve" smooth="yes"/>
      <point x="108.018" y="39.9854"/>
      <point x="111.136" y="37.4238"/>
      <point x="113.495" y="34.333" type="curve" smooth="yes"/>
      <point x="115.854" y="31.2422"/>
      <point x="117.481" y="27.6367"/>
    </contour>
  </outline>
</glyph>
<glyph name="u" format="1">
  <advance width="237"/>
  <unicode hex="0075"/>
  <outline>
    <contour>
      <point x="183.712" y="9.12988" type="curve" smooth="yes"/>
      <point x="183.71" y="9.12988" type="line"/>
      <point x="186.122" y="9.12988"/>
      <point x="188.521" y="8.38281"/>
      <point x="190.537" y="7.05957" type="curve" smooth="yes"/>
      <point x="192.554" y="5.7373"/>
      <point x="194.186" y="3.84766"/>
      <point x="195.251" y="1.68359" type="curve" smooth="yes"/>
      <point x="196.316" y="-0.479492"/>
      <point x="196.818" y="-2.91016"/>
      <point x="196.754" y="-5.32129" type="curve" smooth="yes"/>
      <point x="196.689" y="-7.73145"/>
      <point x="196.062" y="-10.1201"/>
      <point x="194.984" y="-12.2773" type="curve" smooth="yes"/>
      <point x="192.829" y="-16.5918"/>
      <point x="188.893" y="-19.8984"/>
      <point x="184.41" y="-21.6826" type="curve" smooth="yes"/>
      <point x="179.93" y="-23.4668"/>
      <point x="174.941" y="-23.7891"/>
      <point x="170.178" y="-23.0322" type="curve" smooth="yes"/>
      <point x="160.65" y="-21.5186"/>
      <point x="152.309" y="-15.9316"/>
      <point x="144.65" y="-10.0645" type="curve" smooth="yes"/>
      <point x="136.993" y="-4.19824"/>
      <point x="129.507" y="2.18945"/>
      <point x="120.552" y="5.77539" type="curve" smooth="yes"/>
      <point x="112.365" y="9.05469"/>
      <point x="103.424" y="9.79883"/>
      <point x="94.6445" y="10.6201" type="curve" smooth="yes"/>
      <point x="85.8643" y="11.4414"/>
      <point x="76.9111" y="12.4248"/>
      <point x="68.9033" y="16.1172" type="curve" smooth="yes"/>
      <point x="60.9766" y="19.7725"/>
      <point x="54.373" y="25.9541"/>
      <point x="49.4121" y="33.1367" type="curve" smooth="yes"/>
      <point x="44.4512" y="40.3184"/>
      <point x="41.0576" y="48.4844"/>
      <point x="38.5391" y="56.8418" type="curve" smooth="yes"/>
      <point x="30.3428" y="84.0449"/>
      <point x="31.2363" y="113.074"/>
      <point x="33.0908" y="141.425" type="curve" smooth="yes"/>
      <point x="34.9473" y="169.774"/>
      <point x="37.6777" y="198.43"/>
      <point x="32.9473" y="226.444" type="curve" smooth="yes"/>
      <point x="28.4014" y="253.368"/>
      <point x="17.084" y="278.854"/>
      <point x="13.2588" y="305.889" type="curve" smooth="yes"/>
      <point x="11.3467" y="319.407"/>
      <point x="11.3652" y="333.367"/>
      <point x="15.0518" y="346.513" type="curve" smooth="yes"/>
      <point x="18.7373" y="359.659"/>
      <point x="26.3076" y="371.966"/>
      <point x="37.4473" y="379.859" type="curve" smooth="yes"/>
      <point x="44.4561" y="384.825"/>
      <point x="52.7959" y="387.96"/>
      <point x="61.3652" y="388.551" type="curve" smooth="yes"/>
      <point x="69.9355" y="389.142"/>
      <point x="78.707" y="387.147"/>
      <point x="86.0342" y="382.665" type="curve" smooth="yes"/>
      <point x="88.1279" y="381.383"/>
      <point x="90.1006" y="379.907"/>
      <point x="91.9736" y="378.321" type="curve" smooth="yes"/>
      <point x="102.332" y="369.552"/>
      <point x="109.581" y="357.409"/>
      <point x="113.459" y="344.403" type="curve" smooth="yes"/>
      <point x="117.337" y="331.397"/>
      <point x="117.952" y="317.552"/>
      <point x="116.362" y="304.073" type="curve" smooth="yes"/>
      <point x="113.185" y="277.116"/>
      <point x="101.501" y="252.021"/>
      <point x="90.4961" y="227.208" type="curve" smooth="yes"/>
      <point x="78.9072" y="201.081"/>
      <point x="67.7412" y="173.993"/>
      <point x="66.4785" y="145.438" type="curve" smooth="yes"/>
      <point x="65.8477" y="131.162"/>
      <point x="67.7783" y="116.659"/>
      <point x="73.1943" y="103.435" type="curve" smooth="yes"/>
      <point x="78.6104" y="90.209"/>
      <point x="87.624" y="78.3096"/>
      <point x="99.5391" y="70.418" type="curve" smooth="yes"/>
      <point x="103.29" y="67.9336"/>
      <point x="107.35" y="65.835"/>
      <point x="111.714" y="64.7393" type="curve" smooth="yes"/>
      <point x="114.665" y="63.999"/>
      <point x="117.839" y="63.7373"/>
      <point x="120.712" y="64.7393" type="curve" smooth="yes"/>
      <point x="124.084" y="65.916"/>
      <point x="126.719" y="68.7822"/>
      <point x="128.057" y="72.0938" type="curve" smooth="yes"/>
      <point x="129.395" y="75.4062"/>
      <point x="129.523" y="79.1182"/>
      <point x="128.903" y="82.6357" type="curve" smooth="yes"/>
      <point x="127.662" y="89.6709"/>
      <point x="123.619" y="95.8359"/>
      <point x="120.748" y="102.377" type="curve" smooth="yes"/>
      <point x="115.402" y="114.558"/>
      <point x="114.116" y="128.237"/>
      <point x="115.314" y="141.486" type="curve" smooth="yes"/>
      <point x="116.513" y="154.734"/>
      <point x="120.1" y="167.648"/>
      <point x="124.179" y="180.311" type="curve" smooth="yes"/>
      <point x="132.336" y="205.634"/>
      <point x="142.677" y="231.381"/>
      <point x="140.218" y="257.872" type="curve" smooth="yes"/>
      <point x="138.238" y="279.196"/>
      <point x="128.088" y="298.876"/>
      <point x="123.623" y="319.821" type="curve" smooth="yes"/>
      <point x="121.391" y="330.294"/>
      <point x="120.607" y="341.251"/>
      <point x="123.029" y="351.682" type="curve" smooth="yes"/>
      <point x="125.451" y="362.112"/>
      <point x="131.336" y="372"/>
      <point x="140.332" y="377.808" type="curve" smooth="yes"/>
      <point x="147.816" y="382.639"/>
      <point x="156.816" y="384.367"/>
      <point x="165.179" y="387.438" type="curve" smooth="yes"/>
      <point x="169.485" y="389.021"/>
      <point x="173.719" y="390.992"/>
      <point x="178.269" y="391.579" type="curve" smooth="yes"/>
      <point x="180.545" y="391.872"/>
      <point x="182.887" y="391.806"/>
      <point x="185.092" y="391.169" type="curve" smooth="yes"/>
      <point x="187.295" y="390.532"/>
      <point x="189.356" y="389.301"/>
      <point x="190.802" y="387.52" type="curve" smooth="yes"/>
      <point x="192.758" y="385.108"/>
      <point x="193.442" y="381.939"/>
      <point x="194.078" y="378.9" type="curve" smooth="yes"/>
      <point x="208.521" y="309.868"/>
      <point x="227.965" y="240.865"/>
      <point x="226.447" y="170.355" type="curve" smooth="yes"/>
      <point x="225.24" y="114.243"/>
      <point x="210.458" y="58.4717"/>
    </contour>
  </outline>
</glyph>
<glyph name="v" format="1">
  <advance width="197"/>
  <unicode hex="0076"/>
  <outline>
    <contour>
      <point x="115.085" y="6.45117" type="curve" smooth="yes"/>
      <point x="115.085" y="6.44824" type="line" smooth="yes"/>
      <point x="115.085" y="3.28516"/>
      <point x="114.251" y="0.136719"/>
      <point x="112.759" y="-2.65137" type="curve" smooth="yes"/>
      <point x="111.268" y="-5.43945"/>
      <point x="109.125" y="-7.86719"/>
      <point x="106.593" y="-9.76074" type="curve" smooth="yes"/>
      <point x="101.529" y="-13.5498"/>
      <point x="94.9912" y="-15.1221"/>
      <point x="88.6816" y="-14.6816" type="curve" smooth="yes"/>
      <point x="82.373" y="-14.2412"/>
      <point x="76.291" y="-11.8848"/>
      <point x="70.9502" y="-8.49707" type="curve" smooth="yes"/>
      <point x="65.6094" y="-5.10938"/>
      <point x="60.9688" y="-0.714844"/>
      <point x="56.7686" y="4.0127" type="curve" smooth="yes"/>
      <point x="53.2256" y="7.99902"/>
      <point x="49.9121" y="12.3496"/>
      <point x="48.2334" y="17.4121" type="curve" smooth="yes"/>
      <point x="46.376" y="23.0166"/>
      <point x="46.6533" y="29.0684"/>
      <point x="46.7764" y="34.9717" type="curve" smooth="yes"/>
      <point x="47.8457" y="84.9062"/>
      <point x="36.8525" y="134.191"/>
      <point x="30.1514" y="183.685" type="curve" smooth="yes"/>
      <point x="26.2686" y="212.355"/>
      <point x="23.8213" y="241.198"/>
      <point x="20.8164" y="269.975" type="curve" smooth="yes"/>
      <point x="19.5391" y="282.216"/>
      <point x="18.1602" y="294.446"/>
      <point x="16.9541" y="306.694" type="curve" smooth="yes"/>
      <point x="15.3916" y="322.576"/>
      <point x="14.1182" y="338.498"/>
      <point x="11.7891" y="354.286" type="curve" smooth="yes"/>
      <point x="11.042" y="359.351"/>
      <point x="10.1846" y="364.416"/>
      <point x="10.0254" y="369.533" type="curve" smooth="yes"/>
      <point x="9.86621" y="374.65"/>
      <point x="10.4326" y="379.866"/>
      <point x="12.4297" y="384.58" type="curve" smooth="yes"/>
      <point x="14.5732" y="389.635"/>
      <point x="18.3477" y="393.966"/>
      <point x="23.0088" y="396.865" type="curve" smooth="yes"/>
      <point x="27.6709" y="399.765"/>
      <point x="33.1934" y="401.233"/>
      <point x="38.6826" y="401.135" type="curve" smooth="yes"/>
      <point x="44.1719" y="401.036"/>
      <point x="49.6113" y="399.383"/>
      <point x="54.2812" y="396.497" type="curve" smooth="yes"/>
      <point x="58.9521" y="393.612"/>
      <point x="62.8496" y="389.511"/>
      <point x="65.582" y="384.749" type="curve" smooth="yes"/>
      <point x="68.9453" y="378.889"/>
      <point x="70.5186" y="372.165"/>
      <point x="71.3721" y="365.462" type="curve" smooth="yes"/>
      <point x="72.2256" y="358.76"/>
      <point x="72.4004" y="351.986"/>
      <point x="73.1914" y="345.275" type="curve" smooth="yes"/>
      <point x="74.8301" y="331.367"/>
      <point x="79.0869" y="317.921"/>
      <point x="82.0664" y="304.237" type="curve" smooth="yes"/>
      <point x="85.0469" y="290.554"/>
      <point x="86.7324" y="276.188"/>
      <point x="83.2188" y="262.632" type="curve" smooth="yes"/>
      <point x="81.3672" y="255.492"/>
      <point x="78.0938" y="248.652"/>
      <point x="77.5273" y="241.298" type="curve" smooth="yes"/>
      <point x="77.2441" y="237.621"/>
      <point x="77.6748" y="233.829"/>
      <point x="79.248" y="230.493" type="curve" smooth="yes"/>
      <point x="80.8213" y="227.157"/>
      <point x="83.6162" y="224.317"/>
      <point x="87.1094" y="223.134" type="curve" smooth="yes"/>
      <point x="90.7881" y="221.889"/>
      <point x="94.8887" y="222.558"/>
      <point x="98.4629" y="224.077" type="curve" smooth="yes"/>
      <point x="104.286" y="226.552"/>
      <point x="109.053" y="231.208"/>
      <point x="112.176" y="236.711" type="curve" smooth="yes"/>
      <point x="115.298" y="242.214"/>
      <point x="116.84" y="248.525"/>
      <point x="117.196" y="254.843" type="curve" smooth="yes"/>
      <point x="117.91" y="267.477"/>
      <point x="114.047" y="279.86"/>
      <point x="110.502" y="292.008" type="curve" smooth="yes"/>
      <point x="105.219" y="310.114"/>
      <point x="100.514" y="329.001"/>
      <point x="103.216" y="347.669" type="curve" smooth="yes"/>
      <point x="104.567" y="357.003"/>
      <point x="107.824" y="366.15"/>
      <point x="113.359" y="373.786" type="curve" smooth="yes"/>
      <point x="118.895" y="381.422"/>
      <point x="126.789" y="387.476"/>
      <point x="135.852" y="390.085" type="curve" smooth="yes"/>
      <point x="145.146" y="392.762"/>
      <point x="155.095" y="391.76"/>
      <point x="164.59" y="389.92" type="curve" smooth="yes"/>
      <point x="168.975" y="389.07"/>
      <point x="173.355" y="388.038"/>
      <point x="177.444" y="386.242" type="curve" smooth="yes"/>
      <point x="181.533" y="384.446"/>
      <point x="185.345" y="381.842"/>
      <point x="188.039" y="378.28" type="curve" smooth="yes"/>
      <point x="190.943" y="374.442"/>
      <point x="192.425" y="369.64"/>
      <point x="192.688" y="364.834" type="curve" smooth="yes"/>
      <point x="192.952" y="360.029"/>
      <point x="192.051" y="355.213"/>
      <point x="190.551" y="350.641" type="curve" smooth="yes"/>
      <point x="187.551" y="341.495"/>
      <point x="182.223" y="333.303"/>
      <point x="178.487" y="324.433" type="curve" smooth="yes"/>
      <point x="171.041" y="306.747"/>
      <point x="170.182" y="287.121"/>
      <point x="167.355" y="268.142" type="curve" smooth="yes"/>
      <point x="165.89" y="258.291"/>
      <point x="163.871" y="248.531"/>
      <point x="161.915" y="238.767" type="curve" smooth="yes"/>
      <point x="158.853" y="223.483"/>
      <point x="155.938" y="208.171"/>
      <point x="152.979" y="192.867" type="curve" smooth="yes"/>
      <point x="148.125" y="167.775"/>
      <point x="143.146" y="142.708"/>
      <point x="138.419" y="117.593" type="curve" smooth="yes"/>
      <point x="134.846" y="98.6104"/>
      <point x="131.417" y="79.5986"/>
      <point x="127.532" y="60.6777" type="curve" smooth="yes"/>
      <point x="123.802" y="42.5098"/>
      <point x="119.651" y="24.4277"/>
    </contour>
  </outline>
</glyph>
<glyph name="w" format="1">
  <advance width="336"/>
  <unicode hex="0077"/>
  <outline>
    <contour>
      <point x="147.476" y="384.366" type="curve" smooth="yes"/>
      <point x="147.477" y="384.367" type="line"/>
      <point x="153.524" y="384.413"/>
      <point x="159.574" y="384.222"/>
      <point x="165.606" y="383.793" type="curve" smooth="yes"/>
      <point x="166.371" y="383.739"/>
      <point x="167.136" y="383.681"/>
      <point x="167.901" y="383.68" type="curve" smooth="yes"/>
      <point x="168.668" y="383.678"/>
      <point x="169.433" y="383.733"/>
      <point x="170.196" y="383.793" type="curve" smooth="yes"/>
      <point x="179.813" y="384.553"/>
      <point x="189.616" y="386.148"/>
      <point x="198.998" y="383.907" type="curve" smooth="yes"/>
      <point x="208.251" y="381.697"/>
      <point x="216.418" y="375.776"/>
      <point x="222.104" y="368.148" type="curve" smooth="yes"/>
      <point x="227.788" y="360.521"/>
      <point x="231.086" y="351.271"/>
      <point x="232.385" y="341.847" type="curve" smooth="yes"/>
      <point x="234.982" y="322.997"/>
      <point x="229.85" y="304.016"/>
      <point x="224.357" y="285.798" type="curve" smooth="yes"/>
      <point x="220.7" y="273.667"/>
      <point x="216.819" y="261.263"/>
      <point x="217.557" y="248.614" type="curve" smooth="yes"/>
      <point x="217.926" y="242.29"/>
      <point x="219.489" y="235.974"/>
      <point x="222.635" y="230.475" type="curve" smooth="yes"/>
      <point x="225.78" y="224.976"/>
      <point x="230.569" y="220.331"/>
      <point x="236.406" y="217.867" type="curve" smooth="yes"/>
      <point x="239.985" y="216.356"/>
      <point x="244.089" y="215.694"/>
      <point x="247.766" y="216.949" type="curve" smooth="yes"/>
      <point x="251.253" y="218.141"/>
      <point x="254.037" y="220.986"/>
      <point x="255.6" y="224.323" type="curve" smooth="yes"/>
      <point x="257.164" y="227.66"/>
      <point x="257.58" y="231.449"/>
      <point x="257.287" y="235.122" type="curve" smooth="yes"/>
      <point x="256.7" y="242.468"/>
      <point x="253.412" y="249.292"/>
      <point x="251.553" y="256.423" type="curve" smooth="yes"/>
      <point x="248.013" y="269.99"/>
      <point x="249.719" y="284.379"/>
      <point x="252.724" y="298.075" type="curve" smooth="yes"/>
      <point x="255.729" y="311.771"/>
      <point x="260.015" y="325.229"/>
      <point x="261.65" y="339.156" type="curve" smooth="yes"/>
      <point x="262.438" y="345.866"/>
      <point x="262.604" y="352.639"/>
      <point x="263.449" y="359.342" type="curve" smooth="yes"/>
      <point x="264.293" y="366.044"/>
      <point x="265.859" y="372.771"/>
      <point x="269.224" y="378.629" type="curve" smooth="yes"/>
      <point x="271.955" y="383.387"/>
      <point x="275.854" y="387.483"/>
      <point x="280.526" y="390.359" type="curve" smooth="yes"/>
      <point x="285.198" y="393.236"/>
      <point x="290.638" y="394.879"/>
      <point x="296.123" y="394.968" type="curve" smooth="yes"/>
      <point x="301.608" y="395.058"/>
      <point x="307.124" y="393.581"/>
      <point x="311.78" y="390.679" type="curve" smooth="yes"/>
      <point x="316.437" y="387.776"/>
      <point x="320.206" y="383.447"/>
      <point x="322.352" y="378.397" type="curve" smooth="yes"/>
      <point x="324.354" y="373.687"/>
      <point x="324.928" y="368.471"/>
      <point x="324.777" y="363.354" type="curve" smooth="yes"/>
      <point x="324.628" y="358.237"/>
      <point x="323.781" y="353.17"/>
      <point x="323.04" y="348.104" type="curve" smooth="yes"/>
      <point x="320.731" y="332.304"/>
      <point x="319.454" y="316.374"/>
      <point x="317.877" y="300.484" type="curve" smooth="yes"/>
      <point x="316.66" y="288.235"/>
      <point x="315.266" y="276.006"/>
      <point x="313.975" y="263.765" type="curve" smooth="yes"/>
      <point x="310.941" y="234.993"/>
      <point x="308.484" y="206.155"/>
      <point x="304.681" y="177.475" type="curve" smooth="yes"/>
      <point x="298.117" y="127.974"/>
      <point x="287.531" y="78.6943"/>
      <point x="288.042" y="28.7617" type="curve" smooth="yes"/>
      <point x="288.103" y="22.8633"/>
      <point x="288.302" y="16.8389"/>
      <point x="286.55" y="11.2051" type="curve" smooth="yes"/>
      <point x="284.972" y="6.12793"/>
      <point x="281.857" y="1.61523"/>
      <point x="278.06" y="-2.10547" type="curve" smooth="yes"/>
      <point x="270.234" y="-9.76953"/>
      <point x="259.261" y="-14.1904"/>
      <point x="248.313" y="-13.8252" type="curve" smooth="yes"/>
      <point x="237.366" y="-13.46"/>
      <point x="226.62" y="-8.24023"/>
      <point x="219.768" y="0.304688" type="curve" smooth="yes"/>
      <point x="213.875" y="7.65332"/>
      <point x="210.995" y="16.999"/>
      <point x="209.598" y="26.3135" type="curve" smooth="yes"/>
      <point x="208.199" y="35.6279"/>
      <point x="208.16" y="45.0898"/>
      <point x="207.26" y="54.4658" type="curve" smooth="yes"/>
      <point x="205.413" y="73.7051"/>
      <point x="199.97" y="92.3926"/>
      <point x="196.359" y="111.38" type="curve" smooth="yes"/>
      <point x="191.581" y="136.51"/>
      <point x="189.966" y="162.38"/>
      <point x="181.9" y="186.654" type="curve" smooth="yes"/>
      <point x="179.407" y="194.16"/>
      <point x="176.309" y="201.47"/>
      <point x="174.243" y="209.104" type="curve" smooth="yes"/>
      <point x="172.177" y="216.738"/>
      <point x="171.172" y="224.848"/>
      <point x="172.95" y="232.554" type="curve" smooth="yes"/>
      <point x="174.125" y="237.642"/>
      <point x="176.499" y="242.526"/>
      <point x="176.554" y="247.748" type="curve" smooth="yes"/>
      <point x="176.581" y="250.358"/>
      <point x="175.984" y="253.034"/>
      <point x="174.487" y="255.173" type="curve" smooth="yes"/>
      <point x="173.738" y="256.242"/>
      <point x="172.771" y="257.164"/>
      <point x="171.638" y="257.814" type="curve" smooth="yes"/>
      <point x="170.505" y="258.464"/>
      <point x="169.207" y="258.834"/>
      <point x="167.901" y="258.831" type="curve" smooth="yes"/>
      <point x="166.599" y="258.826"/>
      <point x="165.305" y="258.446"/>
      <point x="164.179" y="257.79" type="curve" smooth="yes"/>
      <point x="163.053" y="257.135"/>
      <point x="162.091" y="256.208"/>
      <point x="161.35" y="255.136" type="curve" smooth="yes"/>
      <point x="159.866" y="252.992"/>
      <point x="159.286" y="250.319"/>
      <point x="159.322" y="247.713" type="curve" smooth="yes"/>
      <point x="159.398" y="242.499"/>
      <point x="161.783" y="237.631"/>
      <point x="162.968" y="232.554" type="curve" smooth="yes"/>
      <point x="164.765" y="224.851"/>
      <point x="163.765" y="216.736"/>
      <point x="161.697" y="209.102" type="curve" smooth="yes"/>
      <point x="159.629" y="201.466"/>
      <point x="156.521" y="194.158"/>
      <point x="154.017" y="186.654" type="curve" smooth="yes"/>
      <point x="145.917" y="162.384"/>
      <point x="144.25" y="136.512"/>
      <point x="139.444" y="111.38" type="curve" smooth="yes"/>
      <point x="135.813" y="92.3965"/>
      <point x="130.364" y="73.708"/>
      <point x="128.543" y="54.4658" type="curve" smooth="yes"/>
      <point x="127.656" y="45.0928"/>
      <point x="127.636" y="35.6357"/>
      <point x="126.26" y="26.3223" type="curve" smooth="yes"/>
      <point x="124.884" y="17.0098"/>
      <point x="122.025" y="7.66016"/>
      <point x="116.15" y="0.304688" type="curve" smooth="yes"/>
      <point x="109.299" y="-8.27246"/>
      <point x="98.5234" y="-13.5098"/>
      <point x="87.5508" y="-13.8701" type="curve" smooth="yes"/>
      <point x="76.5791" y="-14.2314"/>
      <point x="65.584" y="-9.79004"/>
      <point x="57.7441" y="-2.10547" type="curve" smooth="yes"/>
      <point x="53.9473" y="1.61621"/>
      <point x="50.832" y="6.12891"/>
      <point x="49.252" y="11.2051" type="curve" smooth="yes"/>
      <point x="47.501" y="16.8389"/>
      <point x="47.6992" y="22.8633"/>
      <point x="47.7607" y="28.7617" type="curve" smooth="yes"/>
      <point x="48.2764" y="78.6943"/>
      <point x="37.6875" y="127.974"/>
      <point x="31.123" y="177.475" type="curve" smooth="yes"/>
      <point x="27.3193" y="206.155"/>
      <point x="24.8613" y="234.993"/>
      <point x="21.8281" y="263.765" type="curve" smooth="yes"/>
      <point x="20.5371" y="276.006"/>
      <point x="19.1416" y="288.235"/>
      <point x="17.9268" y="300.484" type="curve" smooth="yes"/>
      <point x="16.3496" y="316.374"/>
      <point x="15.0742" y="332.305"/>
      <point x="12.7627" y="348.104" type="curve" smooth="yes"/>
      <point x="12.0225" y="353.17"/>
      <point x="11.1729" y="358.237"/>
      <point x="11.0225" y="363.354" type="curve" smooth="yes"/>
      <point x="10.8721" y="368.472"/>
      <point x="11.4473" y="373.687"/>
      <point x="13.4512" y="378.397" type="curve" smooth="yes"/>
      <point x="15.5977" y="383.443"/>
      <point x="19.3691" y="387.766"/>
      <point x="24.0254" y="390.662" type="curve" smooth="yes"/>
      <point x="28.6807" y="393.559"/>
      <point x="34.1934" y="395.03"/>
      <point x="39.6758" y="394.938" type="curve" smooth="yes"/>
      <point x="45.1572" y="394.847"/>
      <point x="50.5928" y="393.206"/>
      <point x="55.2637" y="390.335" type="curve" smooth="yes"/>
      <point x="59.9346" y="387.463"/>
      <point x="63.8369" y="383.377"/>
      <point x="66.5791" y="378.629" type="curve" smooth="yes"/>
      <point x="69.9609" y="372.775"/>
      <point x="71.5518" y="366.053"/>
      <point x="72.4189" y="359.349" type="curve" smooth="yes"/>
      <point x="73.2861" y="352.645"/>
      <point x="73.4717" y="345.869"/>
      <point x="74.2676" y="339.156" type="curve" smooth="yes"/>
      <point x="75.918" y="325.235"/>
      <point x="80.1641" y="311.772"/>
      <point x="83.1318" y="298.072" type="curve" smooth="yes"/>
      <point x="86.0996" y="284.371"/>
      <point x="87.7686" y="269.992"/>
      <point x="84.251" y="256.423" type="curve" smooth="yes"/>
      <point x="82.4014" y="249.288"/>
      <point x="79.1377" y="242.452"/>
      <point x="78.5771" y="235.104" type="curve" smooth="yes"/>
      <point x="78.2959" y="231.429"/>
      <point x="78.7285" y="227.641"/>
      <point x="80.3008" y="224.308" type="curve" smooth="yes"/>
      <point x="81.8721" y="220.975"/>
      <point x="84.6631" y="218.136"/>
      <point x="88.1523" y="216.949" type="curve" smooth="yes"/>
      <point x="91.8291" y="215.698"/>
      <point x="95.9316" y="216.361"/>
      <point x="99.5117" y="217.867" type="curve" smooth="yes"/>
      <point x="105.356" y="220.327"/>
      <point x="110.16" y="224.964"/>
      <point x="113.321" y="230.46" type="curve" smooth="yes"/>
      <point x="116.483" y="235.956"/>
      <point x="118.065" y="242.274"/>
      <point x="118.444" y="248.604" type="curve" smooth="yes"/>
      <point x="119.202" y="261.263"/>
      <point x="115.309" y="273.683"/>
      <point x="111.561" y="285.798" type="curve" smooth="yes"/>
      <point x="105.896" y="304.108"/>
      <point x="100.399" y="323.166"/>
      <point x="102.909" y="342.168" type="curve" smooth="yes"/>
      <point x="104.165" y="351.669"/>
      <point x="107.495" y="361.004"/>
      <point x="113.308" y="368.624" type="curve" smooth="yes"/>
      <point x="119.12" y="376.243"/>
      <point x="127.52" y="382.044"/>
      <point x="136.919" y="383.907" type="curve" smooth="yes"/>
      <point x="140.388" y="384.595"/>
      <point x="143.96" y="384.75"/>
    </contour>
  </outline>
</glyph>
<glyph name="x" format="1">
  <advance width="203"/>
  <unicode hex="0078"/>
  <outline>
    <contour>
      <point x="77.4736" y="24.5479" type="curve" smooth="yes"/>
      <point x="74.9453" y="15.6924"/>
      <point x="69.3389" y="6.8877"/>
      <point x="61.5166" y="2.0625" type="curve" smooth="yes"/>
      <point x="53.3799" y="-2.95801"/>
      <point x="42.7803" y="-5.30371"/>
      <point x="33.165" y="-2.2793" type="curve" smooth="yes"/>
      <point x="26.752" y="-0.261719"/>
      <point x="21.0479" y="3.8418"/>
      <point x="16.916" y="9.14551" type="curve" smooth="yes"/>
      <point x="12.7852" y="14.4482"/>
      <point x="10.2139" y="20.916"/>
      <point x="9.34961" y="27.583" type="curve" smooth="yes"/>
      <point x="8.14844" y="36.8447"/>
      <point x="10.1826" y="46.2568"/>
      <point x="13.3193" y="55.0537" type="curve" smooth="yes"/>
      <point x="16.4551" y="63.8516"/>
      <point x="20.6836" y="72.2178"/>
      <point x="24.1006" y="80.9102" type="curve" smooth="yes"/>
      <point x="34.3555" y="106.998"/>
      <point x="37.1621" y="135.667"/>
      <point x="48.6045" y="161.257" type="curve" smooth="yes"/>
      <point x="51.9922" y="168.833"/>
      <point x="56.1113" y="176.075"/>
      <point x="59.2588" y="183.755" type="curve" smooth="yes"/>
      <point x="62.4062" y="191.434"/>
      <point x="64.5801" y="199.722"/>
      <point x="63.8066" y="207.985" type="curve" smooth="yes"/>
      <point x="63.1953" y="214.514"/>
      <point x="60.7803" y="220.725"/>
      <point x="58.2666" y="226.78" type="curve" smooth="yes"/>
      <point x="49.1875" y="248.656"/>
      <point x="38.4766" y="269.886"/>
      <point x="30.8594" y="292.312" type="curve" smooth="yes"/>
      <point x="23.2422" y="314.738"/>
      <point x="18.7783" y="338.808"/>
      <point x="22.7139" y="362.163" type="curve" smooth="yes"/>
      <point x="23.4814" y="366.717"/>
      <point x="24.6064" y="371.32"/>
      <point x="27.1201" y="375.194" type="curve" smooth="yes"/>
      <point x="29.5215" y="378.896"/>
      <point x="33.1279" y="381.767"/>
      <point x="37.1982" y="383.471" type="curve" smooth="yes"/>
      <point x="41.2695" y="385.174"/>
      <point x="45.7852" y="385.731"/>
      <point x="50.1738" y="385.279" type="curve" smooth="yes"/>
      <point x="58.9531" y="384.375"/>
      <point x="66.9746" y="379.515"/>
      <point x="73.1152" y="373.175" type="curve" smooth="yes"/>
      <point x="76.5771" y="369.602"/>
      <point x="79.5439" y="365.519"/>
      <point x="81.6318" y="361.002" type="curve" smooth="yes"/>
      <point x="83.7207" y="356.486"/>
      <point x="84.916" y="351.529"/>
      <point x="84.8506" y="346.554" type="curve" smooth="yes"/>
      <point x="84.7598" y="339.635"/>
      <point x="82.2646" y="332.816"/>
      <point x="82.9463" y="325.931" type="curve" smooth="yes"/>
      <point x="83.2871" y="322.487"/>
      <point x="84.4902" y="319.034"/>
      <point x="86.877" y="316.529" type="curve" smooth="yes"/>
      <point x="88.0703" y="315.276"/>
      <point x="89.5469" y="314.282"/>
      <point x="91.1855" y="313.727" type="curve" smooth="yes"/>
      <point x="92.8232" y="313.172"/>
      <point x="94.624" y="313.066"/>
      <point x="96.2969" y="313.506" type="curve" smooth="yes"/>
      <point x="98.2822" y="314.029"/>
      <point x="100.025" y="315.302"/>
      <point x="101.309" y="316.904" type="curve" smooth="yes"/>
      <point x="102.592" y="318.508"/>
      <point x="103.436" y="320.429"/>
      <point x="103.974" y="322.41" type="curve" smooth="yes"/>
      <point x="105.05" y="326.372"/>
      <point x="104.936" y="330.55"/>
      <point x="105.48" y="334.62" type="curve" smooth="yes"/>
      <point x="106.712" y="343.823"/>
      <point x="111.267" y="352.235"/>
      <point x="113.527" y="361.241" type="curve" smooth="yes"/>
      <point x="114.24" y="364.08"/>
      <point x="114.736" y="367.012"/>
      <point x="116.03" y="369.638" type="curve" smooth="yes"/>
      <point x="117.439" y="372.496"/>
      <point x="119.754" y="374.861"/>
      <point x="122.454" y="376.554" type="curve" smooth="yes"/>
      <point x="125.155" y="378.246"/>
      <point x="128.231" y="379.286"/>
      <point x="131.37" y="379.839" type="curve" smooth="yes"/>
      <point x="137.648" y="380.945"/>
      <point x="144.082" y="380.139"/>
      <point x="150.428" y="379.545" type="curve" smooth="yes"/>
      <point x="159.084" y="378.735"/>
      <point x="168.124" y="378.226"/>
      <point x="175.675" y="373.915" type="curve" smooth="yes"/>
      <point x="180.093" y="371.394"/>
      <point x="183.774" y="367.648"/>
      <point x="186.403" y="363.292" type="curve" smooth="yes"/>
      <point x="189.031" y="358.937"/>
      <point x="190.619" y="353.983"/>
      <point x="191.227" y="348.933" type="curve" smooth="yes"/>
      <point x="192.44" y="338.83"/>
      <point x="189.743" y="328.546"/>
      <point x="185.139" y="319.472" type="curve" smooth="yes"/>
      <point x="175.932" y="301.324"/>
      <point x="159.668" y="287.869"/>
      <point x="147.884" y="271.279" type="curve" smooth="yes"/>
      <point x="134.271" y="252.114"/>
      <point x="126.805" y="228.224"/>
      <point x="129.24" y="204.842" type="curve" smooth="yes"/>
      <point x="130.291" y="194.76"/>
      <point x="133.12" y="184.928"/>
      <point x="136.759" y="175.467" type="curve" smooth="yes"/>
      <point x="146.26" y="150.769"/>
      <point x="161.194" y="128.549"/>
      <point x="172.225" y="104.495" type="curve" smooth="yes"/>
      <point x="177.74" y="92.4688"/>
      <point x="182.293" y="79.917"/>
      <point x="184.526" y="66.876" type="curve" smooth="yes"/>
      <point x="186.761" y="53.835"/>
      <point x="186.616" y="40.2559"/>
      <point x="182.895" y="27.5596" type="curve" smooth="yes"/>
      <point x="180.842" y="20.5586"/>
      <point x="177.653" y="13.7783"/>
      <point x="172.741" y="8.38379" type="curve" smooth="yes"/>
      <point x="167.829" y="2.99023"/>
      <point x="161.067" y="-0.924805"/>
      <point x="153.796" y="-1.51074" type="curve" smooth="yes"/>
      <point x="149.729" y="-1.83789"/>
      <point x="145.603" y="-1.125"/>
      <point x="141.807" y="0.37207" type="curve" smooth="yes"/>
      <point x="138.01" y="1.86914"/>
      <point x="134.539" y="4.13867"/>
      <point x="131.513" y="6.87695" type="curve" smooth="yes"/>
      <point x="125.461" y="12.3525"/>
      <point x="121.255" y="19.5918"/>
      <point x="118.048" y="27.0967" type="curve" smooth="yes"/>
      <point x="113.267" y="38.2832"/>
      <point x="110.521" y="50.209"/>
      <point x="107.448" y="61.9795" type="curve" smooth="yes"/>
      <point x="105.444" y="69.6553"/>
      <point x="103.291" y="77.292"/>
      <point x="101.146" y="84.9297" type="curve" smooth="yes"/>
      <point x="100.528" y="87.1279"/>
      <point x="99.9082" y="89.3369"/>
      <point x="98.9561" y="91.4131" type="curve" smooth="yes"/>
      <point x="98.0049" y="93.4883"/>
      <point x="96.6992" y="95.4434"/>
      <point x="94.9102" y="96.8633" type="curve" smooth="yes"/>
      <point x="92.8037" y="98.5361"/>
      <point x="90.0879" y="99.3887"/>
      <point x="87.3975" y="99.3516" type="curve" smooth="yes"/>
      <point x="84.708" y="99.3164"/>
      <point x="82.0547" y="98.415"/>
      <point x="79.8193" y="96.918" type="curve" smooth="yes"/>
      <point x="77.585" y="95.4199"/>
      <point x="75.7627" y="93.3408"/>
      <point x="74.4473" y="90.9941" type="curve" smooth="yes"/>
      <point x="73.1318" y="88.6465"/>
      <point x="72.3154" y="86.0371"/>
      <point x="71.918" y="83.376" type="curve" smooth="yes"/>
      <point x="71.1221" y="78.0547"/>
      <point x="71.9863" y="72.6152"/>
      <point x="73.3389" y="67.4082" type="curve" smooth="yes"/>
      <point x="74.6924" y="62.2002"/>
      <point x="76.5332" y="57.124"/>
      <point x="77.7471" y="51.8818" type="curve" smooth="yes"/>
      <point x="79.8213" y="42.9092"/>
      <point x="80.002" y="33.4043"/>
    </contour>
  </outline>
</glyph>
<glyph name="y" format="1">
  <advance width="215"/>
  <unicode hex="0079"/>
  <outline>
    <contour>
      <point x="90.3359" y="-116.064" type="curve" smooth="yes"/>
      <point x="87.5674" y="-123.323"/>
      <point x="83.1475" y="-131.072"/>
      <point x="77.0312" y="-136.37" type="curve" smooth="yes"/>
      <point x="68.8838" y="-143.429"/>
      <point x="58.6816" y="-147.227"/>
      <point x="47.7314" y="-150.058" type="curve" smooth="yes"/>
      <point x="43.3174" y="-151.198"/>
      <point x="38.8203" y="-152.223"/>
      <point x="34.2617" y="-152.183" type="curve" smooth="yes"/>
      <point x="29.7031" y="-152.144"/>
      <point x="25.0254" y="-150.954"/>
      <point x="21.4863" y="-148.079" type="curve" smooth="yes"/>
      <point x="17.9727" y="-145.225"/>
      <point x="15.8574" y="-140.943"/>
      <point x="14.7617" y="-136.551" type="curve" smooth="yes"/>
      <point x="13.665" y="-132.158"/>
      <point x="13.4912" y="-127.598"/>
      <point x="13.2246" y="-123.078" type="curve" smooth="yes"/>
      <point x="12.9395" y="-118.253"/>
      <point x="12.543" y="-113.383"/>
      <point x="13.3066" y="-108.61" type="curve" smooth="yes"/>
      <point x="13.6875" y="-106.225"/>
      <point x="14.3623" y="-103.874"/>
      <point x="15.4482" y="-101.715" type="curve" smooth="yes"/>
      <point x="16.5342" y="-99.5566"/>
      <point x="18.0391" y="-97.5908"/>
      <point x="19.9404" y="-96.0996" type="curve" smooth="yes"/>
      <point x="21.9639" y="-94.5127"/>
      <point x="24.373" y="-93.499"/>
      <point x="26.8008" y="-92.6494" type="curve" smooth="yes"/>
      <point x="29.2275" y="-91.7988"/>
      <point x="31.7109" y="-91.0908"/>
      <point x="34.0498" y="-90.0225" type="curve" smooth="yes"/>
      <point x="39.5283" y="-87.5215"/>
      <point x="43.9912" y="-83.123"/>
      <point x="47.2969" y="-78.0889" type="curve" smooth="yes"/>
      <point x="52.9873" y="-69.4189"/>
      <point x="55.3662" y="-59.0645"/>
      <point x="57.9766" y="-49.0273" type="curve" smooth="yes"/>
      <point x="59.8193" y="-41.9424"/>
      <point x="61.8291" y="-34.8887"/>
      <point x="63.1123" y="-27.6816" type="curve" smooth="yes"/>
      <point x="65.3369" y="-15.1895"/>
      <point x="65.3477" y="-2.41016"/>
      <point x="64.8652" y="10.2695" type="curve" smooth="yes"/>
      <point x="62.0195" y="85.0059"/>
      <point x="42.3682" y="157.909"/>
      <point x="27.8145" y="231.271" type="curve" smooth="yes"/>
      <point x="23.8262" y="251.376"/>
      <point x="20.2148" y="271.561"/>
      <point x="17.3604" y="291.857" type="curve" smooth="yes"/>
      <point x="15.2871" y="306.604"/>
      <point x="13.6064" y="321.445"/>
      <point x="10.1055" y="335.921" type="curve" smooth="yes"/>
      <point x="8.31641" y="343.312"/>
      <point x="6.04004" y="350.914"/>
      <point x="7.42969" y="358.392" type="curve" smooth="yes"/>
      <point x="8.53027" y="364.318"/>
      <point x="11.9326" y="369.69"/>
      <point x="16.4482" y="373.684" type="curve" smooth="yes"/>
      <point x="20.9639" y="377.678"/>
      <point x="26.542" y="380.351"/>
      <point x="32.3486" y="381.968" type="curve" smooth="yes"/>
      <point x="36.6709" y="383.172"/>
      <point x="41.1836" y="383.815"/>
      <point x="45.6562" y="383.463" type="curve" smooth="yes"/>
      <point x="50.1299" y="383.111"/>
      <point x="54.5674" y="381.731"/>
      <point x="58.2393" y="379.152" type="curve" smooth="yes"/>
      <point x="61.5586" y="376.821"/>
      <point x="64.1748" y="373.567"/>
      <point x="66.0273" y="369.959" type="curve" smooth="yes"/>
      <point x="67.8799" y="366.351"/>
      <point x="68.9902" y="362.393"/>
      <point x="69.6055" y="358.384" type="curve" smooth="yes"/>
      <point x="70.8389" y="350.366"/>
      <point x="70.1367" y="342.196"/>
      <point x="70.1006" y="334.085" type="curve" smooth="yes"/>
      <point x="70.0449" y="317.75"/>
      <point x="72.7783" y="301.479"/>
      <point x="77.2344" y="285.764" type="curve" smooth="yes"/>
      <point x="79.9434" y="276.209"/>
      <point x="83.293" y="266.816"/>
      <point x="85.2568" y="257.08" type="curve" smooth="yes"/>
      <point x="87.2217" y="247.345"/>
      <point x="87.749" y="237.091"/>
      <point x="84.8242" y="227.599" type="curve" smooth="yes"/>
      <point x="83.5117" y="223.336"/>
      <point x="81.5322" y="219.315"/>
      <point x="79.8662" y="215.178" type="curve" smooth="yes"/>
      <point x="78.2012" y="211.04"/>
      <point x="76.8428" y="206.69"/>
      <point x="76.8428" y="202.23" type="curve" smooth="yes"/>
      <point x="76.8467" y="200.001"/>
      <point x="77.2021" y="197.761"/>
      <point x="78.0088" y="195.682" type="curve" smooth="yes"/>
      <point x="78.8145" y="193.603"/>
      <point x="80.0811" y="191.688"/>
      <point x="81.7637" y="190.225" type="curve" smooth="yes"/>
      <point x="83.4463" y="188.761"/>
      <point x="85.5527" y="187.764"/>
      <point x="87.7686" y="187.511" type="curve" smooth="yes"/>
      <point x="89.9844" y="187.258"/>
      <point x="92.2998" y="187.773"/>
      <point x="94.1328" y="189.044" type="curve" smooth="yes"/>
      <point x="96.2324" y="190.498"/>
      <point x="97.5898" y="192.833"/>
      <point x="98.3545" y="195.27" type="curve" smooth="yes"/>
      <point x="99.1201" y="197.706"/>
      <point x="99.3506" y="200.272"/>
      <point x="99.6143" y="202.813" type="curve" smooth="yes"/>
      <point x="101.711" y="222.98"/>
      <point x="106.161" y="242.829"/>
      <point x="111.15" y="262.482" type="curve" smooth="yes"/>
      <point x="117.601" y="287.883"/>
      <point x="125.017" y="313.389"/>
      <point x="125.442" y="339.593" type="curve" smooth="yes"/>
      <point x="125.53" y="345.049"/>
      <point x="125.314" y="350.521"/>
      <point x="125.843" y="355.951" type="curve" smooth="yes"/>
      <point x="126.37" y="361.382"/>
      <point x="127.687" y="366.844"/>
      <point x="130.597" y="371.46" type="curve" smooth="yes"/>
      <point x="132.155" y="373.934"/>
      <point x="134.157" y="376.131"/>
      <point x="136.497" y="377.886" type="curve" smooth="yes"/>
      <point x="140.549" y="380.925"/>
      <point x="145.513" y="382.569"/>
      <point x="150.524" y="383.299" type="curve" smooth="yes"/>
      <point x="155.536" y="384.029"/>
      <point x="160.631" y="383.89"/>
      <point x="165.689" y="383.655" type="curve" smooth="yes"/>
      <point x="174.902" y="383.229"/>
      <point x="184.466" y="382.385"/>
      <point x="192.428" y="377.731" type="curve" smooth="yes"/>
      <point x="197.393" y="374.83"/>
      <point x="201.496" y="370.539"/>
      <point x="204.407" y="365.58" type="curve" smooth="yes"/>
      <point x="207.319" y="360.622"/>
      <point x="209.058" y="355.012"/>
      <point x="209.732" y="349.302" type="curve" smooth="yes"/>
      <point x="211.082" y="337.881"/>
      <point x="208.213" y="326.294"/>
      <point x="203.567" y="315.774" type="curve" smooth="yes"/>
      <point x="194.275" y="294.734"/>
      <point x="177.979" y="277.038"/>
      <point x="170.95" y="255.139" type="curve" smooth="yes"/>
      <point x="168.084" y="246.207"/>
      <point x="166.858" y="236.85"/>
      <point x="165.308" y="227.599" type="curve" smooth="yes"/>
      <point x="162.41" y="210.328"/>
      <point x="158.341" y="193.279"/>
      <point x="154.507" y="176.192" type="curve" smooth="yes"/>
      <point x="148.754" y="150.56"/>
      <point x="143.524" y="124.812"/>
      <point x="138.229" y="99.082" type="curve" smooth="yes"/>
      <point x="134.068" y="78.8584"/>
      <point x="129.867" y="58.6426"/>
      <point x="125.354" y="38.4951" type="curve" smooth="yes"/>
      <point x="117.562" y="3.72461"/>
      <point x="108.829" y="-30.8936"/>
      <point x="103.698" y="-66.1553" type="curve" smooth="yes"/>
      <point x="102.573" y="-73.8799"/>
      <point x="101.617" y="-81.6592"/>
      <point x="99.5449" y="-89.1855" type="curve" smooth="yes"/>
      <point x="97.8945" y="-95.1826"/>
      <point x="95.5498" y="-100.963"/>
      <point x="93.5254" y="-106.844" type="curve" smooth="yes"/>
      <point x="92.4668" y="-109.92"/>
      <point x="91.4951" y="-113.025"/>
    </contour>
  </outline>
</glyph>
<glyph name="z" format="1">
  <advance width="206"/>
  <unicode hex="007A"/>
  <outline>
    <contour>
      <point x="163.13" y="369.476" type="curve" smooth="yes"/>
      <point x="163.132" y="369.476" type="line"/>
      <point x="163.132" y="369.479" type="line" smooth="yes"/>
      <point x="163.132" y="371.179"/>
      <point x="163.657" y="372.868"/>
      <point x="164.578" y="374.297" type="curve" smooth="yes"/>
      <point x="165.498" y="375.727"/>
      <point x="166.807" y="376.896"/>
      <point x="168.306" y="377.698" type="curve" smooth="yes"/>
      <point x="171.303" y="379.304"/>
      <point x="174.985" y="379.389"/>
      <point x="178.205" y="378.296" type="curve" smooth="yes"/>
      <point x="181.425" y="377.204"/>
      <point x="184.199" y="375.012"/>
      <point x="186.352" y="372.379" type="curve" smooth="yes"/>
      <point x="188.502" y="369.746"/>
      <point x="190.066" y="366.68"/>
      <point x="191.349" y="363.53" type="curve" smooth="yes"/>
      <point x="198.076" y="347.003"/>
      <point x="197.174" y="328.195"/>
      <point x="192.602" y="310.947" type="curve" smooth="yes"/>
      <point x="185.41" y="283.825"/>
      <point x="169.801" y="259.844"/>
      <point x="157.887" y="234.44" type="curve" smooth="yes"/>
      <point x="155.913" y="230.231"/>
      <point x="154.037" y="225.976"/>
      <point x="152.314" y="221.657" type="curve" smooth="yes"/>
      <point x="144.913" y="203.104"/>
      <point x="140.388" y="183.543"/>
      <point x="133.938" y="164.637" type="curve" smooth="yes"/>
      <point x="127.49" y="145.731"/>
      <point x="118.821" y="127.059"/>
      <point x="104.681" y="112.95" type="curve" smooth="yes"/>
      <point x="95.1465" y="103.439"/>
      <point x="83.2754" y="96.1465"/>
      <point x="75.4912" y="85.1572" type="curve" smooth="yes"/>
      <point x="71.5996" y="79.6621"/>
      <point x="68.8203" y="73.2168"/>
      <point x="68.5293" y="66.4893" type="curve" smooth="yes"/>
      <point x="68.3838" y="63.126"/>
      <point x="68.8672" y="59.7227"/>
      <point x="70.0703" y="56.5781" type="curve" smooth="yes"/>
      <point x="71.2725" y="53.4336"/>
      <point x="73.2031" y="50.5537"/>
      <point x="75.7432" y="48.3438" type="curve" smooth="yes"/>
      <point x="80.3389" y="44.3477"/>
      <point x="86.668" y="42.7686"/>
      <point x="92.7559" y="42.9365" type="curve" smooth="yes"/>
      <point x="98.8447" y="43.1045"/>
      <point x="104.771" y="44.8691"/>
      <point x="110.517" y="46.8906" type="curve" smooth="yes"/>
      <point x="122.86" y="51.2354"/>
      <point x="135.021" y="56.8955"/>
      <point x="148.074" y="57.8203" type="curve" smooth="yes"/>
      <point x="154.601" y="58.2822"/>
      <point x="161.297" y="57.502"/>
      <point x="167.28" y="54.8555" type="curve" smooth="yes"/>
      <point x="173.264" y="52.209"/>
      <point x="178.489" y="47.5967"/>
      <point x="181.227" y="41.6543" type="curve" smooth="yes"/>
      <point x="184.174" y="35.2559"/>
      <point x="184.081" y="27.9482"/>
      <point x="184.596" y="20.9229" type="curve" smooth="yes"/>
      <point x="184.928" y="16.3809"/>
      <point x="185.536" y="11.832"/>
      <point x="185.214" y="7.29004" type="curve" smooth="yes"/>
      <point x="184.891" y="2.74805"/>
      <point x="183.537" y="-1.88867"/>
      <point x="180.448" y="-5.23633" type="curve" smooth="yes"/>
      <point x="178.582" y="-7.25977"/>
      <point x="176.153" y="-8.72461"/>
      <point x="173.553" y="-9.62988" type="curve" smooth="yes"/>
      <point x="170.952" y="-10.5342"/>
      <point x="168.183" y="-10.8936"/>
      <point x="165.43" y="-10.8906" type="curve" smooth="yes"/>
      <point x="159.923" y="-10.8848"/>
      <point x="154.533" y="-9.46191"/>
      <point x="149.146" y="-8.32031" type="curve" smooth="yes"/>
      <point x="129.919" y="-4.24512"/>
      <point x="109.752" y="-3.7207"/>
      <point x="90.6953" y="-8.5332" type="curve" smooth="yes"/>
      <point x="76.124" y="-12.2139"/>
      <point x="62.2568" y="-18.9668"/>
      <point x="47.3037" y="-20.4785" type="curve" smooth="yes"/>
      <point x="39.8271" y="-21.2354"/>
      <point x="32.0957" y="-20.6133"/>
      <point x="25.168" y="-17.7031" type="curve" smooth="yes"/>
      <point x="18.2393" y="-14.793"/>
      <point x="12.1797" y="-9.43652"/>
      <point x="9.31543" y="-2.48926" type="curve" smooth="yes"/>
      <point x="6.42383" y="4.52246"/>
      <point x="6.94531" y="12.3975"/>
      <point x="7.22656" y="19.9766" type="curve" smooth="yes"/>
      <point x="7.33594" y="22.9316"/>
      <point x="7.40234" y="25.8926"/>
      <point x="7.77246" y="28.8262" type="curve" smooth="yes"/>
      <point x="9.06445" y="39.0586"/>
      <point x="13.9521" y="48.4189"/>
      <point x="18.043" y="57.8877" type="curve" smooth="yes"/>
      <point x="34.709" y="96.4639"/>
      <point x="38.7598" y="139.138"/>
      <point x="49.5762" y="179.745" type="curve" smooth="yes"/>
      <point x="54.9844" y="200.048"/>
      <point x="62.1807" y="220.047"/>
      <point x="73.167" y="237.957" type="curve" smooth="yes"/>
      <point x="84.1533" y="255.867"/>
      <point x="99.125" y="271.673"/>
      <point x="117.682" y="281.528" type="curve" smooth="yes"/>
      <point x="120.841" y="283.207"/>
      <point x="124.098" y="284.711"/>
      <point x="127.14" y="286.596" type="curve" smooth="yes"/>
      <point x="130.181" y="288.479"/>
      <point x="133.032" y="290.78"/>
      <point x="135.036" y="293.744" type="curve" smooth="yes"/>
      <point x="137.04" y="296.708"/>
      <point x="138.132" y="300.399"/>
      <point x="137.482" y="303.918" type="curve" smooth="yes"/>
      <point x="137.158" y="305.677"/>
      <point x="136.401" y="307.364"/>
      <point x="135.243" y="308.728" type="curve" smooth="yes"/>
      <point x="134.085" y="310.091"/>
      <point x="132.522" y="311.12"/>
      <point x="130.792" y="311.573" type="curve" smooth="yes"/>
      <point x="128.996" y="312.044"/>
      <point x="127.105" y="311.892"/>
      <point x="125.253" y="311.772" type="curve" smooth="yes"/>
      <point x="107.637" y="310.638"/>
      <point x="89.7168" y="312.728"/>
      <point x="72.4502" y="309.058" type="curve" smooth="yes"/>
      <point x="64.3691" y="307.34"/>
      <point x="56.5215" y="304.374"/>
      <point x="48.293" y="303.634" type="curve" smooth="yes"/>
      <point x="44.1777" y="303.264"/>
      <point x="39.9736" y="303.467"/>
      <point x="36.0166" y="304.651" type="curve" smooth="yes"/>
      <point x="32.0586" y="305.836"/>
      <point x="28.3516" y="308.045"/>
      <point x="25.7363" y="311.243" type="curve" smooth="yes"/>
      <point x="22.8984" y="314.713"/>
      <point x="21.4766" y="319.155"/>
      <point x="20.8789" y="323.598" type="curve" smooth="yes"/>
      <point x="20.2803" y="328.04"/>
      <point x="20.4434" y="332.544"/>
      <point x="20.4434" y="337.026" type="curve" smooth="yes"/>
      <point x="20.4375" y="345.819"/>
      <point x="19.8154" y="354.886"/>
      <point x="22.8506" y="363.138" type="curve" smooth="yes"/>
      <point x="24.7295" y="368.247"/>
      <point x="27.9688" y="372.818"/>
      <point x="32.0107" y="376.465" type="curve" smooth="yes"/>
      <point x="36.0518" y="380.11"/>
      <point x="40.8818" y="382.844"/>
      <point x="46.0127" y="384.661" type="curve" smooth="yes"/>
      <point x="56.2754" y="388.295"/>
      <point x="67.5449" y="388.246"/>
      <point x="78.2656" y="386.351" type="curve" smooth="yes"/>
      <point x="99.707" y="382.562"/>
      <point x="119.548" y="371.691"/>
      <point x="141.172" y="369.146" type="curve" smooth="yes"/>
      <point x="148.464" y="368.289"/>
      <point x="155.866" y="368.399"/>
    </contour>
  </outline>
</glyph>
